<?xml version="1.0" standalone="no"?>
<!DOCTYPE svg PUBLIC "-//W3C//DTD SVG 1.1//EN" "http://www.w3.org/Graphics/SVG/1.1/DTD/svg11.dtd" >
<svg xmlns="http://www.w3.org/2000/svg" xmlns:xlink="http://www.w3.org/1999/xlink" version="1.1">
<metadata>
Created by FontForge 20170731 at Wed Jul 15 03:30:50 2020
 By Aleksey,,,
Copyright 2020 The Catamaran Project Authors (https://github.com/VanillaandCream/Catamaran-Tamil)
</metadata>
<defs>
<font id="Catamaran-Regular" horiz-adv-x="529" >
  <font-face 
    font-family="Catamaran"
    font-weight="400"
    font-stretch="normal"
    units-per-em="1000"
    panose-1="0 0 0 0 0 0 0 0 0 0"
    ascent="800"
    descent="-200"
    x-height="485"
    cap-height="680"
    bbox="-539 -377 2517 1100"
    underline-thickness="50"
    underline-position="-200"
    unicode-range="U+000D-FB02"
  />
<missing-glyph horiz-adv-x="658" 
d="M94 696v-696h469v696h-469zM482 632l1 -569h-309v569h308z" />
    <glyph glyph-name=".notdef" horiz-adv-x="658" 
d="M94 696v-696h469v696h-469zM482 632l1 -569h-309v569h308z" />
    <glyph glyph-name="uni0000" horiz-adv-x="0" 
 />
    <glyph glyph-name="uni0000" horiz-adv-x="0" 
 />
    <glyph glyph-name="nonmarkingreturn" horiz-adv-x="333" 
 />
    <glyph glyph-name="CR" unicode="&#xd;" horiz-adv-x="0" 
 />
    <glyph glyph-name="space" unicode=" " horiz-adv-x="233" 
 />
    <glyph glyph-name="exclam" unicode="!" horiz-adv-x="168" 
d="M56 223l58 -27l15 506h-89zM85 107q-22 0 -38.5 -15.5t-16.5 -37.5q0 -23 16.5 -38.5t38.5 -15.5t37.5 16t15.5 38t-15 37.5t-38 15.5z" />
    <glyph glyph-name="quotedbl" unicode="&#x22;" horiz-adv-x="328" 
d="M244 712q-15 0 -27 -8t-19.5 -20.5t-7.5 -26.5q0 -20 13.5 -36t32.5 -17q-4 -28 -20 -47t-40 -36l21 -37q29 15 51.5 41t36 59t13.5 65q0 28 -16 45.5t-38 17.5zM88 712q-15 0 -27.5 -8t-20 -20.5t-7.5 -26.5q0 -12 6.5 -24.5t17 -20t22.5 -8.5q-4 -28 -20 -47t-39 -36
l21 -37q28 15 51 41t36.5 59t13.5 65q0 28 -16 45.5t-38 17.5z" />
    <glyph glyph-name="numbersign" unicode="#" horiz-adv-x="519" 
d="M384 507l-30 -127h-132l30 126l-66 1l-29 -127h-127l9 -61h102l-29 -127h-82l9 -62h58l-30 -128l65 -5l31 133h133l-30 -128l64 -5l32 133h127l-8 62h-105l30 127h83l-8 61h-60l30 126zM340 319l-31 -127h-131l30 127h132z" />
    <glyph glyph-name="dollar" unicode="$" horiz-adv-x="513" 
d="M173 -115v109q-24 5 -46.5 10.5t-41.5 13t-31 15.5l18 62q19 -8 45.5 -18t58.5 -16.5t63 -6.5q54 0 90 14t54.5 39.5t18.5 56.5q0 37 -20.5 63t-60.5 48.5t-99 46.5q-44 20 -77.5 40.5t-56 45t-34 53.5t-11.5 64q0 55 34 97.5t96 61.5v107l56 10v-106q8 0 15.5 0.5
t15.5 0.5q9 0 17 -0.5t17 -1.5v98l58 10v-118q24 -6 44.5 -14t37.5 -16l-27 -61q-17 8 -37.5 16t-46 13.5t-59.5 5.5q-64 0 -104.5 -27t-40.5 -75q0 -36 21 -62.5t61.5 -48.5t99.5 -51q44 -19 77 -39t56 -43t35 -51.5t12 -65.5q0 -56 -33.5 -98.5t-95.5 -62.5v-119h-58v106
q-13 -2 -26.5 -3t-27.5 -1h-11v-102h-56z" />
    <glyph glyph-name="percent" unicode="%" horiz-adv-x="862" 
d="M544 710l-305 -710l77 -4l306 710zM191 702q-43 0 -79 -21t-57.5 -59t-21.5 -90q0 -53 20.5 -91t56.5 -58t82 -20q43 0 78.5 20.5t57.5 58.5t22 90q0 54 -20.5 92t-56.5 58t-82 20zM191 640q33 0 58.5 -26t25.5 -82q0 -38 -12.5 -62t-31.5 -34.5t-39 -10.5
q-35 0 -60 25.5t-25 82.5q0 38 12.5 61.5t32 34.5t39.5 11zM672 338q-43 0 -79 -20.5t-57.5 -58.5t-21.5 -90q0 -54 20.5 -92t56.5 -57.5t82 -19.5q43 0 78.5 20.5t57 58.5t21.5 90q0 54 -20.5 92t-56.5 57.5t-81 19.5zM672 277q33 0 58 -26t25 -82q0 -39 -12 -62t-31 -34.5
t-39 -11.5q-35 0 -60 26t-25 82q0 39 13 63t32 34.5t39 10.5z" />
    <glyph glyph-name="ampersand" unicode="&#x26;" horiz-adv-x="668" 
d="M458 121q-28 -31 -68 -48.5t-90 -17.5q-44 0 -84.5 16.5t-66.5 51.5t-26 89q1 49 20 89t53 61q9 -8 18.5 -17.5t19.5 -18.5zM594 -4l42 55l-82 75q21 41 33 91t15 108l-64 26q-3 -51 -13.5 -94.5t-28.5 -79.5l-198 185q-32 31 -54.5 55t-34 48.5t-11.5 56.5q0 28 13.5 52
t38.5 39.5t59 15.5q50 0 77.5 -12t54.5 -24l28 61q-33 16 -71.5 29t-88.5 13q-60 0 -102 -24.5t-64.5 -65.5t-22.5 -90q0 -31 8 -55.5t23 -46.5q-48 -31 -77.5 -85t-30.5 -119q0 -73 34 -122.5t92.5 -74.5t130.5 -25q71 0 124 21.5t89 60.5z" />
    <glyph glyph-name="quotesingle" unicode="'" horiz-adv-x="172" 
d="M88 712q-15 0 -27.5 -8t-20 -20.5t-7.5 -26.5q0 -12 6.5 -24.5t17 -20t22.5 -8.5q-4 -28 -20 -47t-39 -36l21 -37q28 15 51 41t36.5 59t13.5 65q0 28 -16 45.5t-38 17.5z" />
    <glyph glyph-name="parenleft" unicode="(" horiz-adv-x="265" 
d="M235 -14q-22 23 -41.5 64t-34.5 90t-23.5 96.5t-8.5 84.5q0 36 8.5 82.5t23.5 94.5t34.5 89t41.5 67l-64 23q-41 -54 -68 -116t-40 -123.5t-13 -117.5q0 -57 13.5 -119.5t40 -123.5t67.5 -115z" />
    <glyph glyph-name="parenright" unicode=")" horiz-adv-x="265" 
d="M30 653q21 -24 40.5 -65t34.5 -89.5t23.5 -95.5t8.5 -83t-8.5 -83t-23.5 -95.5t-34.5 -90t-40.5 -66.5l64 -23q40 56 67 117t40.5 123t13.5 118q0 57 -13.5 119t-40.5 123.5t-67 114.5z" />
    <glyph glyph-name="asterisk" unicode="*" horiz-adv-x="351" 
d="M206 772h-62l-1 -111l-116 25l-17 -52l117 -23l-82 -118l47 -34l84 113l83 -113l46 34l-82 118l118 23l-17 52l-117 -25z" />
    <glyph glyph-name="plus" unicode="+" horiz-adv-x="536" 
d="M496 305h-191v226l-73 3v-229h-202l8 -63h194v-234l73 -4v238h201z" />
    <glyph glyph-name="comma" unicode="," horiz-adv-x="172" 
d="M88 107q-14 0 -27 -7.5t-20 -19t-7 -26.5q0 -13 6.5 -25t17 -19.5t22.5 -8.5q-3 -28 -19.5 -47t-40.5 -37l21 -37q29 16 52 42t36 58.5t13 63.5q0 29 -16 46t-38 17z" />
    <glyph glyph-name="hyphen" unicode="-" horiz-adv-x="320" 
d="M281 305h-251l9 -63h251z" />
    <glyph glyph-name="period" unicode="." horiz-adv-x="167" 
d="M85 0q22 0 37 15.5t15 38.5q0 22 -15 37.5t-37 15.5q-24 0 -39.5 -15.5t-15.5 -37.5q0 -23 15.5 -38.5t39.5 -15.5z" />
    <glyph glyph-name="slash" unicode="/" horiz-adv-x="402" 
d="M315 710l-305 -710l76 -4l306 710z" />
    <glyph glyph-name="zero" unicode="0" horiz-adv-x="592" 
d="M33 287q0 -87 34 -155t93.5 -106.5t136.5 -38.5q76 0 136 39t93.5 107t33.5 156q0 84 -33.5 149.5t-93 103t-136.5 37.5t-136.5 -38t-93.5 -103.5t-34 -150.5zM111 290q0 65 24 114.5t66 78.5t96 29t95.5 -29.5t65.5 -80.5t24 -117q0 -67 -24 -119t-65.5 -81.5
t-95.5 -29.5t-96 30.5t-66 83.5t-24 121z" />
    <glyph glyph-name="one" unicode="1" horiz-adv-x="312" 
d="M239 0v566h-53l-176 -83l35 -63l115 54v-474h79z" />
    <glyph glyph-name="two" unicode="2" horiz-adv-x="479" 
d="M219 579q-66 0 -109.5 -17.5t-71.5 -34.5l23 -64q18 10 40.5 22t51.5 20.5t65 8.5q60 0 96.5 -26.5t36.5 -77.5q0 -29 -12.5 -55t-37.5 -53t-65 -61l-211 -184v-57h434l-13 62h-316l149 125q54 46 86.5 84t47.5 74t15 73q0 50 -26 86t-72.5 55.5t-110.5 19.5z" />
    <glyph glyph-name="three" unicode="3" horiz-adv-x="463" 
d="M212 579q-60 0 -109 -18t-90 -44l39 -53q24 17 64.5 33.5t92.5 16.5q39 0 67 -14t43.5 -37t15.5 -51q0 -51 -44.5 -83t-122.5 -32h-43l13 -59h24q98 0 141.5 -35.5t43.5 -94.5q0 -37 -21.5 -64t-55 -41t-70.5 -14q-52 0 -87.5 11.5t-71.5 33.5l-41 -55q37 -20 89 -37.5
t108 -17.5q70 0 121 24.5t79.5 66.5t28.5 95q0 41 -16 74.5t-42.5 55.5t-59.5 29q29 10 52.5 31t38.5 50t15 64q0 43 -22.5 80.5t-67.5 61t-112 23.5z" />
    <glyph glyph-name="four" unicode="4" horiz-adv-x="524" 
d="M504 135h-104v436h-56l-334 -436l11 -65h299v-139h80v139h95zM320 432v-297h-225z" />
    <glyph glyph-name="five" unicode="5" horiz-adv-x="496" 
d="M144 224q13 13 42.5 30.5t68.5 17.5q57 0 93 -36t36 -102q0 -67 -42 -105.5t-110 -38.5q-52 0 -87.5 11.5t-71.5 32.5l-40 -55q25 -13 56.5 -26t67 -21t71.5 -8q76 0 128 28.5t79.5 76.5t27.5 105q0 55 -22.5 101t-69 74t-120.5 28q-26 0 -53 -8.5t-51 -23.5l9 195h260
l9 66h-341l-16 -342h76z" />
    <glyph glyph-name="six" unicode="6" horiz-adv-x="511" 
d="M69 285l21 -57q20 24 46.5 46t59 35.5t67.5 13.5q44 0 75 -17t48 -48.5t17 -72.5q0 -36 -17 -65.5t-48 -48t-75 -18.5q-46 0 -80.5 24t-53.5 71t-19 117q0 58 18.5 104t49.5 82.5t70.5 61t81 40t80.5 19.5l-18 62q-48 -6 -98.5 -25t-97 -51t-84 -76t-58.5 -100.5
t-21 -125.5q0 -87 30.5 -147t83.5 -91t119 -31q61 0 109.5 26.5t75.5 72.5t27 104q0 55 -25 99.5t-73 71t-116 26.5q-46 0 -81.5 -16t-63.5 -39t-50 -47z" />
    <glyph glyph-name="seven" unicode="7" horiz-adv-x="440" 
d="M199 -69l221 600l-26 35h-384l10 -66h312l-208 -545z" />
    <glyph glyph-name="eight" unicode="8" horiz-adv-x="516" 
d="M258 643q-64 0 -108 -23.5t-67 -61t-23 -81.5q0 -48 29.5 -84t73.5 -54q-35 -8 -64.5 -34t-47.5 -61t-18 -71q0 -51 25.5 -93t76.5 -67.5t123 -25.5q74 0 124 26t76 68t26 92q0 40 -18.5 75t-48 59t-63.5 32q26 12 49.5 32t38.5 47t15 59q0 44 -23 82t-67 61t-109 23z
M256 579q62 0 93 -30.5t31 -72.5q0 -25 -14 -48.5t-41.5 -39.5t-66.5 -22q-59 9 -90.5 40t-31.5 70q0 27 13.5 50.5t40.5 38t66 14.5zM258 309q74 -10 111 -48.5t37 -89.5q0 -36 -20 -63t-54 -41.5t-74 -14.5q-41 0 -75 15t-54 41.5t-20 62.5q0 51 37.5 89.5t111.5 48.5z
" />
    <glyph glyph-name="nine" unicode="9" horiz-adv-x="511" 
d="M441 281l-21 57q-18 -24 -45 -46t-59.5 -35.5t-67.5 -13.5q-43 0 -75 17.5t-49 48.5t-17 72q0 36 17 66t49 48t74 18q47 0 82 -24t53.5 -71t18.5 -118q0 -57 -18.5 -103t-49.5 -82.5t-70.5 -61.5t-81.5 -39.5t-81 -19.5l18 -62q48 6 99 25t97.5 50.5t84 76t58.5 101
t21 125.5q0 88 -30.5 147.5t-83.5 90.5t-120 31q-60 0 -108 -26.5t-75.5 -72t-27.5 -104.5q0 -54 25.5 -99t73.5 -71.5t114 -26.5q48 0 83.5 16t62.5 39.5t49 46.5z" />
    <glyph glyph-name="colon" unicode=":" horiz-adv-x="167" 
d="M84 348q22 0 37.5 16t15.5 38t-15.5 38.5t-38.5 16.5q-21 0 -37 -17t-16 -38q0 -22 15.5 -38t38.5 -16zM84 27q22 0 37.5 15.5t15.5 38.5t-15.5 39t-38.5 16q-21 0 -37 -16t-16 -39q0 -22 15.5 -38t38.5 -16z" />
    <glyph glyph-name="semicolon" unicode=";" horiz-adv-x="174" 
d="M90 348q22 0 38 16t16 38t-16 38.5t-38 16.5q-24 0 -40 -16.5t-16 -38.5t16 -38t40 -16zM88 136q-14 0 -27 -8t-20 -20t-7 -27q0 -13 6.5 -25t17 -19.5t22.5 -8.5q-3 -28 -19.5 -47t-40.5 -37l21 -37q29 15 52 41t36 59t13 64q0 29 -16 47t-38 18z" />
    <glyph glyph-name="less" unicode="&#x3c;" horiz-adv-x="329" 
d="M309 80l-204 165l204 165l-23 60l-256 -200v-51l256 -200z" />
    <glyph glyph-name="equal" unicode="=" horiz-adv-x="502" 
d="M464 380h-434l9 -61h433zM464 192h-434l9 -62h433z" />
    <glyph glyph-name="greater" unicode="&#x3e;" horiz-adv-x="329" 
d="M299 270l-256 200l-23 -60l204 -165l-204 -166l23 -60l256 200v51z" />
    <glyph glyph-name="question" unicode="?" horiz-adv-x="411" 
d="M191 701q-58 0 -98.5 -16.5t-82.5 -42.5l10 -70q42 30 81 46t87 16q56 0 85.5 -24t29.5 -78q0 -53 -49 -96t-125 -68l8 -196l58 -23l9 179q54 25 93.5 58.5t61.5 71.5t22 76q0 49 -20 86.5t-62 59t-108 21.5zM163 107q-23 0 -38.5 -15.5t-15.5 -37.5t15.5 -38t38.5 -16
q22 0 38.5 16t16.5 38t-16.5 37.5t-38.5 15.5z" />
    <glyph glyph-name="at" unicode="@" horiz-adv-x="764" 
d="M542 385l-24 30h-73q-44 0 -84.5 -14t-72 -40.5t-50 -63.5t-18.5 -83q0 -66 40.5 -108t125.5 -42q26 0 51 10t43 22q15 -17 36 -25t45 -8q38 0 69.5 15.5t54 45.5t35 75.5t12.5 105.5q0 63 -23 116t-64 92.5t-97.5 61t-125.5 21.5q-90 0 -162.5 -30t-123 -82.5t-77 -121
t-26.5 -146.5q0 -72 27 -131t72.5 -101.5t103.5 -65t119 -22.5q49 0 99.5 9t95.5 32l-20 59q-23 -11 -50.5 -19t-57 -12t-56.5 -4q-71 0 -129.5 31t-93.5 88.5t-35 136.5q0 73 25 131.5t69.5 100t100 63.5t117.5 22q74 0 129 -30.5t85 -83.5t30 -122q0 -53 -12.5 -92.5
t-34 -60t-49.5 -20.5q-17 0 -35 12t-14 45zM385 125q-33 0 -53 13.5t-29 34t-9 41.5q0 47 21 79t55.5 49t74.5 17h31l-22 -171q-2 -8 -1.5 -16.5t2.5 -14.5q-10 -15 -28.5 -23.5t-41.5 -8.5z" />
    <glyph glyph-name="A" unicode="A" horiz-adv-x="609" 
d="M422 257h-242l119 318zM262 680l-252 -680h77l71 193h287l76 -200l78 13l-262 674h-75z" />
    <glyph glyph-name="B" unicode="B" horiz-adv-x="590" 
d="M306 0q53 0 98.5 10.5t80 33t54 59t19.5 88.5q0 69 -36.5 111t-94.5 62q38 21 66 54.5t28 80.5q0 69 -30.5 108t-84.5 56t-124 17h-189v-680h213zM279 613q49 0 85.5 -9t56.5 -34t20 -72q0 -42 -24.5 -67t-64.5 -35.5t-88 -11.5h-92v229h107zM315 319q74 0 118.5 -30.5
t44.5 -99.5q0 -46 -23 -73t-62 -38.5t-88 -11.5h-133v253h143z" />
    <glyph glyph-name="C" unicode="C" horiz-adv-x="556" 
d="M533 655q-23 14 -54.5 22.5t-63 12.5t-52.5 4q-74 0 -133.5 -27t-101 -76t-63.5 -114t-22 -141q0 -71 19.5 -134t59 -111.5t98.5 -76.5t137 -28q29 0 62 5t63.5 14t51.5 20l-30 59q-28 -12 -63 -21t-87 -9q-54 0 -96.5 22t-72 61.5t-44.5 90.5t-15 109q0 85 31.5 150
t85 102t120.5 37q34 0 58 -3.5t44.5 -10t42.5 -15.5z" />
    <glyph glyph-name="D" unicode="D" horiz-adv-x="671" 
d="M324 0q100 0 167.5 45.5t102.5 123.5t35 175q0 95 -31 171t-96 120.5t-171 44.5h-238v-680h231zM334 612q74 0 121.5 -35t71 -95.5t23.5 -138.5q0 -86 -28.5 -148t-78.5 -95.5t-118 -33.5h-154v546h163z" />
    <glyph glyph-name="E" unicode="E" horiz-adv-x="522" 
d="M502 0l-9 62h-322v255h245l-9 60h-236v243h302l-9 60h-371v-680h409z" />
    <glyph glyph-name="F" unicode="F" horiz-adv-x="481" 
d="M396 373h-225v247h290l-11 60h-357v-680h78v313h234z" />
    <glyph glyph-name="G" unicode="G" horiz-adv-x="627" 
d="M349 290h150v-216q-23 -8 -52 -14t-64 -6q-73 0 -131.5 34.5t-92 98.5t-33.5 150q0 69 22 123t60.5 90.5t86.5 56t100 19.5q34 0 58 -3.5t44 -10t42 -15.5l25 58q-21 14 -53.5 22.5t-64.5 12.5t-53 4q-74 0 -138 -25.5t-111.5 -73.5t-74 -113.5t-26.5 -145.5
q0 -99 41.5 -178t119 -125.5t180.5 -46.5q34 0 69.5 6t67.5 17t53 24v317h-218z" />
    <glyph glyph-name="H" unicode="H" horiz-adv-x="663" 
d="M570 0v680h-79v-306h-320v311l-78 -5v-680h78v311h320v-311h79z" />
    <glyph glyph-name="I" unicode="I" horiz-adv-x="264" 
d="M171 0v680h-78v-680h78z" />
    <glyph glyph-name="J" unicode="J" horiz-adv-x="255" 
d="M93 66q1 -37 -6 -56.5t-25 -31t-52 -24.5l31 -56q51 16 79.5 35t40.5 46.5t12 69.5v631h-80v-614z" />
    <glyph glyph-name="K" unicode="K" horiz-adv-x="609" 
d="M503 0l-254 327l-78 -81v-246h-78v680h78v-330l328 345l55 -47l-253 -266l298 -382h-96z" />
    <glyph glyph-name="L" unicode="L" horiz-adv-x="506" 
d="M488 62h-317v618h-78v-680h403z" />
    <glyph glyph-name="M" unicode="M" horiz-adv-x="762" 
d="M400 229l190 283v-512h80v680h-50l-237 -347l-244 347h-46v-680h78v514l201 -290z" />
    <glyph glyph-name="N" unicode="N" horiz-adv-x="700" 
d="M171 0v533l26 -44l347 -489h63v680h-80v-527l-41 67l-331 460h-62v-680h78z" />
    <glyph glyph-name="O" unicode="O" horiz-adv-x="725" 
d="M360 -14q-92 0 -164 45t-112.5 124.5t-40.5 181.5t41.5 182.5t114 127.5t165.5 49q92 0 164 -45.5t113 -124.5t41 -181t-41.5 -183t-114 -127.5t-166.5 -48.5zM358 55q70 0 124 37t85 102.5t31 149.5q0 82 -30 146t-82.5 100t-119.5 36q-70 0 -124 -37t-85 -102t-31 -149
q0 -82 30 -146t82 -100.5t120 -36.5z" />
    <glyph glyph-name="P" unicode="P" horiz-adv-x="562" 
d="M171 0v257h96q54 0 101 12.5t83 38.5t57 67t21 96q0 75 -33 121t-90 67t-128 21h-185v-680h78zM278 613q52 0 89.5 -13.5t59 -44.5t21.5 -86q-1 -52 -24.5 -84t-63.5 -46.5t-90 -14.5h-99v289h107z" />
    <glyph glyph-name="Q" unicode="Q" horiz-adv-x="725" 
d="M435 228l-55 -41l220 -206l47 40zM364 696q-93 -2 -165.5 -49t-114 -127.5t-41.5 -182.5t40.5 -181.5t112.5 -124.5t164 -45q94 2 166.5 48.5t114 127.5t41.5 183q0 101 -41 180.5t-113 125t-164 45.5zM126 338q0 84 31 149t85 102t124 37q67 0 119.5 -36t82.5 -100
t30 -146q0 -84 -31 -149.5t-85 -102.5t-124 -37q-67 0 -119.5 36.5t-82.5 100.5t-30 146z" />
    <glyph glyph-name="R" unicode="R" horiz-adv-x="592" 
d="M278 613q50 0 88 -11.5t60 -40.5t22 -82q0 -51 -25 -80.5t-65 -42.5t-88 -13h-99v270h107zM93 680v-680h78v279h96q17 0 37.5 1t34.5 3l156 -283h87l-173 304q52 22 85.5 65.5t34.5 112.5q0 72 -33 115.5t-90 63t-128 19.5h-185z" />
    <glyph glyph-name="S" unicode="S" horiz-adv-x="513" 
d="M54 33q14 -9 36 -17.5t49 -14.5t53.5 -10t47.5 -4q77 0 130.5 23t82 63t28.5 92q0 37 -12 65.5t-35 51.5t-56 43t-77 39q-59 29 -100 51.5t-61.5 48.5t-20.5 62q0 48 40.5 75t104.5 27q34 0 59.5 -5.5t46 -13.5t37.5 -16l27 61q-32 16 -78 29t-96 13q-67 0 -115.5 -23
t-75 -61t-26.5 -87q0 -35 11.5 -64t34 -53.5t56 -45t77.5 -40.5q59 -24 99 -46.5t60.5 -48.5t20.5 -63q0 -31 -18.5 -56.5t-54.5 -39.5t-90 -14q-31 0 -63 6.5t-58.5 16.5t-45.5 18z" />
    <glyph glyph-name="T" unicode="T" horiz-adv-x="562" 
d="M543 680h-533v-63h228v-617h80v617h234z" />
    <glyph glyph-name="U" unicode="U" horiz-adv-x="681" 
d="M161 680h-78v-439q0 -72 31.5 -129.5t89.5 -90t137 -32.5q80 0 137.5 33t89 90t31.5 129v439h-80v-430q0 -57 -21.5 -101.5t-61.5 -69.5t-95 -25q-54 0 -94.5 25t-63 69t-22.5 102v430z" />
    <glyph glyph-name="V" unicode="V" horiz-adv-x="609" 
d="M88 687l-78 -13l261 -674h76l252 680h-77l-213 -576z" />
    <glyph glyph-name="W" unicode="W" horiz-adv-x="857" 
d="M847 680l-186 -680h-77l-155 562l-147 -562h-76l-196 674l78 13l156 -579l148 572h77l154 -572l148 572h76z" />
    <glyph glyph-name="X" unicode="X" horiz-adv-x="588" 
d="M94 0l202 286l183 -286h86l-216 333l229 347h-84l-185 -291l-208 308l-65 -33l218 -320l-244 -344h84z" />
    <glyph glyph-name="Y" unicode="Y" horiz-adv-x="563" 
d="M314 0l1 277l238 403h-85l-193 -329l-191 345l-74 -32l225 -391v-273h79z" />
    <glyph glyph-name="Z" unicode="Z" horiz-adv-x="562" 
d="M522 62h-413l430 555l-8 63h-481l11 -63h390l-428 -554l8 -63h499z" />
    <glyph glyph-name="bracketleft" unicode="[" horiz-adv-x="295" 
d="M100 -88h185l-11 58h-99v666h99l11 60h-185v-784z" />
    <glyph glyph-name="backslash" unicode="\" horiz-adv-x="402" 
d="M392 0l-305 710l-77 -4l305 -710z" />
    <glyph glyph-name="bracketright" unicode="]" horiz-adv-x="295" 
d="M195 696h-185l10 -60h99v-666h-98l-11 -58h185v784z" />
    <glyph glyph-name="asciicircum" unicode="^" horiz-adv-x="421" 
d="M211 323l122 -180h78l-168 247h-64l-169 -247h78z" />
    <glyph glyph-name="underscore" unicode="_" horiz-adv-x="440" 
d="M401 62h-371l9 -62h371z" />
    <glyph glyph-name="grave" unicode="`" horiz-adv-x="160" 
d="M98 589l52 15l-53 141h-87z" />
    <glyph glyph-name="a" unicode="a" horiz-adv-x="488" 
d="M123 138q0 38 25.5 66.5t74.5 28.5h127v-111q-25 -29 -60 -50t-77 -21q-31 0 -51 13t-29.5 33.5t-9.5 40.5zM104 396q27 11 59.5 22t79.5 11q58 0 82.5 -33t24.5 -83v-27h-125q-78 0 -127 -38.5t-49 -109.5q0 -64 41 -107t126 -43q40 0 80.5 19t63.5 42l10 -49h60v334
q0 48 -24 85t-66.5 58t-98.5 21q-20 0 -51 -5.5t-60.5 -15t-48.5 -22.5z" />
    <glyph glyph-name="b" unicode="b" horiz-adv-x="528" 
d="M120 0l31 65v641l-78 -11v-695h47zM127 359q29 34 60.5 53t78.5 19q50 0 83.5 -24.5t49.5 -67.5t16 -99q0 -52 -17 -94t-50.5 -67t-83.5 -25q-47 0 -79 18.5t-60 49.5l-24 -54q21 -25 48.5 -43t57 -28t55.5 -10q73 0 125 32.5t80.5 90t28.5 131.5q0 77 -27 134.5t-79 90
t-125 32.5q-25 0 -55 -9t-58 -27.5t-49 -45.5z" />
    <glyph glyph-name="c" unicode="c" horiz-adv-x="458" 
d="M401 87q-28 -14 -57.5 -23.5t-77.5 -9.5q-50 0 -84.5 25t-51.5 68.5t-17 97.5q1 52 19.5 94t53.5 67t84 25q47 0 77 -10.5t58 -22.5l24 55q-20 14 -49.5 24t-58.5 15.5t-49 5.5q-73 0 -127 -32.5t-82.5 -89.5t-29.5 -132q0 -76 28 -134t80.5 -90.5t125.5 -32.5
q21 0 50 5.5t58.5 15.5t50.5 23z" />
    <glyph glyph-name="d" unicode="d" horiz-adv-x="530" 
d="M378 78l32 -78h48v705l-80 -10v-617zM401 126q-28 -34 -60 -53t-78 -19q-50 0 -83.5 24.5t-50 68t-16.5 98.5q0 53 17 94.5t51 66.5t83 25q48 0 79.5 -18.5t59.5 -49.5l24 54q-20 25 -47.5 43t-57.5 28t-56 10q-72 0 -124.5 -32.5t-80.5 -89.5t-28 -132q0 -76 27 -134
t79 -90.5t125 -32.5q25 0 55 9t58 28t49 45z" />
    <glyph glyph-name="e" unicode="e" horiz-adv-x="499" 
d="M466 230v7q0 73 -21.5 132t-67 94t-118.5 35q-72 0 -122.5 -32.5t-77 -89.5t-26.5 -132q0 -76 28 -134t84.5 -90t141.5 -32q36 0 66.5 6.5t57 18t49.5 24.5l-26 58q-38 -19 -72 -30.5t-76 -11.5q-60 0 -97 23t-54.5 63t-20.5 91h352zM116 284q5 44 21.5 77t46 51.5
t72.5 18.5q42 0 69.5 -18.5t42.5 -51.5t20 -77h-272z" />
    <glyph glyph-name="f" unicode="f" horiz-adv-x="299" 
d="M17 417h72v-417h80v417h115l-26 60h-89v71q0 36 15.5 59.5t52.5 23.5q10 0 23 -3.5t21 -6.5l18 63q-7 5 -19 9t-26 6.5t-28 2.5q-42 0 -73 -18.5t-47.5 -52t-16.5 -79.5v-75h-73z" />
    <glyph glyph-name="g" unicode="g" horiz-adv-x="526" 
d="M458 485h-48l-32 -64v-473q0 -57 -40.5 -85t-101.5 -28q-48 0 -80 11.5t-62 25.5l-24 -57q16 -11 38.5 -19t47 -14t46.5 -9t37 -3q69 0 118 23.5t75 63.5t26 91v537zM401 126q-28 -34 -60 -53t-78 -19q-50 0 -83.5 24.5t-50 68t-16.5 98.5q0 53 17 94.5t51 66.5t83 25
q48 0 79.5 -18.5t59.5 -49.5l24 54q-20 25 -47.5 43t-57.5 28t-56 10q-72 0 -124.5 -32.5t-80.5 -89.5t-28 -132q0 -76 27 -134t79 -90.5t125 -32.5q25 0 55 9t58 28t49 45z" />
    <glyph glyph-name="h" unicode="h" horiz-adv-x="539" 
d="M151 344q24 25 52 44.5t57.5 31.5t53.5 12q50 0 68.5 -32t18.5 -82v-318h79v328q0 50 -16 88.5t-49.5 61t-86.5 22.5q-32 0 -66 -11t-64 -30t-53 -43zM151 0v706l-78 -11v-695h78z" />
    <glyph glyph-name="i" unicode="i" horiz-adv-x="205" 
d="M143 0v485h-80v-485h80zM102 581q22 0 38 15.5t16 38.5t-16.5 38.5t-38.5 15.5q-23 0 -38 -15.5t-15 -38.5t15 -38.5t39 -15.5z" />
    <glyph glyph-name="j" unicode="j" horiz-adv-x="228" 
d="M114 581q-14 0 -26.5 7t-19.5 19.5t-7 27.5q0 22 15 38t38 16q22 0 38.5 -16t16.5 -38t-16 -38t-39 -16zM155 485v-515q0 -50 -8 -84t-34 -57t-82 -41l-31 57q35 13 50.5 27.5t20.5 37.5t4 60v515h80z" />
    <glyph glyph-name="k" unicode="k" horiz-adv-x="472" 
d="M151 0v182l68 67l160 -249h93l-200 301l148 146l-48 51l-221 -221v429l-78 -11v-695h78z" />
    <glyph glyph-name="l" unicode="l" horiz-adv-x="224" 
d="M151 0v706l-78 -11v-695h78z" />
    <glyph glyph-name="m" unicode="m" horiz-adv-x="818" 
d="M141 0v344q24 25 51.5 44.5t54.5 31.5t49 12q32 0 49 -14.5t24 -40t7 -59.5v-318h79v329q0 49 -15 87.5t-47 61t-84 22.5q-28 0 -60 -11t-61.5 -30t-52.5 -43l-14 69h-58v-485h78zM446 344q24 25 51 44.5t54 31.5t50 12q31 0 48 -14.5t24.5 -40t7.5 -59.5v-318h79v329
q0 49 -15 87.5t-47.5 61t-83.5 22.5q-28 0 -60.5 -11t-62 -30t-52.5 -43z" />
    <glyph glyph-name="n" unicode="n" 
d="M141 0v344q24 25 52 44.5t57.5 31.5t53.5 12q50 0 68.5 -32t18.5 -82v-318h79v328q0 50 -16 88.5t-49.5 61t-86.5 22.5q-32 0 -66 -11t-64 -30t-53 -43l-14 69h-58v-485h78z" />
    <glyph glyph-name="o" unicode="o" horiz-adv-x="536" 
d="M264 -13q-72 -1 -124 32.5t-79.5 91t-27.5 133.5q1 74 29.5 131t82 90t126.5 33t125 -32t80 -89t28 -136q0 -74 -29.5 -131t-83 -90t-127.5 -33zM266 54q50 0 85 25t53.5 67t18.5 94q0 55 -17.5 98t-51 68t-84.5 25q-49 0 -84 -25t-53.5 -67t-19.5 -94q0 -54 17 -97.5
t51.5 -68.5t84.5 -25z" />
    <glyph glyph-name="p" unicode="p" horiz-adv-x="524" 
d="M147 -208v630l-31 63h-47v-704zM123 359q29 34 60.5 53t78.5 19q50 0 83.5 -24.5t49.5 -67.5t16 -99q0 -52 -17 -94t-50.5 -67t-83.5 -25q-47 0 -79 18.5t-60 49.5l-24 -54q21 -25 48.5 -43t57 -28t55.5 -10q73 0 125 32.5t80.5 90t28.5 131.5q0 77 -27 134.5t-79 90
t-125 32.5q-25 0 -55 -9t-58 -27.5t-49 -45.5z" />
    <glyph glyph-name="q" unicode="q" horiz-adv-x="526" 
d="M410 485l-32 -61v-643l80 10v694h-48zM401 126q-28 -34 -60 -53t-78 -19q-50 0 -83.5 24.5t-50 68t-16.5 98.5q0 53 17 94.5t51 66.5t83 25q48 0 79.5 -18.5t59.5 -49.5l24 54q-20 25 -47.5 43t-57.5 28t-56 10q-72 0 -124.5 -32.5t-80.5 -89.5t-28 -132q0 -76 27 -134
t79 -90.5t125 -32.5q25 0 55 9t58 28t49 45z" />
    <glyph glyph-name="r" unicode="r" horiz-adv-x="324" 
d="M141 0v334q22 22 51 42t61.5 33t60.5 13l-19 63q-26 0 -56.5 -13t-58 -31.5t-46.5 -33.5l-24 78h-47v-485h78z" />
    <glyph glyph-name="s" unicode="s" horiz-adv-x="420" 
d="M38 28q20 -13 48 -22t57.5 -14t49.5 -5q95 0 144.5 37.5t49.5 103.5q0 40 -24 69t-61 50t-77 34q-48 16 -80 35.5t-33 46.5q0 31 28.5 51t73.5 20q42 0 73 -11t55 -23l25 55q-18 13 -46 22.5t-56.5 15t-49.5 5.5q-83 0 -132 -36.5t-49 -101.5q0 -38 24 -65.5t60.5 -46
t74.5 -31.5q33 -11 60 -24.5t43.5 -30.5t16.5 -39t-15 -38.5t-41.5 -25t-62.5 -8.5q-23 0 -46 4.5t-44.5 12t-41.5 16.5z" />
    <glyph glyph-name="t" unicode="t" horiz-adv-x="320" 
d="M254 477h-88v145l-80 -22v-123h-70l1 -60h69v-291q0 -46 17 -77t48 -47.5t72 -16.5q14 0 28 2.5t26 6.5t20 8l-19 62q-7 -3 -19.5 -6.5t-24.5 -3.5q-36 0 -52 23t-16 60v280h113z" />
    <glyph glyph-name="u" unicode="u" 
d="M387 485v-343q-22 -24 -51 -44.5t-57.5 -32t-54.5 -11.5q-49 0 -68 32t-19 82v317h-78v-328q0 -49 15.5 -88t49.5 -61t87 -22q32 0 65.5 11t64 30.5t52.5 42.5l14 -70h59v485h-79z" />
    <glyph glyph-name="v" unicode="v" horiz-adv-x="455" 
d="M265 0l180 485h-79l-139 -378l-145 394l-72 -31l178 -470h77z" />
    <glyph glyph-name="w" unicode="w" horiz-adv-x="672" 
d="M518 0l144 485h-80l-102 -372l-108 372h-80l-102 -372l-108 387l-72 -31l140 -469h78l103 369l110 -369h77z" />
    <glyph glyph-name="x" unicode="x" horiz-adv-x="450" 
d="M99 0l118 187l121 -187h87l-152 232l167 253h-87l-124 -193l-132 206l-70 -29l146 -223l-163 -246h89z" />
    <glyph glyph-name="y" unicode="y" horiz-adv-x="455" 
d="M159 -79q-8 -22 -23 -37t-35 -25.5t-44 -21.5l24 -57q35 8 65 24.5t52.5 41t33.5 54.5l213 585h-79l-139 -375l-147 390l-70 -30l180 -467z" />
    <glyph glyph-name="z" unicode="z" horiz-adv-x="433" 
d="M407 485h-362l19 -63h246l-289 -381l10 -41h378l-10 62h-281l293 380z" />
    <glyph glyph-name="braceleft" unicode="{" horiz-adv-x="272" 
d="M147 310q31 13 44 38.5t13 67.5q0 14 -4.5 31.5t-13.5 38.5q-10 21 -14.5 38t-4.5 29q0 17 15 32t48 15h25l7 59h-26q-67 0 -101.5 -27.5t-34.5 -78.5q0 -16 4 -33t12 -37t12 -38.5t4 -35.5q0 -32 -19.5 -53.5t-46.5 -21.5h-36v-52h36q25 0 47 -20t22 -51
q0 -15 -4.5 -32.5t-13.5 -38.5q-9 -20 -13.5 -38t-4.5 -33q0 -53 33 -82t104 -29h26l-7 59h-25q-32 0 -47.5 14.5t-15.5 32.5q0 12 4.5 29t14.5 39q9 21 13.5 38.5t4.5 30.5q0 39 -14.5 67t-42.5 42z" />
    <glyph glyph-name="bar" unicode="|" horiz-adv-x="264" 
d="M93 711v-711l78 -6v711z" />
    <glyph glyph-name="braceright" unicode="}" horiz-adv-x="271" 
d="M124 306q-29 -13 -43 -38.5t-14 -66.5q0 -15 4.5 -32.5t13.5 -38.5q10 -21 14.5 -37.5t4.5 -29.5q0 -17 -14.5 -31.5t-48.5 -14.5h-24l-8 -59h27q66 0 100.5 27.5t34.5 77.5q0 16 -4 34t-12 37q-8 20 -12 38.5t-4 34.5q0 33 19.5 55t46.5 22h36v51h-36q-25 0 -47 20
t-22 51q0 15 4.5 32.5t13.5 37.5q9 21 13.5 39t4.5 33q0 53 -33 81.5t-103 28.5h-27l8 -58h24q33 0 48 -15t15 -32q0 -12 -4.5 -29.5t-14.5 -38.5q-9 -21 -13.5 -38.5t-4.5 -31.5q0 -38 14.5 -66t42.5 -43z" />
    <glyph glyph-name="asciitilde" unicode="~" horiz-adv-x="406" 
d="M30 196h63q2 23 14.5 32t28.5 9q13 0 28.5 -5.5t34.5 -16.5q18 -11 37 -16.5t39 -5.5q28 0 51 10.5t36.5 35t13.5 65.5h-64q-1 -24 -14.5 -33t-27.5 -9t-28.5 5.5t-31.5 16.5q-15 11 -35 16.5t-43 5.5q-28 0 -51.5 -10.5t-37 -34.5t-13.5 -65z" />
    <glyph glyph-name="uni00A0" unicode="&#xa0;" horiz-adv-x="233" 
 />
    <glyph glyph-name="exclamdown" unicode="&#xa1;" horiz-adv-x="168" 
d="M85 592q22 0 37.5 16.5t15.5 39.5q0 21 -15.5 37.5t-37.5 16.5t-38.5 -16t-16.5 -38q0 -23 16.5 -39.5t38.5 -16.5zM114 478l-58 27l-16 -505h89z" />
    <glyph glyph-name="cent" unicode="&#xa2;" horiz-adv-x="458" 
d="M312 471v136l-69 -10v-124zM313 13l-70 -3v-122h70v125zM401 87q-28 -14 -57.5 -23.5t-77.5 -9.5q-50 0 -84.5 25t-51.5 68.5t-17 97.5q1 52 19.5 94t53.5 67t84 25q47 0 77 -10.5t58 -22.5l24 55q-20 14 -49.5 24t-58.5 15.5t-49 5.5q-73 0 -127 -32.5t-82.5 -89.5
t-29.5 -132q0 -76 28 -134t80.5 -90.5t125.5 -32.5q21 0 50 5.5t58.5 15.5t50.5 23z" />
    <glyph glyph-name="sterling" unicode="&#xa3;" horiz-adv-x="449" 
d="M63 0h376l-9 62h-255q17 21 24 52.5t7 68.5v137h158l-27 59h-131v151q0 37 15.5 60.5t52.5 23.5q10 0 23 -3.5t20 -7.5l19 63q-7 4 -19.5 8.5t-26.5 7t-28 2.5q-43 0 -74 -19.5t-46.5 -55t-15.5 -83.5v-147h-73l1 -59h72v-174q0 -37 -16 -60t-54 -24z" />
    <glyph glyph-name="currency" unicode="&#xa4;" horiz-adv-x="673" 
d="M75 -65l105 106q30 -25 68.5 -39t82.5 -15q46 0 87.5 14t72.5 41l106 -107l46 54l-102 106q20 29 31.5 66t12.5 79q0 43 -11.5 81.5t-31.5 68.5l101 104l-46 56l-104 -106q-31 24 -69 38.5t-84 15.5q-46 -1 -85.5 -16t-71.5 -41l-108 109l-45 -56l104 -106
q-20 -29 -32 -66t-12 -78q0 -43 11 -81.5t30 -69.5l-101 -104zM504 240q0 -52 -22.5 -93.5t-61 -65.5t-87.5 -24q-49 1 -85.5 25t-56.5 67t-20 96q1 51 22.5 92t60.5 65.5t87 24.5q49 0 86 -25t57 -67.5t20 -94.5z" />
    <glyph glyph-name="yen" unicode="&#xa5;" horiz-adv-x="563" 
d="M60 310l9 -62h434l-9 62h-434zM60 135l9 -60h434l-9 60h-434zM314 0l1 277l238 403h-85l-193 -329l-191 345l-74 -32l225 -391v-273h79z" />
    <glyph glyph-name="brokenbar" unicode="&#xa6;" horiz-adv-x="264" 
d="M93 711v-299l78 -6v299zM93 293v-293l78 -6v294z" />
    <glyph glyph-name="section" unicode="&#xa7;" horiz-adv-x="573" 
d="M438 99q33 15 56 37.5t34.5 51.5t11.5 61q0 38 -12 66.5t-34.5 51t-56 42.5t-76.5 40q-60 28 -100.5 50.5t-61 48.5t-20.5 62q0 49 40.5 75.5t104.5 26.5q34 0 59.5 -5.5t46 -13.5t37.5 -16l27 61q-32 16 -78 29t-96 13q-67 0 -116 -22.5t-75.5 -61t-26.5 -86.5
q0 -36 11.5 -64.5t34 -53t56 -45t78.5 -40.5q58 -25 98 -47.5t61 -48.5t21 -63q0 -26 -13 -48t-40 -38zM54 -73q14 -8 36 -16.5t49 -15t53.5 -10.5t47.5 -4q77 0 130.5 23.5t82 63t28.5 91.5q0 38 -12 66.5t-35 51t-56 42.5t-77 40q-59 28 -99.5 50.5t-61.5 48.5t-21 62
q0 31 16.5 52.5t44.5 34.5l-41 58q-30 -15 -52 -37.5t-33 -49.5t-11 -58q0 -36 11.5 -64.5t34 -53t56 -45t77.5 -40.5q59 -25 99 -47.5t60.5 -48.5t20.5 -63q0 -31 -18.5 -56.5t-54.5 -39t-90 -13.5q-31 0 -63 6.5t-58.5 16t-45.5 18.5z" />
    <glyph glyph-name="dieresis" unicode="&#xa8;" horiz-adv-x="283" 
d="M59 614q21 0 35 14t14 35q0 19 -14 33.5t-35 14.5q-20 0 -34.5 -14.5t-14.5 -33.5q0 -21 14.5 -35t34.5 -14zM224 614q21 0 35 14t14 35q0 19 -14 33.5t-35 14.5q-20 0 -34.5 -14.5t-14.5 -33.5q0 -21 14.5 -35t34.5 -14z" />
    <glyph glyph-name="copyright" unicode="&#xa9;" horiz-adv-x="799" 
d="M767 336q0 76 -25.5 142t-73.5 116t-116 78t-153 28q-84 0 -152 -28t-115.5 -78t-73 -116t-25.5 -142t25 -141.5t73.5 -115.5t116 -77.5t152.5 -27.5q84 0 151.5 28t116 77.5t74 115t25.5 141.5zM98 337q0 88 36.5 157.5t104.5 110t161 40.5q94 0 161.5 -40.5t104.5 -110
t37 -157.5q0 -87 -37 -157t-104.5 -110.5t-161.5 -40.5q-93 0 -161 40.5t-104.5 110.5t-36.5 157zM414 105q20 0 46.5 5t54 15t46.5 23l-24 56q-26 -13 -51.5 -23t-71.5 -10q-74 0 -105.5 45t-31.5 126q0 47 14.5 84.5t46 58.5t79.5 21q32 0 52.5 -4.5t37.5 -11.5t34 -17
l24 58q-19 15 -46 24t-53.5 13.5t-47.5 4.5q-69 0 -119 -30t-76 -82.5t-26 -119.5q0 -68 24 -121.5t72.5 -84t120.5 -30.5z" />
    <glyph glyph-name="ordfeminine" unicode="&#xaa;" horiz-adv-x="331" 
d="M98 466q0 23 19.5 35t46.5 12h69v-46q-16 -19 -37.5 -32.5t-46.5 -13.5q-24 0 -37.5 14t-13.5 31zM68 621q18 7 40 14t53 7q36 0 53.5 -19.5t17.5 -48.5v-11h-78q-52 0 -86.5 -26t-34.5 -73q0 -44 31.5 -72.5t83.5 -28.5q28 0 52.5 13.5t40.5 28.5l14 -34h43v210
q0 32 -17.5 59.5t-48 44.5t-72.5 17q-14 0 -34 -3.5t-40 -10t-32 -15.5z" />
    <glyph glyph-name="guillemotleft" unicode="&#xab;" horiz-adv-x="373" 
d="M186 222l146 -139l21 53l-106 109l106 109l-21 53l-146 -139v-46zM30 222l145 -139l22 53l-106 109l106 109l-22 53l-145 -139v-46z" />
    <glyph glyph-name="logicalnot" unicode="&#xac;" horiz-adv-x="514" 
d="M476 406h-466l8 -63h395v-226l71 -5v244z" />
    <glyph glyph-name="softhyphen" unicode="&#xad;" horiz-adv-x="120" 
 />
    <glyph glyph-name="registered" unicode="&#xae;" horiz-adv-x="712" 
d="M680 487q0 90 -39.5 163t-111.5 115.5t-172 42.5t-173 -42.5t-112 -115.5t-39 -163q0 -89 39 -161.5t112 -115t173 -42.5t172 42.5t111.5 115t39.5 161.5zM92 488q0 78 32 138t91.5 94.5t141.5 34.5q81 0 140 -34.5t90.5 -94.5t31.5 -138q0 -76 -32 -136t-90.5 -95
t-139.5 -36q-82 1 -142 36t-91.5 95t-31.5 136zM333 631q27 0 48 -3t33 -16.5t12 -43.5q0 -26 -13.5 -39.5t-35 -18t-48.5 -4.5h-30v125h34zM518 304l-95 169q27 12 46 35.5t19 61.5q0 40 -18 64t-49.5 35t-71.5 11h-110v-376h60v154h39h14.5t13.5 1l83 -155h69z" />
    <glyph glyph-name="macron" unicode="&#xaf;" horiz-adv-x="266" 
d="M10 633h246l-7 62h-239v-62z" />
    <glyph glyph-name="degree" unicode="&#xb0;" horiz-adv-x="239" 
d="M119 708q-28 0 -53.5 -14.5t-40.5 -38.5t-15 -53q0 -30 15 -53.5t40.5 -37.5t53.5 -14q31 0 56 14t40 37.5t15 53.5q0 29 -15 53t-40 38.5t-56 14.5zM120 546q-24 0 -39.5 16.5t-15.5 39.5q0 22 15.5 38t38.5 16t39.5 -16t16.5 -39q0 -22 -16.5 -38.5t-38.5 -16.5z" />
    <glyph glyph-name="plusminus" unicode="&#xb1;" horiz-adv-x="486" 
d="M448 359h-170v172l-70 3v-175h-178l9 -58h169v-180l70 -5v185h178zM449 58h-418l8 -58h417z" />
    <glyph glyph-name="twosuperior" unicode="&#xb2;" horiz-adv-x="357" 
d="M173 771q-33 0 -61.5 -7t-51.5 -16.5t-38 -18.5l28 -54q13 9 32 17.5t42 14.5t45 6q30 0 48 -10t26.5 -26t8.5 -33q0 -26 -16 -56t-60 -69l-151 -130v-53h312l-8 55h-216l102 87q55 48 82 85.5t27 80.5q0 29 -15 58t-48 49t-88 20z" />
    <glyph glyph-name="threesuperior" unicode="&#xb3;" horiz-adv-x="358" 
d="M160 771q-46 0 -82 -13.5t-67 -33.5l28 -48q19 12 47.5 25t68.5 13q42 0 64 -19.5t22 -47.5q0 -24 -12.5 -42.5t-37.5 -29t-64 -10.5h-32l9 -55h18q69 0 98.5 -24t29.5 -68q0 -26 -14 -44.5t-37.5 -28t-50.5 -9.5q-39 0 -64.5 8.5t-52.5 24.5l-31 -49q28 -15 67 -28.5
t81 -13.5q54 0 92.5 19t59 51t20.5 71q0 32 -11 57t-31 41.5t-45 21.5q21 7 38.5 22.5t29 38t11.5 48.5q0 50 -38 86.5t-114 36.5z" />
    <glyph glyph-name="acute" unicode="&#xb4;" horiz-adv-x="160" 
d="M63 589l87 156h-86l-54 -141z" />
    <glyph glyph-name="mu" unicode="&#xb5;" horiz-adv-x="539" 
d="M147 -208v548l-78 1v-560zM397 485v-343q-22 -24 -51 -44.5t-57.5 -32t-54.5 -11.5q-49 0 -68 32t-19 82v317h-78v-328q0 -49 15.5 -88t49 -61t87.5 -22q32 0 65.5 11t64 30.5t52.5 42.5l14 -70h59v485h-79z" />
    <glyph glyph-name="paragraph" unicode="&#xb6;" horiz-adv-x="837" 
d="M407 0v617h221v-617h79v617h98v63h-522q-71 0 -128 -21t-89.5 -67t-32.5 -121q0 -56 20.5 -96t57 -66t83.5 -39t100 -13h35v-257h78z" />
    <glyph glyph-name="periodcentered" unicode="&#xb7;" horiz-adv-x="167" 
d="M85 207q22 0 37 16.5t15 38.5t-15 38t-37 16q-24 0 -39.5 -15.5t-15.5 -38.5q0 -22 15.5 -38.5t39.5 -16.5z" />
    <glyph glyph-name="cedilla" unicode="&#xb8;" horiz-adv-x="215" 
d="M51 -79q26 -3 46 -10.5t32 -18t12 -23.5q0 -17 -17 -25.5t-35 -8.5q-15 0 -32.5 5.5t-27.5 9.5l-19 -50q14 -9 37 -15t42 -6q30 0 56.5 10t43 31t16.5 51q0 18 -10.5 35.5t-28 30t-39.5 15.5l24 61h-63z" />
    <glyph glyph-name="onesuperior" unicode="&#xb9;" horiz-adv-x="263" 
d="M190 336v428h-46l-134 -66l29 -48l80 41v-355h71z" />
    <glyph glyph-name="ordmasculine" unicode="&#xba;" horiz-adv-x="383" 
d="M190 702q-45 0 -80.5 -21t-56.5 -59t-21 -90q0 -53 19.5 -90.5t55 -58t82.5 -20.5t83.5 20.5t57.5 58.5t21 89q0 54 -20.5 92t-56 58.5t-84.5 20.5zM191 642q36 0 61 -27t25 -84q0 -38 -13 -62t-32.5 -35.5t-41.5 -11.5q-34 0 -59.5 27t-25.5 83q0 40 13 64t33 35t40 11z
" />
    <glyph glyph-name="guillemotright" unicode="&#xbb;" horiz-adv-x="373" 
d="M188 268l-145 139l-23 -53l106 -109l-106 -109l23 -53l145 139v46zM343 268l-144 139l-22 -53l106 -109l-106 -109l22 -53l144 139v46z" />
    <glyph glyph-name="onequarter" unicode="&#xbc;" horiz-adv-x="772" 
d="M190 336v428h-46l-134 -66l29 -48l80 41v-355h71zM752 -19h-80v340h-48l-252 -340l6 -58h225v-87h69v87h74zM603 196v-215h-158zM556 700l-506 -834h80l504 834h-78z" />
    <glyph glyph-name="onehalf" unicode="&#xbd;" horiz-adv-x="792" 
d="M190 336v428h-46l-134 -66l29 -48l80 41v-355h71zM608 325q-33 0 -61.5 -7t-51.5 -16.5t-38 -18.5l28 -54q13 9 32 17.5t42 14.5t45 6q30 0 48 -10t26.5 -26t8.5 -33q0 -26 -16 -56t-60 -69l-151 -130v-53h312l-8 55h-216l102 87q55 48 82 85.5t27 80.5q0 29 -15 58
t-48 49t-88 20zM541 700l-506 -834h80l504 834h-78z" />
    <glyph glyph-name="threequarters" unicode="&#xbe;" horiz-adv-x="794" 
d="M160 771q-46 0 -82 -13.5t-67 -33.5l28 -48q19 12 47.5 25t68.5 13q42 0 64 -19.5t22 -47.5q0 -24 -12.5 -42.5t-37.5 -29t-64 -10.5h-32l9 -55h18q69 0 98.5 -24t29.5 -68q0 -26 -14 -44.5t-37.5 -28t-50.5 -9.5q-39 0 -64.5 8.5t-52.5 24.5l-31 -49q28 -15 67 -28.5
t81 -13.5q54 0 92.5 19t59 51t20.5 71q0 32 -11 57t-31 41.5t-45 21.5q21 7 38.5 22.5t29 38t11.5 48.5q0 50 -38 86.5t-114 36.5zM617 700l-506 -834h80l504 834h-78zM774 -20h-80v340h-48l-252 -340l6 -58h225v-87h69v87h74zM625 195v-215h-158z" />
    <glyph glyph-name="questiondown" unicode="&#xbf;" horiz-adv-x="411" 
d="M248 523q23 0 39 16t16 39q0 22 -16 38.5t-39 16.5q-21 0 -37.5 -16.5t-16.5 -38.5q0 -23 16.5 -39t37.5 -16zM221 -69q58 0 99.5 16t80.5 42l-10 71q-42 -29 -80.5 -45.5t-87.5 -16.5q-55 0 -84.5 24t-29.5 77t49 96.5t125 68.5l-9 195l-57 24l-9 -178
q-54 -24 -94 -58.5t-62 -73t-22 -76.5q0 -48 20 -86t62.5 -59t108.5 -21z" />
    <glyph glyph-name="Agrave" unicode="&#xc0;" horiz-adv-x="609" 
d="M422 257h-242l119 318zM262 680l-252 -680h77l71 193h287l76 -200l78 13l-262 674h-75zM296 739l52 15l-53 141h-87z" />
    <glyph glyph-name="Aacute" unicode="&#xc1;" horiz-adv-x="609" 
d="M422 257h-242l119 318zM262 680l-252 -680h77l71 193h287l76 -200l78 13l-262 674h-75zM309 739l87 156h-86l-54 -141z" />
    <glyph glyph-name="Acircumflex" unicode="&#xc2;" horiz-adv-x="609" 
d="M422 257h-242l119 318zM262 680l-252 -680h77l71 193h287l76 -200l78 13l-262 674h-75zM295 837l74 -98l72 10l-115 146h-63l-114 -146l71 -10z" />
    <glyph glyph-name="Atilde" unicode="&#xc3;" horiz-adv-x="609" 
d="M422 257h-242l119 318zM262 680l-252 -680h77l71 193h287l76 -200l78 13l-262 674h-75zM384 853q-2 -20 -12 -30t-23 -10t-25.5 6t-23.5 16q-11 12 -27 17t-37 5q-24 0 -44 -8.5t-32.5 -30t-12.5 -59.5h55q2 19 13 29.5t24 10.5t25.5 -5.5t25.5 -16.5q12 -11 27 -17
t32 -6q25 0 45.5 9.5t32 31t11.5 58.5h-54z" />
    <glyph glyph-name="Adieresis" unicode="&#xc4;" horiz-adv-x="609" 
d="M422 257h-242l119 318zM262 680l-252 -680h77l71 193h287l76 -200l78 13l-262 674h-75zM213 764q21 0 35 14t14 35q0 19 -14 33.5t-35 14.5q-20 0 -34.5 -14.5t-14.5 -33.5q0 -21 14.5 -35t34.5 -14zM378 764q21 0 35 14t14 35q0 19 -14 33.5t-35 14.5q-20 0 -34.5 -14.5
t-14.5 -33.5q0 -21 14.5 -35t34.5 -14z" />
    <glyph glyph-name="Aring" unicode="&#xc5;" horiz-adv-x="609" 
d="M422 257h-242l119 318zM262 680l-252 -680h77l71 193h287l76 -200l78 13l-262 674h-75zM299 918q-25 0 -46.5 -11.5t-34.5 -32t-13 -45.5q0 -37 28 -61t65 -24q26 0 47 11t33.5 30.5t12.5 43.5q0 25 -12.5 45.5t-33.5 32t-46 11.5zM299 788q-18 0 -30.5 12t-12.5 29
q0 18 12.5 30.5t30.5 12.5q17 0 29.5 -12t12.5 -31q0 -17 -12.5 -29t-29.5 -12z" />
    <glyph glyph-name="AE" unicode="&#xc6;" horiz-adv-x="875" 
d="M445 0h410l-9 62h-321v255h244l-9 60h-235v243h302l-9 60h-383l-425 -676l74 -12l122 201h239v-193zM445 571v-314h-198z" />
    <glyph glyph-name="Ccedilla" unicode="&#xc7;" horiz-adv-x="556" 
d="M533 655q-23 14 -54.5 22.5t-63 12.5t-52.5 4q-74 0 -133.5 -27t-101 -76t-63.5 -114t-22 -141q0 -71 19.5 -134t59 -111.5t98.5 -76.5t137 -28q29 0 62 5t63.5 14t51.5 20l-30 59q-28 -12 -63 -21t-87 -9q-54 0 -96.5 22t-72 61.5t-44.5 90.5t-15 109q0 85 31.5 150
t85 102t120.5 37q34 0 58 -3.5t44.5 -10t42.5 -15.5zM291 -79q26 -3 46 -10.5t32 -18t12 -23.5q0 -17 -17 -25.5t-35 -8.5q-15 0 -32.5 5.5t-27.5 9.5l-19 -50q14 -9 37 -15t42 -6q30 0 56.5 10t43 31t16.5 51q0 18 -10.5 35.5t-28 30t-39.5 15.5l24 61h-63z" />
    <glyph glyph-name="Egrave" unicode="&#xc8;" horiz-adv-x="522" 
d="M502 0l-9 62h-322v255h245l-9 60h-236v243h302l-9 60h-371v-680h409zM283 739l52 15l-53 141h-87z" />
    <glyph glyph-name="Eacute" unicode="&#xc9;" horiz-adv-x="522" 
d="M502 0l-9 62h-322v255h245l-9 60h-236v243h302l-9 60h-371v-680h409zM297 739l87 156h-86l-54 -141z" />
    <glyph glyph-name="Ecircumflex" unicode="&#xca;" horiz-adv-x="522" 
d="M502 0l-9 62h-322v255h245l-9 60h-236v243h302l-9 60h-371v-680h409zM282 837l74 -98l72 10l-115 146h-63l-114 -146l71 -10z" />
    <glyph glyph-name="Edieresis" unicode="&#xcb;" horiz-adv-x="522" 
d="M502 0l-9 62h-322v255h245l-9 60h-236v243h302l-9 60h-371v-680h409zM200 764q21 0 35 14t14 35q0 19 -14 33.5t-35 14.5q-20 0 -34.5 -14.5t-14.5 -33.5q0 -21 14.5 -35t34.5 -14zM365 764q21 0 35 14t14 35q0 19 -14 33.5t-35 14.5q-20 0 -34.5 -14.5t-14.5 -33.5
q0 -21 14.5 -35t34.5 -14z" />
    <glyph glyph-name="Igrave" unicode="&#xcc;" horiz-adv-x="264" 
d="M171 0v680h-78v-680h78zM130 739l52 15l-53 141h-87z" />
    <glyph glyph-name="Iacute" unicode="&#xcd;" horiz-adv-x="264" 
d="M171 0v680h-78v-680h78zM144 739l87 156h-86l-54 -141z" />
    <glyph glyph-name="Icircumflex" unicode="&#xce;" horiz-adv-x="264" 
d="M171 0v680h-78v-680h78zM129 837l74 -98l72 10l-115 146h-63l-114 -146l71 -10z" />
    <glyph glyph-name="Idieresis" unicode="&#xcf;" horiz-adv-x="264" 
d="M171 0v680h-78v-680h78zM47 764q21 0 35 14t14 35q0 19 -14 33.5t-35 14.5q-20 0 -34.5 -14.5t-14.5 -33.5q0 -21 14.5 -35t34.5 -14zM212 764q21 0 35 14t14 35q0 19 -14 33.5t-35 14.5q-20 0 -34.5 -14.5t-14.5 -33.5q0 -21 14.5 -35t34.5 -14z" />
    <glyph glyph-name="Eth" unicode="&#xd0;" horiz-adv-x="671" 
d="M282 305l-9 62h-253l9 -62h253zM324 0q100 0 167.5 45.5t102.5 123.5t35 175q0 95 -31 171t-96 120.5t-171 44.5h-238v-680h231zM334 612q74 0 121.5 -35t71 -95.5t23.5 -138.5q0 -86 -28.5 -148t-78.5 -95.5t-118 -33.5h-154v546h163z" />
    <glyph glyph-name="Ntilde" unicode="&#xd1;" horiz-adv-x="700" 
d="M171 0v533l26 -44l347 -489h63v680h-80v-527l-41 67l-331 460h-62v-680h78zM437 853q-2 -20 -12 -30t-23 -10t-25.5 6t-23.5 16q-11 12 -27 17t-37 5q-24 0 -44 -8.5t-32.5 -30t-12.5 -59.5h55q2 19 13 29.5t24 10.5t25.5 -5.5t25.5 -16.5q12 -11 27 -17t32 -6
q25 0 45.5 9.5t32 31t11.5 58.5h-54z" />
    <glyph glyph-name="Ograve" unicode="&#xd2;" horiz-adv-x="725" 
d="M360 -14q-92 0 -164 45t-112.5 124.5t-40.5 181.5t41.5 182.5t114 127.5t165.5 49q92 0 164 -45.5t113 -124.5t41 -181t-41.5 -183t-114 -127.5t-166.5 -48.5zM358 55q70 0 124 37t85 102.5t31 149.5q0 82 -30 146t-82.5 100t-119.5 36q-70 0 -124 -37t-85 -102t-31 -149
q0 -82 30 -146t82 -100.5t120 -36.5zM360 739l52 15l-53 141h-87z" />
    <glyph glyph-name="Oacute" unicode="&#xd3;" horiz-adv-x="725" 
d="M360 -14q-92 0 -164 45t-112.5 124.5t-40.5 181.5t41.5 182.5t114 127.5t165.5 49q92 0 164 -45.5t113 -124.5t41 -181t-41.5 -183t-114 -127.5t-166.5 -48.5zM358 55q70 0 124 37t85 102.5t31 149.5q0 82 -30 146t-82.5 100t-119.5 36q-70 0 -124 -37t-85 -102t-31 -149
q0 -82 30 -146t82 -100.5t120 -36.5zM374 739l87 156h-86l-54 -141z" />
    <glyph glyph-name="Ocircumflex" unicode="&#xd4;" horiz-adv-x="725" 
d="M360 -14q-92 0 -164 45t-112.5 124.5t-40.5 181.5t41.5 182.5t114 127.5t165.5 49q92 0 164 -45.5t113 -124.5t41 -181t-41.5 -183t-114 -127.5t-166.5 -48.5zM358 55q70 0 124 37t85 102.5t31 149.5q0 82 -30 146t-82.5 100t-119.5 36q-70 0 -124 -37t-85 -102t-31 -149
q0 -82 30 -146t82 -100.5t120 -36.5zM359 837l74 -98l72 10l-115 146h-63l-114 -146l71 -10z" />
    <glyph glyph-name="Otilde" unicode="&#xd5;" horiz-adv-x="725" 
d="M360 -14q-92 0 -164 45t-112.5 124.5t-40.5 181.5t41.5 182.5t114 127.5t165.5 49q92 0 164 -45.5t113 -124.5t41 -181t-41.5 -183t-114 -127.5t-166.5 -48.5zM358 55q70 0 124 37t85 102.5t31 149.5q0 82 -30 146t-82.5 100t-119.5 36q-70 0 -124 -37t-85 -102t-31 -149
q0 -82 30 -146t82 -100.5t120 -36.5zM448 853q-2 -20 -12 -30t-23 -10t-25.5 6t-23.5 16q-11 12 -27 17t-37 5q-24 0 -44 -8.5t-32.5 -30t-12.5 -59.5h55q2 19 13 29.5t24 10.5t25.5 -5.5t25.5 -16.5q12 -11 27 -17t32 -6q25 0 45.5 9.5t32 31t11.5 58.5h-54z" />
    <glyph glyph-name="Odieresis" unicode="&#xd6;" horiz-adv-x="725" 
d="M360 -14q-92 0 -164 45t-112.5 124.5t-40.5 181.5t41.5 182.5t114 127.5t165.5 49q92 0 164 -45.5t113 -124.5t41 -181t-41.5 -183t-114 -127.5t-166.5 -48.5zM358 55q70 0 124 37t85 102.5t31 149.5q0 82 -30 146t-82.5 100t-119.5 36q-70 0 -124 -37t-85 -102t-31 -149
q0 -82 30 -146t82 -100.5t120 -36.5zM277 764q21 0 35 14t14 35q0 19 -14 33.5t-35 14.5q-20 0 -34.5 -14.5t-14.5 -33.5q0 -21 14.5 -35t34.5 -14zM442 764q21 0 35 14t14 35q0 19 -14 33.5t-35 14.5q-20 0 -34.5 -14.5t-14.5 -33.5q0 -21 14.5 -35t34.5 -14z" />
    <glyph glyph-name="multiply" unicode="&#xd7;" horiz-adv-x="508" 
d="M292 248l170 -218h-81l-127 164l-144 -164h-80l186 221l-170 218h81l127 -164l144 164h80z" />
    <glyph glyph-name="Oslash" unicode="&#xd8;" horiz-adv-x="725" 
d="M360 -14q-92 0 -164 45t-112.5 124.5t-40.5 181.5t41.5 182.5t114 127.5t165.5 49q92 0 164 -45.5t113 -124.5t41 -181t-41.5 -183t-114 -127.5t-166.5 -48.5zM358 55q70 0 124 37t85 102.5t31 149.5q0 82 -30 146t-82.5 100t-119.5 36q-70 0 -124 -37t-85 -102t-31 -149
q0 -82 30 -146t82 -100.5t120 -36.5zM273 39l-64 31l240 558l64 -40z" />
    <glyph glyph-name="Ugrave" unicode="&#xd9;" horiz-adv-x="681" 
d="M161 680h-78v-439q0 -72 31.5 -129.5t89.5 -90t137 -32.5q80 0 137.5 33t89 90t31.5 129v439h-80v-430q0 -57 -21.5 -101.5t-61.5 -69.5t-95 -25q-54 0 -94.5 25t-63 69t-22.5 102v430zM337 739l52 15l-53 141h-87z" />
    <glyph glyph-name="Uacute" unicode="&#xda;" horiz-adv-x="681" 
d="M161 680h-78v-439q0 -72 31.5 -129.5t89.5 -90t137 -32.5q80 0 137.5 33t89 90t31.5 129v439h-80v-430q0 -57 -21.5 -101.5t-61.5 -69.5t-95 -25q-54 0 -94.5 25t-63 69t-22.5 102v430zM351 739l87 156h-86l-54 -141z" />
    <glyph glyph-name="Ucircumflex" unicode="&#xdb;" horiz-adv-x="681" 
d="M161 680h-78v-439q0 -72 31.5 -129.5t89.5 -90t137 -32.5q80 0 137.5 33t89 90t31.5 129v439h-80v-430q0 -57 -21.5 -101.5t-61.5 -69.5t-95 -25q-54 0 -94.5 25t-63 69t-22.5 102v430zM336 837l74 -98l72 10l-115 146h-63l-114 -146l71 -10z" />
    <glyph glyph-name="Udieresis" unicode="&#xdc;" horiz-adv-x="681" 
d="M161 680h-78v-439q0 -72 31.5 -129.5t89.5 -90t137 -32.5q80 0 137.5 33t89 90t31.5 129v439h-80v-430q0 -57 -21.5 -101.5t-61.5 -69.5t-95 -25q-54 0 -94.5 25t-63 69t-22.5 102v430zM254 764q21 0 35 14t14 35q0 19 -14 33.5t-35 14.5q-20 0 -34.5 -14.5t-14.5 -33.5
q0 -21 14.5 -35t34.5 -14zM419 764q21 0 35 14t14 35q0 19 -14 33.5t-35 14.5q-20 0 -34.5 -14.5t-14.5 -33.5q0 -21 14.5 -35t34.5 -14z" />
    <glyph glyph-name="Yacute" unicode="&#xdd;" horiz-adv-x="563" 
d="M314 0l1 277l238 403h-85l-193 -329l-191 345l-74 -32l225 -391v-273h79zM285 739l87 156h-86l-54 -141z" />
    <glyph glyph-name="Thorn" unicode="&#xde;" horiz-adv-x="562" 
d="M278 600q71 0 128 -21t90 -67t33 -121q0 -55 -21 -96t-57 -67t-83 -38.5t-101 -12.5h-96v-177h-78v680h78v-80h107zM270 244q50 0 90 14.5t63.5 46.5t24.5 84q0 55 -21.5 86t-59 44.5t-89.5 13.5h-107v-289h99z" />
    <glyph glyph-name="germandbls" unicode="&#xdf;" horiz-adv-x="575" 
d="M73 0h79v472q0 44 16 76.5t47.5 51t75.5 18.5q52 0 89.5 -28.5t37.5 -88.5q0 -57 -36 -87t-117 -30h-29v-64h58q72 0 117 -31.5t45 -99.5q0 -46 -23 -73t-62 -38.5t-87 -11.5h-61v-66h61q72 0 129 19t90.5 60.5t33.5 110.5q0 44 -16 77.5t-43.5 57t-62.5 35.5
q26 13 45 34.5t29 49.5t10 60q0 61 -28.5 101t-75.5 60.5t-104 20.5q-65 0 -114.5 -25t-76.5 -72.5t-27 -115.5v-473z" />
    <glyph glyph-name="agrave" unicode="&#xe0;" horiz-adv-x="488" 
d="M123 138q0 38 25.5 66.5t74.5 28.5h127v-111q-25 -29 -60 -50t-77 -21q-31 0 -51 13t-29.5 33.5t-9.5 40.5zM104 396q27 11 59.5 22t79.5 11q58 0 82.5 -33t24.5 -83v-27h-125q-78 0 -127 -38.5t-49 -109.5q0 -64 41 -107t126 -43q40 0 80.5 19t63.5 42l10 -49h60v334
q0 48 -24 85t-66.5 58t-98.5 21q-20 0 -51 -5.5t-60.5 -15t-48.5 -22.5zM241 589l52 15l-53 141h-87z" />
    <glyph glyph-name="aacute" unicode="&#xe1;" horiz-adv-x="488" 
d="M123 138q0 38 25.5 66.5t74.5 28.5h127v-111q-25 -29 -60 -50t-77 -21q-31 0 -51 13t-29.5 33.5t-9.5 40.5zM104 396q27 11 59.5 22t79.5 11q58 0 82.5 -33t24.5 -83v-27h-125q-78 0 -127 -38.5t-49 -109.5q0 -64 41 -107t126 -43q40 0 80.5 19t63.5 42l10 -49h60v334
q0 48 -24 85t-66.5 58t-98.5 21q-20 0 -51 -5.5t-60.5 -15t-48.5 -22.5zM241 589l87 156h-86l-54 -141z" />
    <glyph glyph-name="acircumflex" unicode="&#xe2;" horiz-adv-x="488" 
d="M123 138q0 38 25.5 66.5t74.5 28.5h127v-111q-25 -29 -60 -50t-77 -21q-31 0 -51 13t-29.5 33.5t-9.5 40.5zM104 396q27 11 59.5 22t79.5 11q58 0 82.5 -33t24.5 -83v-27h-125q-78 0 -127 -38.5t-49 -109.5q0 -64 41 -107t126 -43q40 0 80.5 19t63.5 42l10 -49h60v334
q0 48 -24 85t-66.5 58t-98.5 21q-20 0 -51 -5.5t-60.5 -15t-48.5 -22.5zM242 687l74 -98l72 10l-115 146h-63l-114 -146l71 -10z" />
    <glyph glyph-name="atilde" unicode="&#xe3;" horiz-adv-x="488" 
d="M123 138q0 38 25.5 66.5t74.5 28.5h127v-111q-25 -29 -60 -50t-77 -21q-31 0 -51 13t-29.5 33.5t-9.5 40.5zM104 396q27 11 59.5 22t79.5 11q58 0 82.5 -33t24.5 -83v-27h-125q-78 0 -127 -38.5t-49 -109.5q0 -64 41 -107t126 -43q40 0 80.5 19t63.5 42l10 -49h60v334
q0 48 -24 85t-66.5 58t-98.5 21q-20 0 -51 -5.5t-60.5 -15t-48.5 -22.5zM329 703q-2 -20 -12 -30t-23 -10t-25.5 6t-23.5 16q-11 12 -27 17t-37 5q-24 0 -44 -8.5t-32.5 -30t-12.5 -59.5h55q2 19 13 29.5t24 10.5t25.5 -5.5t25.5 -16.5q12 -11 27 -17t32 -6q25 0 45.5 9.5
t32 31t11.5 58.5h-54z" />
    <glyph glyph-name="adieresis" unicode="&#xe4;" horiz-adv-x="488" 
d="M123 138q0 38 25.5 66.5t74.5 28.5h127v-111q-25 -29 -60 -50t-77 -21q-31 0 -51 13t-29.5 33.5t-9.5 40.5zM104 396q27 11 59.5 22t79.5 11q58 0 82.5 -33t24.5 -83v-27h-125q-78 0 -127 -38.5t-49 -109.5q0 -64 41 -107t126 -43q40 0 80.5 19t63.5 42l10 -49h60v334
q0 48 -24 85t-66.5 58t-98.5 21q-20 0 -51 -5.5t-60.5 -15t-48.5 -22.5zM154 614q21 0 35 14t14 35q0 19 -14 33.5t-35 14.5q-20 0 -34.5 -14.5t-14.5 -33.5q0 -21 14.5 -35t34.5 -14zM319 614q21 0 35 14t14 35q0 19 -14 33.5t-35 14.5q-20 0 -34.5 -14.5t-14.5 -33.5
q0 -21 14.5 -35t34.5 -14z" />
    <glyph glyph-name="aring" unicode="&#xe5;" horiz-adv-x="488" 
d="M123 138q0 38 25.5 66.5t74.5 28.5h127v-111q-25 -29 -60 -50t-77 -21q-31 0 -51 13t-29.5 33.5t-9.5 40.5zM104 396q27 11 59.5 22t79.5 11q58 0 82.5 -33t24.5 -83v-27h-125q-78 0 -127 -38.5t-49 -109.5q0 -64 41 -107t126 -43q40 0 80.5 19t63.5 42l10 -49h60v334
q0 48 -24 85t-66.5 58t-98.5 21q-20 0 -51 -5.5t-60.5 -15t-48.5 -22.5zM244 768q-25 0 -46.5 -11.5t-34.5 -32t-13 -45.5q0 -37 28 -61t65 -24q26 0 47 11t33.5 30.5t12.5 43.5q0 25 -12.5 45.5t-33.5 32t-46 11.5zM244 638q-18 0 -30.5 12t-12.5 29q0 18 12.5 30.5
t30.5 12.5q17 0 29.5 -12t12.5 -31q0 -17 -12.5 -29t-29.5 -12z" />
    <glyph glyph-name="ae" unicode="&#xe6;" horiz-adv-x="814" 
d="M782 230h-352q3 -51 20.5 -91t54.5 -63t96 -23q43 0 77 11.5t73 30.5l25 -57q-24 -13 -50.5 -25t-56.5 -18.5t-66 -6.5q-70 0 -121.5 23t-81.5 64q-17 -19 -42.5 -39.5t-60 -34t-81.5 -13.5q-85 0 -126 43t-41 107q0 71 49 109.5t127 38.5h125v26q0 50 -24.5 83.5
t-82.5 33.5q-47 0 -79.5 -11t-59.5 -22l-23 59q19 13 48.5 22.5t60.5 15t51 5.5q54 0 96 -20.5t66 -56.5q28 36 72 56.5t99 20.5q74 0 120 -34.5t67 -93.5t21 -131v-9zM432 284h272q-5 44 -20 77t-42.5 51.5t-69.5 18.5q-43 0 -72.5 -18.5t-46 -51.5t-21.5 -77zM349 233
h-126q-32 0 -54.5 -13.5t-34 -35t-11.5 -46.5q0 -20 9.5 -40.5t29.5 -33.5t51 -13q45 0 73.5 12t47.5 31t33 38q-8 23 -12.5 48t-5.5 53z" />
    <glyph glyph-name="ccedilla" unicode="&#xe7;" horiz-adv-x="458" 
d="M401 87q-28 -14 -57.5 -23.5t-77.5 -9.5q-50 0 -84.5 25t-51.5 68.5t-17 97.5q1 52 19.5 94t53.5 67t84 25q47 0 77 -10.5t58 -22.5l24 55q-20 14 -49.5 24t-58.5 15.5t-49 5.5q-73 0 -127 -32.5t-82.5 -89.5t-29.5 -132q0 -76 28 -134t80.5 -90.5t125.5 -32.5
q21 0 50 5.5t58.5 15.5t50.5 23zM202 -79q26 -3 46 -10.5t32 -18t12 -23.5q0 -17 -17 -25.5t-35 -8.5q-15 0 -32.5 5.5t-27.5 9.5l-19 -50q14 -9 37 -15t42 -6q30 0 56.5 10t43 31t16.5 51q0 18 -10.5 35.5t-28 30t-39.5 15.5l24 61h-63z" />
    <glyph glyph-name="egrave" unicode="&#xe8;" horiz-adv-x="499" 
d="M466 230v7q0 73 -21.5 132t-67 94t-118.5 35q-72 0 -122.5 -32.5t-77 -89.5t-26.5 -132q0 -76 28 -134t84.5 -90t141.5 -32q36 0 66.5 6.5t57 18t49.5 24.5l-26 58q-38 -19 -72 -30.5t-76 -11.5q-60 0 -97 23t-54.5 63t-20.5 91h352zM116 284q5 44 21.5 77t46 51.5
t72.5 18.5q42 0 69.5 -18.5t42.5 -51.5t20 -77h-272zM254 589l52 15l-53 141h-87z" />
    <glyph glyph-name="eacute" unicode="&#xe9;" horiz-adv-x="499" 
d="M466 230v7q0 73 -21.5 132t-67 94t-118.5 35q-72 0 -122.5 -32.5t-77 -89.5t-26.5 -132q0 -76 28 -134t84.5 -90t141.5 -32q36 0 66.5 6.5t57 18t49.5 24.5l-26 58q-38 -19 -72 -30.5t-76 -11.5q-60 0 -97 23t-54.5 63t-20.5 91h352zM116 284q5 44 21.5 77t46 51.5
t72.5 18.5q42 0 69.5 -18.5t42.5 -51.5t20 -77h-272zM255 589l87 156h-86l-54 -141z" />
    <glyph glyph-name="ecircumflex" unicode="&#xea;" horiz-adv-x="499" 
d="M466 230v7q0 73 -21.5 132t-67 94t-118.5 35q-72 0 -122.5 -32.5t-77 -89.5t-26.5 -132q0 -76 28 -134t84.5 -90t141.5 -32q36 0 66.5 6.5t57 18t49.5 24.5l-26 58q-38 -19 -72 -30.5t-76 -11.5q-60 0 -97 23t-54.5 63t-20.5 91h352zM116 284q5 44 21.5 77t46 51.5
t72.5 18.5q42 0 69.5 -18.5t42.5 -51.5t20 -77h-272zM255 687l74 -98l72 10l-115 146h-63l-114 -146l71 -10z" />
    <glyph glyph-name="edieresis" unicode="&#xeb;" horiz-adv-x="499" 
d="M466 230v7q0 73 -21.5 132t-67 94t-118.5 35q-72 0 -122.5 -32.5t-77 -89.5t-26.5 -132q0 -76 28 -134t84.5 -90t141.5 -32q36 0 66.5 6.5t57 18t49.5 24.5l-26 58q-38 -19 -72 -30.5t-76 -11.5q-60 0 -97 23t-54.5 63t-20.5 91h352zM116 284q5 44 21.5 77t46 51.5
t72.5 18.5q42 0 69.5 -18.5t42.5 -51.5t20 -77h-272zM168 614q21 0 35 14t14 35q0 19 -14 33.5t-35 14.5q-20 0 -34.5 -14.5t-14.5 -33.5q0 -21 14.5 -35t34.5 -14zM333 614q21 0 35 14t14 35q0 19 -14 33.5t-35 14.5q-20 0 -34.5 -14.5t-14.5 -33.5q0 -21 14.5 -35
t34.5 -14z" />
    <glyph glyph-name="igrave" unicode="&#xec;" horiz-adv-x="205" 
d="M143 0v485h-80v-485h80zM100 589l52 15l-53 141h-87z" />
    <glyph glyph-name="iacute" unicode="&#xed;" horiz-adv-x="205" 
d="M143 0v485h-80v-485h80zM100 589l87 156h-86l-54 -141z" />
    <glyph glyph-name="icircumflex" unicode="&#xee;" horiz-adv-x="205" 
d="M143 0v485h-80v-485h80zM101 687l74 -98l72 10l-115 146h-63l-114 -146l71 -10z" />
    <glyph glyph-name="idieresis" unicode="&#xef;" horiz-adv-x="205" 
d="M143 0v485h-80v-485h80zM13 614q21 0 35 14t14 35q0 19 -14 33.5t-35 14.5q-20 0 -34.5 -14.5t-14.5 -33.5q0 -21 14.5 -35t34.5 -14zM178 614q21 0 35 14t14 35q0 19 -14 33.5t-35 14.5q-20 0 -34.5 -14.5t-14.5 -33.5q0 -21 14.5 -35t34.5 -14z" />
    <glyph glyph-name="eth" unicode="&#xf0;" horiz-adv-x="536" 
d="M504 246q0 84 -23 160t-70.5 140.5t-121 116t-174.5 87.5l-24 -56q102 -40 166.5 -90t100.5 -108t50.5 -122.5t14.5 -133.5q0 -52 -18.5 -94t-53.5 -67t-85 -25t-84.5 25t-51.5 68.5t-17 97.5q1 52 19.5 94t53.5 67t84 25q35 0 64 -9.5t51 -26.5t40 -40l39 31
q-21 33 -51 58t-66.5 39.5t-75.5 14.5q-73 0 -126.5 -33t-82 -90t-29.5 -131q0 -76 27.5 -133.5t79.5 -91t124 -32.5q77 0 130 34t81.5 92.5t28.5 132.5zM114 554l273 139l-29 49l-275 -136z" />
    <glyph glyph-name="ntilde" unicode="&#xf1;" 
d="M141 0v344q24 25 52 44.5t57.5 31.5t53.5 12q50 0 68.5 -32t18.5 -82v-318h79v328q0 50 -16 88.5t-49.5 61t-86.5 22.5q-32 0 -66 -11t-64 -30t-53 -43l-14 69h-58v-485h78zM360 703q-2 -20 -12 -30t-23 -10t-25.5 6t-23.5 16q-11 12 -27 17t-37 5q-24 0 -44 -8.5
t-32.5 -30t-12.5 -59.5h55q2 19 13 29.5t24 10.5t25.5 -5.5t25.5 -16.5q12 -11 27 -17t32 -6q25 0 45.5 9.5t32 31t11.5 58.5h-54z" />
    <glyph glyph-name="ograve" unicode="&#xf2;" horiz-adv-x="536" 
d="M264 -13q-72 -1 -124 32.5t-79.5 91t-27.5 133.5q1 74 29.5 131t82 90t126.5 33t125 -32t80 -89t28 -136q0 -74 -29.5 -131t-83 -90t-127.5 -33zM266 54q50 0 85 25t53.5 67t18.5 94q0 55 -17.5 98t-51 68t-84.5 25q-49 0 -84 -25t-53.5 -67t-19.5 -94q0 -54 17 -97.5
t51.5 -68.5t84.5 -25zM266 589l52 15l-53 141h-87z" />
    <glyph glyph-name="oacute" unicode="&#xf3;" horiz-adv-x="536" 
d="M264 -13q-72 -1 -124 32.5t-79.5 91t-27.5 133.5q1 74 29.5 131t82 90t126.5 33t125 -32t80 -89t28 -136q0 -74 -29.5 -131t-83 -90t-127.5 -33zM266 54q50 0 85 25t53.5 67t18.5 94q0 55 -17.5 98t-51 68t-84.5 25q-49 0 -84 -25t-53.5 -67t-19.5 -94q0 -54 17 -97.5
t51.5 -68.5t84.5 -25zM267 589l87 156h-86l-54 -141z" />
    <glyph glyph-name="ocircumflex" unicode="&#xf4;" horiz-adv-x="536" 
d="M264 -13q-72 -1 -124 32.5t-79.5 91t-27.5 133.5q1 74 29.5 131t82 90t126.5 33t125 -32t80 -89t28 -136q0 -74 -29.5 -131t-83 -90t-127.5 -33zM266 54q50 0 85 25t53.5 67t18.5 94q0 55 -17.5 98t-51 68t-84.5 25q-49 0 -84 -25t-53.5 -67t-19.5 -94q0 -54 17 -97.5
t51.5 -68.5t84.5 -25zM266 687l74 -98l72 10l-115 146h-63l-114 -146l71 -10z" />
    <glyph glyph-name="otilde" unicode="&#xf5;" horiz-adv-x="536" 
d="M264 -13q-72 -1 -124 32.5t-79.5 91t-27.5 133.5q1 74 29.5 131t82 90t126.5 33t125 -32t80 -89t28 -136q0 -74 -29.5 -131t-83 -90t-127.5 -33zM266 54q50 0 85 25t53.5 67t18.5 94q0 55 -17.5 98t-51 68t-84.5 25q-49 0 -84 -25t-53.5 -67t-19.5 -94q0 -54 17 -97.5
t51.5 -68.5t84.5 -25zM354 703q-2 -20 -12 -30t-23 -10t-25.5 6t-23.5 16q-11 12 -27 17t-37 5q-24 0 -44 -8.5t-32.5 -30t-12.5 -59.5h55q2 19 13 29.5t24 10.5t25.5 -5.5t25.5 -16.5q12 -11 27 -17t32 -6q25 0 45.5 9.5t32 31t11.5 58.5h-54z" />
    <glyph glyph-name="odieresis" unicode="&#xf6;" horiz-adv-x="536" 
d="M264 -13q-72 -1 -124 32.5t-79.5 91t-27.5 133.5q1 74 29.5 131t82 90t126.5 33t125 -32t80 -89t28 -136q0 -74 -29.5 -131t-83 -90t-127.5 -33zM266 54q50 0 85 25t53.5 67t18.5 94q0 55 -17.5 98t-51 68t-84.5 25q-49 0 -84 -25t-53.5 -67t-19.5 -94q0 -54 17 -97.5
t51.5 -68.5t84.5 -25zM179 614q21 0 35 14t14 35q0 19 -14 33.5t-35 14.5q-20 0 -34.5 -14.5t-14.5 -33.5q0 -21 14.5 -35t34.5 -14zM344 614q21 0 35 14t14 35q0 19 -14 33.5t-35 14.5q-20 0 -34.5 -14.5t-14.5 -33.5q0 -21 14.5 -35t34.5 -14z" />
    <glyph glyph-name="divide" unicode="&#xf7;" horiz-adv-x="500" 
d="M250 360q25 0 42.5 18.5t17.5 42.5q0 26 -17.5 43.5t-42.5 17.5q-27 0 -44.5 -17.5t-17.5 -43.5q0 -24 17.5 -42.5t44.5 -18.5zM462 305h-432l9 -64h431zM251 48q26 0 44 18.5t18 44.5q0 25 -18 43t-44 18t-43.5 -18t-17.5 -43q0 -26 17.5 -44.5t43.5 -18.5z" />
    <glyph glyph-name="oslash" unicode="&#xf8;" horiz-adv-x="543" 
d="M264 -13q-72 -1 -124 32.5t-79.5 91t-27.5 133.5q1 74 29.5 131t82 90t126.5 33t125 -32t80 -89t28 -136q0 -74 -29.5 -131t-83 -90t-127.5 -33zM266 54q50 0 85 25t53.5 67t18.5 94q0 55 -17.5 98t-51 68t-84.5 25q-49 0 -84 -25t-53.5 -67t-19.5 -94q0 -54 17 -97.5
t51.5 -68.5t84.5 -25zM205 29l-62 33l204 387l57 -40z" />
    <glyph glyph-name="ugrave" unicode="&#xf9;" 
d="M387 485v-343q-22 -24 -51 -44.5t-57.5 -32t-54.5 -11.5q-49 0 -68 32t-19 82v317h-78v-328q0 -49 15.5 -88t49.5 -61t87 -22q32 0 65.5 11t64 30.5t52.5 42.5l14 -70h59v485h-79zM256 589l52 15l-53 141h-87z" />
    <glyph glyph-name="uacute" unicode="&#xfa;" 
d="M387 485v-343q-22 -24 -51 -44.5t-57.5 -32t-54.5 -11.5q-49 0 -68 32t-19 82v317h-78v-328q0 -49 15.5 -88t49.5 -61t87 -22q32 0 65.5 11t64 30.5t52.5 42.5l14 -70h59v485h-79zM256 589l87 156h-86l-54 -141z" />
    <glyph glyph-name="ucircumflex" unicode="&#xfb;" 
d="M387 485v-343q-22 -24 -51 -44.5t-57.5 -32t-54.5 -11.5q-49 0 -68 32t-19 82v317h-78v-328q0 -49 15.5 -88t49.5 -61t87 -22q32 0 65.5 11t64 30.5t52.5 42.5l14 -70h59v485h-79zM256 687l74 -98l72 10l-115 146h-63l-114 -146l71 -10z" />
    <glyph glyph-name="udieresis" unicode="&#xfc;" 
d="M387 485v-343q-22 -24 -51 -44.5t-57.5 -32t-54.5 -11.5q-49 0 -68 32t-19 82v317h-78v-328q0 -49 15.5 -88t49.5 -61t87 -22q32 0 65.5 11t64 30.5t52.5 42.5l14 -70h59v485h-79zM169 614q21 0 35 14t14 35q0 19 -14 33.5t-35 14.5q-20 0 -34.5 -14.5t-14.5 -33.5
q0 -21 14.5 -35t34.5 -14zM334 614q21 0 35 14t14 35q0 19 -14 33.5t-35 14.5q-20 0 -34.5 -14.5t-14.5 -33.5q0 -21 14.5 -35t34.5 -14z" />
    <glyph glyph-name="yacute" unicode="&#xfd;" horiz-adv-x="455" 
d="M159 -79q-8 -22 -23 -37t-35 -25.5t-44 -21.5l24 -57q35 8 65 24.5t52.5 41t33.5 54.5l213 585h-79l-139 -375l-147 390l-70 -30l180 -467zM221 589l87 156h-86l-54 -141z" />
    <glyph glyph-name="thorn" unicode="&#xfe;" horiz-adv-x="524" 
d="M261 498q73 0 125 -32.5t79 -90t27 -134.5q0 -74 -28.5 -131.5t-80.5 -90t-125 -32.5q-27 0 -56 10.5t-55 27.5v-233l-78 -11v914l78 11v-246q27 18 57.5 28t56.5 10zM260 54q50 0 83.5 25t50.5 67t17 94q0 56 -16 99t-49.5 67.5t-83.5 24.5q-37 0 -64.5 -12t-50.5 -34
v-289q23 -18 49.5 -30t63.5 -12z" />
    <glyph glyph-name="ydieresis" unicode="&#xff;" horiz-adv-x="455" 
d="M159 -79q-8 -22 -23 -37t-35 -25.5t-44 -21.5l24 -57q35 8 65 24.5t52.5 41t33.5 54.5l213 585h-79l-139 -375l-147 390l-70 -30l180 -467zM133 614q21 0 35 14t14 35q0 19 -14 33.5t-35 14.5q-20 0 -34.5 -14.5t-14.5 -33.5q0 -21 14.5 -35t34.5 -14zM298 614
q21 0 35 14t14 35q0 19 -14 33.5t-35 14.5q-20 0 -34.5 -14.5t-14.5 -33.5q0 -21 14.5 -35t34.5 -14z" />
    <glyph glyph-name="Amacron" unicode="&#x100;" horiz-adv-x="609" 
d="M422 257h-242l119 318zM262 680l-252 -680h77l71 193h287l76 -200l78 13l-262 674h-75zM172 783h246l-8 62h-238v-62z" />
    <glyph glyph-name="amacron" unicode="&#x101;" horiz-adv-x="488" 
d="M123 138q0 38 25.5 66.5t74.5 28.5h127v-111q-25 -29 -60 -50t-77 -21q-31 0 -51 13t-29.5 33.5t-9.5 40.5zM104 396q27 11 59.5 22t79.5 11q58 0 82.5 -33t24.5 -83v-27h-125q-78 0 -127 -38.5t-49 -109.5q0 -64 41 -107t126 -43q40 0 80.5 19t63.5 42l10 -49h60v334
q0 48 -24 85t-66.5 58t-98.5 21q-20 0 -51 -5.5t-60.5 -15t-48.5 -22.5zM115 633h246l-7 62h-239v-62z" />
    <glyph glyph-name="Abreve" unicode="&#x102;" horiz-adv-x="609" 
d="M422 257h-242l119 318zM262 680l-252 -680h77l71 193h287l76 -200l78 13l-262 674h-75zM376 887q0 -28 -19.5 -54t-57.5 -26q-39 0 -58.5 26t-19.5 54h-56q0 -36 14 -67.5t43.5 -51t76.5 -20.5q47 1 77 20.5t44 51t14 67.5h-58z" />
    <glyph glyph-name="abreve" unicode="&#x103;" horiz-adv-x="488" 
d="M123 138q0 38 25.5 66.5t74.5 28.5h127v-111q-25 -29 -60 -50t-77 -21q-31 0 -51 13t-29.5 33.5t-9.5 40.5zM104 396q27 11 59.5 22t79.5 11q58 0 82.5 -33t24.5 -83v-27h-125q-78 0 -127 -38.5t-49 -109.5q0 -64 41 -107t126 -43q40 0 80.5 19t63.5 42l10 -49h60v334
q0 48 -24 85t-66.5 58t-98.5 21q-20 0 -51 -5.5t-60.5 -15t-48.5 -22.5zM317 737q0 -28 -19.5 -54t-57.5 -26q-39 0 -58.5 26t-19.5 54h-56q0 -36 14 -67.5t43.5 -51t76.5 -20.5q47 1 77 20.5t44 51t14 67.5h-58z" />
    <glyph glyph-name="Aogonek" unicode="&#x104;" horiz-adv-x="609" 
d="M527 7q-15 -13 -28 -32t-20.5 -39.5t-7.5 -38.5q0 -29 13.5 -52t37.5 -36t55 -13q18 0 33.5 4t29 11t23.5 16l-26 48q-12 -9 -25 -14.5t-27 -5.5q-18 0 -32 11t-14 36q0 18 8.5 37.5t22.5 37t29 29.5zM422 257h-242l119 318zM262 680l-252 -680h77l71 193h287l76 -200
l78 13l-262 674h-75z" />
    <glyph glyph-name="aogonek" unicode="&#x105;" horiz-adv-x="488" 
d="M372 17q-20 -16 -36 -37t-25 -44t-9 -45q0 -29 13.5 -52t38 -35.5t55.5 -12.5q26 0 47.5 8t37.5 22l-26 49q-11 -10 -24.5 -15t-26.5 -5q-19 0 -33 10.5t-14 36.5q0 17 8.5 36.5t22.5 37.5t29 29zM123 138q0 38 25.5 66.5t74.5 28.5h127v-111q-25 -29 -60 -50t-77 -21
q-31 0 -51 13t-29.5 33.5t-9.5 40.5zM104 396q27 11 59.5 22t79.5 11q58 0 82.5 -33t24.5 -83v-27h-125q-78 0 -127 -38.5t-49 -109.5q0 -64 41 -107t126 -43q40 0 80.5 19t63.5 42l10 -49h60v334q0 48 -24 85t-66.5 58t-98.5 21q-20 0 -51 -5.5t-60.5 -15t-48.5 -22.5z" />
    <glyph glyph-name="Cacute" unicode="&#x106;" horiz-adv-x="556" 
d="M533 655q-23 14 -54.5 22.5t-63 12.5t-52.5 4q-74 0 -133.5 -27t-101 -76t-63.5 -114t-22 -141q0 -71 19.5 -134t59 -111.5t98.5 -76.5t137 -28q29 0 62 5t63.5 14t51.5 20l-30 59q-28 -12 -63 -21t-87 -9q-54 0 -96.5 22t-72 61.5t-44.5 90.5t-15 109q0 85 31.5 150
t85 102t120.5 37q34 0 58 -3.5t44.5 -10t42.5 -15.5zM373 739l87 156h-86l-54 -141z" />
    <glyph glyph-name="cacute" unicode="&#x107;" horiz-adv-x="458" 
d="M401 87q-28 -14 -57.5 -23.5t-77.5 -9.5q-50 0 -84.5 25t-51.5 68.5t-17 97.5q1 52 19.5 94t53.5 67t84 25q47 0 77 -10.5t58 -22.5l24 55q-20 14 -49.5 24t-58.5 15.5t-49 5.5q-73 0 -127 -32.5t-82.5 -89.5t-29.5 -132q0 -76 28 -134t80.5 -90.5t125.5 -32.5
q21 0 50 5.5t58.5 15.5t50.5 23zM254 589l87 156h-86l-54 -141z" />
    <glyph glyph-name="Ccaron" unicode="&#x10c;" horiz-adv-x="556" 
d="M533 655q-23 14 -54.5 22.5t-63 12.5t-52.5 4q-74 0 -133.5 -27t-101 -76t-63.5 -114t-22 -141q0 -71 19.5 -134t59 -111.5t98.5 -76.5t137 -28q29 0 62 5t63.5 14t51.5 20l-30 59q-28 -12 -63 -21t-87 -9q-54 0 -96.5 22t-72 61.5t-44.5 90.5t-15 109q0 85 31.5 150
t85 102t120.5 37q34 0 58 -3.5t44.5 -10t42.5 -15.5zM363 797l-74 98l-72 -10l116 -146h63l113 145l-71 11z" />
    <glyph glyph-name="ccaron" unicode="&#x10d;" horiz-adv-x="458" 
d="M401 87q-28 -14 -57.5 -23.5t-77.5 -9.5q-50 0 -84.5 25t-51.5 68.5t-17 97.5q1 52 19.5 94t53.5 67t84 25q47 0 77 -10.5t58 -22.5l24 55q-20 14 -49.5 24t-58.5 15.5t-49 5.5q-73 0 -127 -32.5t-82.5 -89.5t-29.5 -132q0 -76 28 -134t80.5 -90.5t125.5 -32.5
q21 0 50 5.5t58.5 15.5t50.5 23zM258 647l-74 98l-72 -10l116 -146h63l113 145l-71 11z" />
    <glyph glyph-name="Dcaron" unicode="&#x10e;" horiz-adv-x="671" 
d="M324 0q100 0 167.5 45.5t102.5 123.5t35 175q0 95 -31 171t-96 120.5t-171 44.5h-238v-680h231zM334 612q74 0 121.5 -35t71 -95.5t23.5 -138.5q0 -86 -28.5 -148t-78.5 -95.5t-118 -33.5h-154v546h163zM321 797l-74 98l-72 -10l116 -146h63l113 145l-71 11z" />
    <glyph glyph-name="dcaron" unicode="&#x10f;" horiz-adv-x="676" 
d="M592 712q-15 0 -27.5 -8t-20 -20.5t-7.5 -26.5q0 -12 6.5 -24.5t16.5 -20t22 -8.5q-3 -28 -18.5 -47t-39.5 -36l20 -37q29 15 51.5 41t36.5 59t14 65q0 28 -16 45.5t-38 17.5zM378 78l32 -78h48v705l-80 -10v-617zM401 126q-28 -34 -60 -53t-78 -19q-50 0 -83.5 24.5
t-50 68t-16.5 98.5q0 53 17 94.5t51 66.5t83 25q48 0 79.5 -18.5t59.5 -49.5l24 54q-20 25 -47.5 43t-57.5 28t-56 10q-72 0 -124.5 -32.5t-80.5 -89.5t-28 -132q0 -76 27 -134t79 -90.5t125 -32.5q25 0 55 9t58 28t49 45z" />
    <glyph glyph-name="Dcroat" unicode="&#x110;" horiz-adv-x="671" 
d="M282 305l-9 62h-253l9 -62h253zM324 0q100 0 167.5 45.5t102.5 123.5t35 175q0 95 -31 171t-96 120.5t-171 44.5h-238v-680h231zM334 612q74 0 121.5 -35t71 -95.5t23.5 -138.5q0 -86 -28.5 -148t-78.5 -95.5t-118 -33.5h-154v546h163z" />
    <glyph glyph-name="dcroat" unicode="&#x111;" horiz-adv-x="530" 
d="M401 126l25 -57q-21 -26 -49 -45t-58 -28t-55 -9q-73 0 -125 32.5t-79 90.5t-27 134q0 75 28 132t80.5 89.5t124.5 32.5q26 0 56 -10t57.5 -28t47.5 -43l-24 -54q-28 31 -59.5 49.5t-79.5 18.5q-49 0 -83 -25t-51 -66.5t-17 -94.5q0 -55 16.5 -98.5t50 -68t83.5 -24.5
q46 0 78 19t60 53zM458 560v-560h-48l-32 78v482h-94l-8 58h102v77l80 10v-87h69l8 -58h-77z" />
    <glyph glyph-name="Emacron" unicode="&#x112;" horiz-adv-x="522" 
d="M502 0l-9 62h-322v255h245l-9 60h-236v243h302l-9 60h-371v-680h409zM159 783h246l-8 62h-238v-62z" />
    <glyph glyph-name="emacron" unicode="&#x113;" horiz-adv-x="499" 
d="M466 230v7q0 73 -21.5 132t-67 94t-118.5 35q-72 0 -122.5 -32.5t-77 -89.5t-26.5 -132q0 -76 28 -134t84.5 -90t141.5 -32q36 0 66.5 6.5t57 18t49.5 24.5l-26 58q-38 -19 -72 -30.5t-76 -11.5q-60 0 -97 23t-54.5 63t-20.5 91h352zM116 284q5 44 21.5 77t46 51.5
t72.5 18.5q42 0 69.5 -18.5t42.5 -51.5t20 -77h-272zM128 633h246l-7 62h-239v-62z" />
    <glyph glyph-name="Edotaccent" unicode="&#x116;" horiz-adv-x="522" 
d="M502 0l-9 62h-322v255h245l-9 60h-236v243h302l-9 60h-371v-680h409zM286 762q22 0 37 15.5t15 38.5q0 22 -15 38.5t-37 16.5q-23 0 -39 -16.5t-16 -38.5t16 -38t39 -16z" />
    <glyph glyph-name="edotaccent" unicode="&#x117;" horiz-adv-x="499" 
d="M466 230v7q0 73 -21.5 132t-67 94t-118.5 35q-72 0 -122.5 -32.5t-77 -89.5t-26.5 -132q0 -76 28 -134t84.5 -90t141.5 -32q36 0 66.5 6.5t57 18t49.5 24.5l-26 58q-38 -19 -72 -30.5t-76 -11.5q-60 0 -97 23t-54.5 63t-20.5 91h352zM116 284q5 44 21.5 77t46 51.5
t72.5 18.5q42 0 69.5 -18.5t42.5 -51.5t20 -77h-272zM258 612q22 0 37 15.5t15 38.5q0 22 -15 38.5t-37 16.5q-23 0 -39 -16.5t-16 -38.5t16 -38t39 -16z" />
    <glyph glyph-name="Eogonek" unicode="&#x118;" horiz-adv-x="522" 
d="M502 0l-9 62h-322v255h245l-9 60h-236v243h302l-9 60h-371v-680h409zM370 4q-16 -13 -29 -32.5t-20.5 -39.5t-7.5 -39q0 -29 14 -51.5t38 -35.5t55 -13q26 0 48 8t38 23l-26 48q-12 -10 -25 -15t-27 -5q-18 0 -32 10.5t-14 36.5q0 17 8.5 36.5t22 37.5t28.5 29z" />
    <glyph glyph-name="eogonek" unicode="&#x119;" horiz-adv-x="499" 
d="M466 230v7q0 73 -21.5 132t-67 94t-118.5 35q-72 0 -122.5 -32.5t-77 -89.5t-26.5 -132q0 -76 28 -134t84.5 -90t141.5 -32q36 0 66.5 6.5t57 18t49.5 24.5l-26 58q-38 -19 -72 -30.5t-76 -11.5q-60 0 -97 23t-54.5 63t-20.5 91h352zM116 284q5 44 21.5 77t46 51.5
t72.5 18.5q42 0 69.5 -18.5t42.5 -51.5t20 -77h-272zM306 4q-16 -13 -29 -32.5t-20.5 -39.5t-7.5 -39q0 -29 14 -51.5t38 -35.5t55 -13q26 0 48 8t38 23l-26 48q-12 -10 -25 -15t-27 -5q-18 0 -32 10.5t-14 36.5q0 17 8.5 36.5t22 37.5t28.5 29z" />
    <glyph glyph-name="Ecaron" unicode="&#x11a;" horiz-adv-x="522" 
d="M502 0l-9 62h-322v255h245l-9 60h-236v243h302l-9 60h-371v-680h409zM286 797l-74 98l-72 -10l116 -146h63l113 145l-71 11z" />
    <glyph glyph-name="ecaron" unicode="&#x11b;" horiz-adv-x="499" 
d="M466 230v7q0 73 -21.5 132t-67 94t-118.5 35q-72 0 -122.5 -32.5t-77 -89.5t-26.5 -132q0 -76 28 -134t84.5 -90t141.5 -32q36 0 66.5 6.5t57 18t49.5 24.5l-26 58q-38 -19 -72 -30.5t-76 -11.5q-60 0 -97 23t-54.5 63t-20.5 91h352zM116 284q5 44 21.5 77t46 51.5
t72.5 18.5q42 0 69.5 -18.5t42.5 -51.5t20 -77h-272zM259 647l-74 98l-72 -10l116 -146h63l113 145l-71 11z" />
    <glyph glyph-name="Gbreve" unicode="&#x11e;" horiz-adv-x="627" 
d="M349 290h150v-216q-23 -8 -52 -14t-64 -6q-73 0 -131.5 34.5t-92 98.5t-33.5 150q0 69 22 123t60.5 90.5t86.5 56t100 19.5q34 0 58 -3.5t44 -10t42 -15.5l25 58q-21 14 -53.5 22.5t-64.5 12.5t-53 4q-74 0 -138 -25.5t-111.5 -73.5t-74 -113.5t-26.5 -145.5
q0 -99 41.5 -178t119 -125.5t180.5 -46.5q34 0 69.5 6t67.5 17t53 24v317h-218zM445 887q0 -28 -19.5 -54t-57.5 -26q-39 0 -58.5 26t-19.5 54h-56q0 -36 14 -67.5t43.5 -51t76.5 -20.5q47 1 77 20.5t44 51t14 67.5h-58z" />
    <glyph glyph-name="gbreve" unicode="&#x11f;" horiz-adv-x="526" 
d="M458 485h-48l-32 -64v-473q0 -57 -40.5 -85t-101.5 -28q-48 0 -80 11.5t-62 25.5l-24 -57q16 -11 38.5 -19t47 -14t46.5 -9t37 -3q69 0 118 23.5t75 63.5t26 91v537zM401 126q-28 -34 -60 -53t-78 -19q-50 0 -83.5 24.5t-50 68t-16.5 98.5q0 53 17 94.5t51 66.5t83 25
q48 0 79.5 -18.5t59.5 -49.5l24 54q-20 25 -47.5 43t-57.5 28t-56 10q-72 0 -124.5 -32.5t-80.5 -89.5t-28 -132q0 -76 27 -134t79 -90.5t125 -32.5q25 0 55 9t58 28t49 45zM331 737q0 -28 -19.5 -54t-57.5 -26q-39 0 -58.5 26t-19.5 54h-56q0 -36 14 -67.5t43.5 -51
t76.5 -20.5q47 1 77 20.5t44 51t14 67.5h-58z" />
    <glyph glyph-name="Gcommaaccent" unicode="&#x122;" horiz-adv-x="627" 
d="M349 290h150v-216q-23 -8 -52 -14t-64 -6q-73 0 -131.5 34.5t-92 98.5t-33.5 150q0 69 22 123t60.5 90.5t86.5 56t100 19.5q34 0 58 -3.5t44 -10t42 -15.5l25 58q-21 14 -53.5 22.5t-64.5 12.5t-53 4q-74 0 -138 -25.5t-111.5 -73.5t-74 -113.5t-26.5 -145.5
q0 -99 41.5 -178t119 -125.5t180.5 -46.5q34 0 69.5 6t67.5 17t53 24v317h-218zM385 -24q-14 0 -26.5 -8t-20 -19.5t-7.5 -27.5q0 -19 13.5 -35.5t32.5 -17.5q-3 -25 -19 -42.5t-37 -30.5l21 -38q27 13 49 37.5t35 55.5t13 63q0 29 -16 46t-38 17z" />
    <glyph glyph-name="gcommaaccent" unicode="&#x123;" horiz-adv-x="526" 
d="M262 559q16 0 28 8t19.5 21t7.5 27t-6.5 25.5t-17 19.5t-22.5 8q2 25 18.5 42.5t37.5 30.5l-22 38q-26 -13 -48 -38t-35 -55t-13 -62q0 -30 15.5 -47.5t37.5 -17.5zM458 485h-48l-32 -64v-473q0 -57 -40.5 -85t-101.5 -28q-48 0 -80 11.5t-62 25.5l-24 -57
q16 -11 38.5 -19t47 -14t46.5 -9t37 -3q69 0 118 23.5t75 63.5t26 91v537zM401 126q-28 -34 -60 -53t-78 -19q-50 0 -83.5 24.5t-50 68t-16.5 98.5q0 53 17 94.5t51 66.5t83 25q48 0 79.5 -18.5t59.5 -49.5l24 54q-20 25 -47.5 43t-57.5 28t-56 10q-72 0 -124.5 -32.5
t-80.5 -89.5t-28 -132q0 -76 27 -134t79 -90.5t125 -32.5q25 0 55 9t58 28t49 45z" />
    <glyph glyph-name="Imacron" unicode="&#x12a;" horiz-adv-x="264" 
d="M171 0v680h-78v-680h78zM6 783h246l-8 62h-238v-62z" />
    <glyph glyph-name="imacron" unicode="&#x12b;" horiz-adv-x="205" 
d="M143 0v485h-80v-485h80zM-26 633h246l-7 62h-239v-62z" />
    <glyph glyph-name="Iogonek" unicode="&#x12e;" horiz-adv-x="264" 
d="M94 2q-24 -20 -37.5 -52.5t-13.5 -58.5q0 -29 13.5 -52t38 -35.5t55.5 -12.5q26 0 47.5 8t37.5 22l-26 49q-11 -10 -24.5 -15t-26.5 -5q-19 0 -32.5 10.5t-13.5 36.5q0 17 8 36.5t22.5 37.5t28.5 29zM171 0v680h-78v-680h78z" />
    <glyph glyph-name="iogonek" unicode="&#x12f;" horiz-adv-x="205" 
d="M64 2q-24 -20 -37 -52.5t-13 -58.5q0 -29 13.5 -52t38 -35.5t55.5 -12.5q26 0 47.5 8t37.5 22l-26 49q-11 -10 -24.5 -15t-26.5 -5q-19 0 -33 10.5t-14 36.5q0 17 8.5 36.5t23 37.5t29.5 29zM143 0v485h-80v-485h80zM103 612q22 0 37 15.5t15 38.5q0 22 -15 38.5
t-37 16.5q-23 0 -39 -16.5t-16 -38.5t16 -38t39 -16z" />
    <glyph glyph-name="Idotaccent" unicode="&#x130;" horiz-adv-x="264" 
d="M171 0v680h-78v-680h78zM133 762q22 0 37 15.5t15 38.5q0 22 -15 38.5t-37 16.5q-23 0 -39 -16.5t-16 -38.5t16 -38t39 -16z" />
    <glyph glyph-name="dotlessi" unicode="&#x131;" horiz-adv-x="205" 
d="M143 0v485h-80v-485h80z" />
    <glyph glyph-name="Kcommaaccent" unicode="&#x136;" horiz-adv-x="609" 
d="M503 0l-254 327l-78 -81v-246h-78v680h78v-330l328 345l55 -47l-253 -266l298 -382h-96zM332 -21q-14 0 -26.5 -8t-20 -19.5t-7.5 -27.5q0 -19 13.5 -35.5t32.5 -17.5q-3 -25 -19 -42.5t-37 -30.5l21 -38q27 13 49 37.5t35 55.5t13 63q0 29 -16 46t-38 17z" />
    <glyph glyph-name="kcommaaccent" unicode="&#x137;" horiz-adv-x="472" 
d="M151 0v182l68 67l160 -249h93l-200 301l148 146l-48 51l-221 -221v429l-78 -11v-695h78zM264 -21q-14 0 -26.5 -8t-20 -19.5t-7.5 -27.5q0 -19 13.5 -35.5t32.5 -17.5q-3 -25 -19 -42.5t-37 -30.5l21 -38q27 13 49 37.5t35 55.5t13 63q0 29 -16 46t-38 17z" />
    <glyph glyph-name="Lacute" unicode="&#x139;" horiz-adv-x="506" 
d="M488 62h-317v618h-78v-680h403zM171 739l87 156h-86l-54 -141z" />
    <glyph glyph-name="lacute" unicode="&#x13a;" horiz-adv-x="224" 
d="M151 0v685l-78 -12v-673h78zM139 739l87 156h-87l-53 -141z" />
    <glyph glyph-name="Lcommaaccent" unicode="&#x13b;" horiz-adv-x="506" 
d="M488 62h-317v618h-78v-680h403zM312 -21q-14 0 -26.5 -8t-20 -19.5t-7.5 -27.5q0 -19 13.5 -35.5t32.5 -17.5q-3 -25 -19 -42.5t-37 -30.5l21 -38q27 13 49 37.5t35 55.5t13 63q0 29 -16 46t-38 17z" />
    <glyph glyph-name="lcommaaccent" unicode="&#x13c;" horiz-adv-x="224" 
d="M151 0v706l-78 -11v-695h78zM114 -21q-14 0 -26.5 -8t-20 -19.5t-7.5 -27.5q0 -19 13.5 -35.5t32.5 -17.5q-3 -25 -19 -42.5t-37 -30.5l21 -38q27 13 49 37.5t35 55.5t13 63q0 29 -16 46t-38 17z" />
    <glyph glyph-name="Lcaron" unicode="&#x13d;" horiz-adv-x="506" 
d="M488 62h-317v618h-78v-680h403zM397 712q-15 0 -27.5 -8t-20 -20.5t-7.5 -26.5q0 -12 6.5 -24.5t17 -20t22.5 -8.5q-4 -28 -20 -47t-39 -36l21 -37q28 15 51 41t36.5 59t13.5 65q0 28 -16 45.5t-38 17.5z" />
    <glyph glyph-name="lcaron" unicode="&#x13e;" horiz-adv-x="371" 
d="M286 712q-15 0 -27.5 -8t-20 -20.5t-7.5 -26.5q0 -12 6.5 -24.5t16.5 -20t22 -8.5q-2 -28 -18 -47t-40 -36l20 -37q29 15 51.5 41t37 59t14.5 65q0 28 -16.5 45.5t-38.5 17.5zM151 0v706l-78 -11v-695h78z" />
    <glyph glyph-name="Lslash" unicode="&#x141;" horiz-adv-x="501" 
d="M88 0v239l-38 -31l-35 52l73 61v359h78v-294l114 97l36 -51l-150 -126v-244h317l8 -62h-403z" />
    <glyph glyph-name="lslash" unicode="&#x142;" horiz-adv-x="299" 
d="M265 504l-75 -65v267l-80 -11v-321l-110 -93l35 -52l75 65v-294h80v359l109 94z" />
    <glyph glyph-name="Nacute" unicode="&#x143;" horiz-adv-x="700" 
d="M171 0v533l26 -44l347 -489h63v680h-80v-527l-41 67l-331 460h-62v-680h78zM361 739l87 156h-86l-54 -141z" />
    <glyph glyph-name="nacute" unicode="&#x144;" 
d="M141 0v344q24 25 52 44.5t57.5 31.5t53.5 12q50 0 68.5 -32t18.5 -82v-318h79v328q0 50 -16 88.5t-49.5 61t-86.5 22.5q-32 0 -66 -11t-64 -30t-53 -43l-14 69h-58v-485h78zM272 589l87 156h-86l-54 -141z" />
    <glyph glyph-name="Ncommaaccent" unicode="&#x145;" horiz-adv-x="700" 
d="M171 0v533l26 -44l347 -489h63v680h-80v-527l-41 67l-331 460h-62v-680h78zM358 -21q-14 0 -26.5 -8t-20 -19.5t-7.5 -27.5q0 -19 13.5 -35.5t32.5 -17.5q-3 -25 -19 -42.5t-37 -30.5l21 -38q27 13 49 37.5t35 55.5t13 63q0 29 -16 46t-38 17z" />
    <glyph glyph-name="ncommaaccent" unicode="&#x146;" 
d="M141 0v344q24 25 52 44.5t57.5 31.5t53.5 12q50 0 68.5 -32t18.5 -82v-318h79v328q0 50 -16 88.5t-49.5 61t-86.5 22.5q-32 0 -66 -11t-64 -30t-53 -43l-14 69h-58v-485h78zM275 -21q-14 0 -26.5 -8t-20 -19.5t-7.5 -27.5q0 -19 13.5 -35.5t32.5 -17.5q-3 -25 -19 -42.5
t-37 -30.5l21 -38q27 13 49 37.5t35 55.5t13 63q0 29 -16 46t-38 17z" />
    <glyph glyph-name="Ncaron" unicode="&#x147;" horiz-adv-x="700" 
d="M171 0v533l26 -44l347 -489h63v680h-80v-527l-41 67l-331 460h-62v-680h78zM351 797l-74 98l-72 -10l116 -146h63l113 145l-71 11z" />
    <glyph glyph-name="ncaron" unicode="&#x148;" 
d="M141 0v344q24 25 52 44.5t57.5 31.5t53.5 12q50 0 68.5 -32t18.5 -82v-318h79v328q0 50 -16 88.5t-49.5 61t-86.5 22.5q-32 0 -66 -11t-64 -30t-53 -43l-14 69h-58v-485h78zM276 647l-74 98l-72 -10l116 -146h63l113 145l-71 11z" />
    <glyph glyph-name="Omacron" unicode="&#x14c;" horiz-adv-x="725" 
d="M360 -14q-92 0 -164 45t-112.5 124.5t-40.5 181.5t41.5 182.5t114 127.5t165.5 49q92 0 164 -45.5t113 -124.5t41 -181t-41.5 -183t-114 -127.5t-166.5 -48.5zM358 55q70 0 124 37t85 102.5t31 149.5q0 82 -30 146t-82.5 100t-119.5 36q-70 0 -124 -37t-85 -102t-31 -149
q0 -82 30 -146t82 -100.5t120 -36.5zM236 783h246l-8 62h-238v-62z" />
    <glyph glyph-name="omacron" unicode="&#x14d;" horiz-adv-x="536" 
d="M264 -13q-72 -1 -124 32.5t-79.5 91t-27.5 133.5q1 74 29.5 131t82 90t126.5 33t125 -32t80 -89t28 -136q0 -74 -29.5 -131t-83 -90t-127.5 -33zM266 54q50 0 85 25t53.5 67t18.5 94q0 55 -17.5 98t-51 68t-84.5 25q-49 0 -84 -25t-53.5 -67t-19.5 -94q0 -54 17 -97.5
t51.5 -68.5t84.5 -25zM139 633h246l-7 62h-239v-62z" />
    <glyph glyph-name="Ohungarumlaut" unicode="&#x150;" horiz-adv-x="725" 
d="M360 -14q-92 0 -164 45t-112.5 124.5t-40.5 181.5t41.5 182.5t114 127.5t165.5 49q92 0 164 -45.5t113 -124.5t41 -181t-41.5 -183t-114 -127.5t-166.5 -48.5zM358 55q70 0 124 37t85 102.5t31 149.5q0 82 -30 146t-82.5 100t-119.5 36q-70 0 -124 -37t-85 -102t-31 -149
q0 -82 30 -146t82 -100.5t120 -36.5zM298 739l87 156h-86l-54 -141zM451 739l88 156h-87l-54 -141z" />
    <glyph glyph-name="ohungarumlaut" unicode="&#x151;" horiz-adv-x="536" 
d="M264 -13q-72 -1 -124 32.5t-79.5 91t-27.5 133.5q1 74 29.5 131t82 90t126.5 33t125 -32t80 -89t28 -136q0 -74 -29.5 -131t-83 -90t-127.5 -33zM266 54q50 0 85 25t53.5 67t18.5 94q0 55 -17.5 98t-51 68t-84.5 25q-49 0 -84 -25t-53.5 -67t-19.5 -94q0 -54 17 -97.5
t51.5 -68.5t84.5 -25zM205 589l87 156h-86l-54 -141zM358 589l88 156h-87l-54 -141z" />
    <glyph glyph-name="OE" unicode="&#x152;" horiz-adv-x="931" 
d="M533 655q-23 14 -54.5 22.5t-63 12.5t-52.5 4q-74 0 -133.5 -27t-101 -76t-63.5 -114t-22 -141q0 -71 19.5 -134t59 -111.5t98.5 -76.5t137 -28q29 0 62 5t63.5 14t51.5 20l-30 59q-28 -12 -63 -21t-87 -9q-54 0 -96.5 22t-72 61.5t-44.5 90.5t-15 109q0 85 31.5 150
t85 102t120.5 37q34 0 58 -3.5t44.5 -10t42.5 -15.5zM911 0l-9 62h-322v255h245l-9 60h-236v243h302l-9 60h-371v-680h409z" />
    <glyph glyph-name="oe" unicode="&#x153;" horiz-adv-x="793" 
d="M761 230h-352q2 -51 19.5 -91t55 -63t97.5 -23q42 0 76 11.5t73 30.5l25 -58q-23 -13 -50 -24.5t-57 -18t-66 -6.5q-48 0 -87.5 11t-69.5 31q-21 -13 -50.5 -22.5t-58 -15t-49.5 -5.5q-73 0 -125.5 32.5t-80.5 90.5t-28 134q1 75 29.5 132t82.5 89.5t127 32.5
q18 0 45.5 -5t55 -14t48.5 -21q27 19 60.5 29.5t71.5 10.5q74 0 120 -35t67 -94.5t21 -131.5v-7zM411 284h272q-5 44 -20.5 77t-42.5 51.5t-70 18.5q-42 0 -71.5 -18.5t-46 -51.5t-21.5 -77zM113 245q0 -54 17 -97.5t51.5 -68.5t84.5 -25q38 0 63.5 6t47.5 16
q-25 33 -37 75.5t-12 92.5q0 49 12 91.5t35 75.5q-21 8 -45.5 14t-59.5 6q-49 0 -84 -25t-53.5 -67t-19.5 -94z" />
    <glyph glyph-name="Racute" unicode="&#x154;" horiz-adv-x="592" 
d="M278 613q50 0 88 -11.5t60 -40.5t22 -82q0 -51 -25 -80.5t-65 -42.5t-88 -13h-99v270h107zM93 680v-680h78v279h96q17 0 37.5 1t34.5 3l156 -283h87l-173 304q52 22 85.5 65.5t34.5 112.5q0 72 -33 115.5t-90 63t-128 19.5h-185zM289 739l87 156h-86l-54 -141z" />
    <glyph glyph-name="racute" unicode="&#x155;" horiz-adv-x="324" 
d="M141 0v334q22 22 51 42t61.5 33t60.5 13l-19 63q-26 0 -56.5 -13t-58 -31.5t-46.5 -33.5l-24 78h-47v-485h78zM161 589l87 156h-86l-54 -141z" />
    <glyph glyph-name="Rcommaaccent" unicode="&#x156;" horiz-adv-x="592" 
d="M278 613q50 0 88 -11.5t60 -40.5t22 -82q0 -51 -25 -80.5t-65 -42.5t-88 -13h-99v270h107zM93 680v-680h78v279h96q17 0 37.5 1t34.5 3l156 -283h87l-173 304q52 22 85.5 65.5t34.5 112.5q0 72 -33 115.5t-90 63t-128 19.5h-185zM324 -21q-14 0 -26.5 -8t-20 -19.5
t-7.5 -27.5q0 -19 13.5 -35.5t32.5 -17.5q-3 -25 -19 -42.5t-37 -30.5l21 -38q27 13 49 37.5t35 55.5t13 63q0 29 -16 46t-38 17z" />
    <glyph glyph-name="rcommaaccent" unicode="&#x157;" horiz-adv-x="324" 
d="M141 0v334q22 22 51 42t61.5 33t60.5 13l-19 63q-26 0 -56.5 -13t-58 -31.5t-46.5 -33.5l-24 78h-47v-485h78zM105 -21q-14 0 -26.5 -8t-20 -19.5t-7.5 -27.5q0 -19 13.5 -35.5t32.5 -17.5q-3 -25 -19 -42.5t-37 -30.5l21 -38q27 13 49 37.5t35 55.5t13 63q0 29 -16 46
t-38 17z" />
    <glyph glyph-name="Rcaron" unicode="&#x158;" horiz-adv-x="592" 
d="M278 613q50 0 88 -11.5t60 -40.5t22 -82q0 -51 -25 -80.5t-65 -42.5t-88 -13h-99v270h107zM93 680v-680h78v279h96q17 0 37.5 1t34.5 3l156 -283h87l-173 304q52 22 85.5 65.5t34.5 112.5q0 72 -33 115.5t-90 63t-128 19.5h-185zM278 797l-74 98l-72 -10l116 -146h63
l113 145l-71 11z" />
    <glyph glyph-name="rcaron" unicode="&#x159;" horiz-adv-x="324" 
d="M141 0v334q22 22 51 42t61.5 33t60.5 13l-19 63q-26 0 -56.5 -13t-58 -31.5t-46.5 -33.5l-24 78h-47v-485h78zM165 647l-74 98l-72 -10l116 -146h63l113 145l-71 11z" />
    <glyph glyph-name="Sacute" unicode="&#x15a;" horiz-adv-x="513" 
d="M54 33q14 -9 36 -17.5t49 -14.5t53.5 -10t47.5 -4q77 0 130.5 23t82 63t28.5 92q0 37 -12 65.5t-35 51.5t-56 43t-77 39q-59 29 -100 51.5t-61.5 48.5t-20.5 62q0 48 40.5 75t104.5 27q34 0 59.5 -5.5t46 -13.5t37.5 -16l27 61q-32 16 -78 29t-96 13q-67 0 -115.5 -23
t-75 -61t-26.5 -87q0 -35 11.5 -64t34 -53.5t56 -45t77.5 -40.5q59 -24 99 -46.5t60.5 -48.5t20.5 -63q0 -31 -18.5 -56.5t-54.5 -39.5t-90 -14q-31 0 -63 6.5t-58.5 16.5t-45.5 18zM270 739l87 156h-86l-54 -141z" />
    <glyph glyph-name="sacute" unicode="&#x15b;" horiz-adv-x="420" 
d="M38 28q20 -13 48 -22t57.5 -14t49.5 -5q95 0 144.5 37.5t49.5 103.5q0 40 -24 69t-61 50t-77 34q-48 16 -80 35.5t-33 46.5q0 31 28.5 51t73.5 20q42 0 73 -11t55 -23l25 55q-18 13 -46 22.5t-56.5 15t-49.5 5.5q-83 0 -132 -36.5t-49 -101.5q0 -38 24 -65.5t60.5 -46
t74.5 -31.5q33 -11 60 -24.5t43.5 -30.5t16.5 -39t-15 -38.5t-41.5 -25t-62.5 -8.5q-23 0 -46 4.5t-44.5 12t-41.5 16.5zM212 589l87 156h-86l-54 -141z" />
    <glyph glyph-name="Scedilla" unicode="&#x15e;" horiz-adv-x="513" 
d="M54 33q14 -9 36 -17.5t49 -14.5t53.5 -10t47.5 -4q77 0 130.5 23t82 63t28.5 92q0 37 -12 65.5t-35 51.5t-56 43t-77 39q-59 29 -100 51.5t-61.5 48.5t-20.5 62q0 48 40.5 75t104.5 27q34 0 59.5 -5.5t46 -13.5t37.5 -16l27 61q-32 16 -78 29t-96 13q-67 0 -115.5 -23
t-75 -61t-26.5 -87q0 -35 11.5 -64t34 -53.5t56 -45t77.5 -40.5q59 -24 99 -46.5t60.5 -48.5t20.5 -63q0 -31 -18.5 -56.5t-54.5 -39.5t-90 -14q-31 0 -63 6.5t-58.5 16.5t-45.5 18zM176 -79q26 -3 46 -10.5t32 -18t12 -23.5q0 -17 -17 -25.5t-35 -8.5q-15 0 -32.5 5.5
t-27.5 9.5l-19 -50q14 -9 37 -15t42 -6q30 0 56.5 10t43 31t16.5 51q0 18 -10.5 35.5t-28 30t-39.5 15.5l24 61h-63z" />
    <glyph glyph-name="scedilla" unicode="&#x15f;" horiz-adv-x="420" 
d="M38 28q20 -13 48 -22t57.5 -14t49.5 -5q95 0 144.5 37.5t49.5 103.5q0 40 -24 69t-61 50t-77 34q-48 16 -80 35.5t-33 46.5q0 31 28.5 51t73.5 20q42 0 73 -11t55 -23l25 55q-18 13 -46 22.5t-56.5 15t-49.5 5.5q-83 0 -132 -36.5t-49 -101.5q0 -38 24 -65.5t60.5 -46
t74.5 -31.5q33 -11 60 -24.5t43.5 -30.5t16.5 -39t-15 -38.5t-41.5 -25t-62.5 -8.5q-23 0 -46 4.5t-44.5 12t-41.5 16.5zM130 -79q26 -3 46 -10.5t32 -18t12 -23.5q0 -17 -17 -25.5t-35 -8.5q-15 0 -32.5 5.5t-27.5 9.5l-19 -50q14 -9 37 -15t42 -6q30 0 56.5 10t43 31
t16.5 51q0 18 -10.5 35.5t-28 30t-39.5 15.5l24 61h-63z" />
    <glyph glyph-name="Scaron" unicode="&#x160;" horiz-adv-x="513" 
d="M54 33q14 -9 36 -17.5t49 -14.5t53.5 -10t47.5 -4q77 0 130.5 23t82 63t28.5 92q0 37 -12 65.5t-35 51.5t-56 43t-77 39q-59 29 -100 51.5t-61.5 48.5t-20.5 62q0 48 40.5 75t104.5 27q34 0 59.5 -5.5t46 -13.5t37.5 -16l27 61q-32 16 -78 29t-96 13q-67 0 -115.5 -23
t-75 -61t-26.5 -87q0 -35 11.5 -64t34 -53.5t56 -45t77.5 -40.5q59 -24 99 -46.5t60.5 -48.5t20.5 -63q0 -31 -18.5 -56.5t-54.5 -39.5t-90 -14q-31 0 -63 6.5t-58.5 16.5t-45.5 18zM259 797l-74 98l-72 -10l116 -146h63l113 145l-71 11z" />
    <glyph glyph-name="scaron" unicode="&#x161;" horiz-adv-x="420" 
d="M38 28q20 -13 48 -22t57.5 -14t49.5 -5q95 0 144.5 37.5t49.5 103.5q0 40 -24 69t-61 50t-77 34q-48 16 -80 35.5t-33 46.5q0 31 28.5 51t73.5 20q42 0 73 -11t55 -23l25 55q-18 13 -46 22.5t-56.5 15t-49.5 5.5q-83 0 -132 -36.5t-49 -101.5q0 -38 24 -65.5t60.5 -46
t74.5 -31.5q33 -11 60 -24.5t43.5 -30.5t16.5 -39t-15 -38.5t-41.5 -25t-62.5 -8.5q-23 0 -46 4.5t-44.5 12t-41.5 16.5zM215 647l-74 98l-72 -10l116 -146h63l113 145l-71 11z" />
    <glyph glyph-name="Tcedilla" unicode="&#x162;" horiz-adv-x="562" 
d="M543 680h-533v-63h228v-617h80v617h234zM216 -79q26 -3 46 -10.5t32 -18t12 -23.5q0 -17 -17 -25.5t-35 -8.5q-15 0 -32.5 5.5t-27.5 9.5l-19 -50q14 -9 37 -15t42 -6q30 0 56.5 10t43 31t16.5 51q0 18 -10.5 35.5t-28 30t-39.5 15.5l24 61h-63z" />
    <glyph glyph-name="tcedilla" unicode="&#x163;" horiz-adv-x="320" 
d="M254 477h-88v145l-80 -22v-123h-70l1 -60h69v-291q0 -46 17 -77t48 -47.5t72 -16.5q14 0 28 2.5t26 6.5t20 8l-19 62q-7 -3 -19.5 -6.5t-24.5 -3.5q-36 0 -52 23t-16 60v280h113zM128 -79q26 -3 46 -10.5t32 -18t12 -23.5q0 -17 -17 -25.5t-35 -8.5q-15 0 -32.5 5.5
t-27.5 9.5l-19 -50q14 -9 37 -15t42 -6q30 0 56.5 10t43 31t16.5 51q0 18 -10.5 35.5t-28 30t-39.5 15.5l24 61h-63z" />
    <glyph glyph-name="Tcaron" unicode="&#x164;" horiz-adv-x="562" 
d="M543 680h-533v-63h228v-617h80v617h234zM279 797l-74 98l-72 -10l116 -146h63l113 145l-71 11z" />
    <glyph glyph-name="tcaron" unicode="&#x165;" horiz-adv-x="439" 
d="M355 712q-15 0 -27.5 -8t-20 -20.5t-7.5 -26.5q0 -12 6.5 -24.5t17 -20t22.5 -8.5q-4 -28 -20 -47t-39 -36l21 -37q28 15 51 41t36.5 59t13.5 65q0 28 -16 45.5t-38 17.5zM254 477h-88v145l-80 -22v-123h-70l1 -60h69v-291q0 -46 17 -77t48 -47.5t72 -16.5q14 0 28 2.5
t26 6.5t20 8l-19 62q-7 -3 -19.5 -6.5t-24.5 -3.5q-36 0 -52 23t-16 60v280h113z" />
    <glyph glyph-name="Umacron" unicode="&#x16a;" horiz-adv-x="681" 
d="M161 680h-78v-439q0 -72 31.5 -129.5t89.5 -90t137 -32.5q80 0 137.5 33t89 90t31.5 129v439h-80v-430q0 -57 -21.5 -101.5t-61.5 -69.5t-95 -25q-54 0 -94.5 25t-63 69t-22.5 102v430zM214 783h246l-8 62h-238v-62z" />
    <glyph glyph-name="umacron" unicode="&#x16b;" 
d="M387 485v-343q-22 -24 -51 -44.5t-57.5 -32t-54.5 -11.5q-49 0 -68 32t-19 82v317h-78v-328q0 -49 15.5 -88t49.5 -61t87 -22q32 0 65.5 11t64 30.5t52.5 42.5l14 -70h59v485h-79zM129 633h246l-7 62h-239v-62z" />
    <glyph glyph-name="Uring" unicode="&#x16e;" horiz-adv-x="681" 
d="M161 680h-78v-439q0 -72 31.5 -129.5t89.5 -90t137 -32.5q80 0 137.5 33t89 90t31.5 129v439h-80v-430q0 -57 -21.5 -101.5t-61.5 -69.5t-95 -25q-54 0 -94.5 25t-63 69t-22.5 102v430zM341 918q-25 0 -46.5 -11.5t-34.5 -32t-13 -45.5q0 -37 28 -61t65 -24q26 0 47 11
t33.5 30.5t12.5 43.5q0 25 -12.5 45.5t-33.5 32t-46 11.5zM341 788q-18 0 -30.5 12t-12.5 29q0 18 12.5 30.5t30.5 12.5q17 0 29.5 -12t12.5 -31q0 -17 -12.5 -29t-29.5 -12z" />
    <glyph glyph-name="uring" unicode="&#x16f;" 
d="M387 485v-343q-22 -24 -51 -44.5t-57.5 -32t-54.5 -11.5q-49 0 -68 32t-19 82v317h-78v-328q0 -49 15.5 -88t49.5 -61t87 -22q32 0 65.5 11t64 30.5t52.5 42.5l14 -70h59v485h-79zM260 768q-25 0 -46.5 -11.5t-34.5 -32t-13 -45.5q0 -37 28 -61t65 -24q26 0 47 11
t33.5 30.5t12.5 43.5q0 25 -12.5 45.5t-33.5 32t-46 11.5zM260 638q-18 0 -30.5 12t-12.5 29q0 18 12.5 30.5t30.5 12.5q17 0 29.5 -12t12.5 -31q0 -17 -12.5 -29t-29.5 -12z" />
    <glyph glyph-name="Uhungarumlaut" unicode="&#x170;" horiz-adv-x="681" 
d="M161 680h-78v-439q0 -72 31.5 -129.5t89.5 -90t137 -32.5q80 0 137.5 33t89 90t31.5 129v439h-80v-430q0 -57 -21.5 -101.5t-61.5 -69.5t-95 -25q-54 0 -94.5 25t-63 69t-22.5 102v430zM275 739l87 156h-86l-54 -141zM428 739l88 156h-87l-54 -141z" />
    <glyph glyph-name="uhungarumlaut" unicode="&#x171;" 
d="M387 485v-343q-22 -24 -51 -44.5t-57.5 -32t-54.5 -11.5q-49 0 -68 32t-19 82v317h-78v-328q0 -49 15.5 -88t49.5 -61t87 -22q32 0 65.5 11t64 30.5t52.5 42.5l14 -70h59v485h-79zM195 589l87 156h-86l-54 -141zM348 589l88 156h-87l-54 -141z" />
    <glyph glyph-name="Uogonek" unicode="&#x172;" horiz-adv-x="681" 
d="M161 680h-78v-439q0 -72 31.5 -129.5t89.5 -90t137 -32.5q80 0 137.5 33t89 90t31.5 129v439h-80v-430q0 -57 -21.5 -101.5t-61.5 -69.5t-95 -25q-54 0 -94.5 25t-63 69t-22.5 102v430zM309 4q-16 -13 -29 -32.5t-20.5 -39.5t-7.5 -39q0 -29 14 -51.5t38 -35.5t55 -13
q26 0 48 8t38 23l-26 48q-12 -10 -25 -15t-27 -5q-18 0 -32 10.5t-14 36.5q0 17 8.5 36.5t22 37.5t28.5 29z" />
    <glyph glyph-name="uogonek" unicode="&#x173;" 
d="M409 17q-20 -16 -36.5 -37t-25.5 -44t-9 -45q0 -29 14 -52t38 -35.5t55 -12.5q26 0 48 8t38 22l-26 49q-12 -10 -25 -15t-27 -5q-18 0 -32 10.5t-14 36.5q0 17 8.5 36.5t22 37.5t28.5 29zM387 485v-343q-22 -24 -51 -44.5t-57.5 -32t-54.5 -11.5q-49 0 -68 32t-19 82v317
h-78v-328q0 -49 15.5 -88t49 -61t87.5 -22q32 0 65.5 11t64 30.5t52.5 42.5l14 -70h59v485h-79z" />
    <glyph glyph-name="Ydieresis" unicode="&#x178;" horiz-adv-x="563" 
d="M314 0l1 277l238 403h-85l-193 -329l-191 345l-74 -32l225 -391v-273h79zM188 764q21 0 35 14t14 35q0 19 -14 33.5t-35 14.5q-20 0 -34.5 -14.5t-14.5 -33.5q0 -21 14.5 -35t34.5 -14zM353 764q21 0 35 14t14 35q0 19 -14 33.5t-35 14.5q-20 0 -34.5 -14.5t-14.5 -33.5
q0 -21 14.5 -35t34.5 -14z" />
    <glyph glyph-name="Zacute" unicode="&#x179;" horiz-adv-x="562" 
d="M522 62h-413l430 555l-8 63h-481l11 -63h390l-428 -554l8 -63h499zM307 739l87 156h-86l-54 -141z" />
    <glyph glyph-name="zacute" unicode="&#x17a;" horiz-adv-x="433" 
d="M407 485h-362l19 -63h246l-289 -381l10 -41h378l-10 62h-281l293 380zM222 589l87 156h-86l-54 -141z" />
    <glyph glyph-name="Zdotaccent" unicode="&#x17b;" horiz-adv-x="562" 
d="M522 62h-413l430 555l-8 63h-481l11 -63h390l-428 -554l8 -63h499zM297 762q22 0 37 15.5t15 38.5q0 22 -15 38.5t-37 16.5q-23 0 -39 -16.5t-16 -38.5t16 -38t39 -16z" />
    <glyph glyph-name="zdotaccent" unicode="&#x17c;" horiz-adv-x="433" 
d="M407 485h-362l19 -63h246l-289 -381l10 -41h378l-10 62h-281l293 380zM225 612q22 0 37 15.5t15 38.5q0 22 -15 38.5t-37 16.5q-23 0 -39 -16.5t-16 -38.5t16 -38t39 -16z" />
    <glyph glyph-name="Zcaron" unicode="&#x17d;" horiz-adv-x="562" 
d="M522 62h-413l430 555l-8 63h-481l11 -63h390l-428 -554l8 -63h499zM297 797l-74 98l-72 -10l116 -146h63l113 145l-71 11z" />
    <glyph glyph-name="zcaron" unicode="&#x17e;" horiz-adv-x="433" 
d="M407 485h-362l19 -63h246l-289 -381l10 -41h378l-10 62h-281l293 380zM226 647l-74 98l-72 -10l116 -146h63l113 145l-71 11z" />
    <glyph glyph-name="florin" unicode="&#x192;" horiz-adv-x="339" 
d="M57 475l1 -60h72v-342q0 -37 -15.5 -60t-53.5 -23q-9 0 -22 3.5t-21 6.5l-18 -63q8 -4 20 -8t26.5 -6.5t27.5 -2.5q43 0 73 18.5t46 52t16 78.5v346h115l-26 60h-89v73q0 36 15.5 59.5t52.5 23.5q10 0 23 -3.5t21 -6.5l18 63q-7 5 -19 9t-26 6.5t-28 2.5
q-42 0 -72.5 -18.5t-47 -52t-16.5 -79.5v-77h-73z" />
    <glyph glyph-name="Scommaaccent" unicode="&#x218;" horiz-adv-x="513" 
d="M54 33q14 -9 36 -17.5t49 -14.5t53.5 -10t47.5 -4q77 0 130.5 23t82 63t28.5 92q0 37 -12 65.5t-35 51.5t-56 43t-77 39q-59 29 -100 51.5t-61.5 48.5t-20.5 62q0 48 40.5 75t104.5 27q34 0 59.5 -5.5t46 -13.5t37.5 -16l27 61q-32 16 -78 29t-96 13q-67 0 -115.5 -23
t-75 -61t-26.5 -87q0 -35 11.5 -64t34 -53.5t56 -45t77.5 -40.5q59 -24 99 -46.5t60.5 -48.5t20.5 -63q0 -31 -18.5 -56.5t-54.5 -39.5t-90 -14q-31 0 -63 6.5t-58.5 16.5t-45.5 18zM243 -25q-14 0 -26.5 -8t-20 -19.5t-7.5 -27.5q0 -19 13.5 -35.5t32.5 -17.5
q-3 -25 -19 -42.5t-37 -30.5l21 -38q27 13 49 37.5t35 55.5t13 63q0 29 -16 46t-38 17z" />
    <glyph glyph-name="scommaaccent" unicode="&#x219;" horiz-adv-x="420" 
d="M38 28q20 -13 48 -22t57.5 -14t49.5 -5q95 0 144.5 37.5t49.5 103.5q0 40 -24 69t-61 50t-77 34q-48 16 -80 35.5t-33 46.5q0 31 28.5 51t73.5 20q42 0 73 -11t55 -23l25 55q-18 13 -46 22.5t-56.5 15t-49.5 5.5q-83 0 -132 -36.5t-49 -101.5q0 -38 24 -65.5t60.5 -46
t74.5 -31.5q33 -11 60 -24.5t43.5 -30.5t16.5 -39t-15 -38.5t-41.5 -25t-62.5 -8.5q-23 0 -46 4.5t-44.5 12t-41.5 16.5zM197 -25q-14 0 -26.5 -8t-20 -19.5t-7.5 -27.5q0 -19 13.5 -35.5t32.5 -17.5q-3 -25 -19 -42.5t-37 -30.5l21 -38q27 13 49 37.5t35 55.5t13 63
q0 29 -16 46t-38 17z" />
    <glyph glyph-name="Tcommaaccent" unicode="&#x21a;" horiz-adv-x="562" 
d="M543 680h-533v-63h228v-617h80v617h234zM283 -21q-14 0 -26.5 -8t-20 -19.5t-7.5 -27.5q0 -19 13.5 -35.5t32.5 -17.5q-3 -25 -19 -42.5t-37 -30.5l21 -38q27 13 49 37.5t35 55.5t13 63q0 29 -16 46t-38 17z" />
    <glyph glyph-name="tcommaaccent" unicode="&#x21b;" horiz-adv-x="320" 
d="M254 477h-88v145l-80 -22v-123h-70l1 -60h69v-291q0 -46 17 -77t48 -47.5t72 -16.5q14 0 28 2.5t26 6.5t20 8l-19 62q-7 -3 -19.5 -6.5t-24.5 -3.5q-36 0 -52 23t-16 60v280h113zM194 -24q-14 0 -26.5 -8t-20 -19.5t-7.5 -27.5q0 -19 13.5 -35.5t32.5 -17.5
q-3 -25 -19 -42.5t-37 -30.5l21 -38q27 13 49 37.5t35 55.5t13 63q0 29 -16 46t-38 17z" />
    <glyph glyph-name="circumflex" unicode="&#x2c6;" horiz-adv-x="312" 
d="M156 687l74 -98l72 10l-115 146h-63l-114 -146l71 -10z" />
    <glyph glyph-name="caron" unicode="&#x2c7;" horiz-adv-x="312" 
d="M156 647l-74 98l-72 -10l116 -146h63l113 145l-71 11z" />
    <glyph glyph-name="uni02C9" unicode="&#x2c9;" horiz-adv-x="266" 
d="M10 633h246l-8 63h-238v-63z" />
    <glyph glyph-name="breve" unicode="&#x2d8;" horiz-adv-x="289" 
d="M221 737q0 -28 -19.5 -54t-57.5 -26q-39 0 -58.5 26t-19.5 54h-56q0 -36 14 -67.5t43.5 -51t76.5 -20.5q47 1 77 20.5t44 51t14 67.5h-58z" />
    <glyph glyph-name="dotaccent" unicode="&#x2d9;" horiz-adv-x="127" 
d="M65 612q22 0 37 15.5t15 38.5q0 22 -15 38.5t-37 16.5q-23 0 -39 -16.5t-16 -38.5t16 -38t39 -16z" />
    <glyph glyph-name="ring" unicode="&#x2da;" horiz-adv-x="206" 
d="M104 768q-25 0 -46.5 -11.5t-34.5 -32t-13 -45.5q0 -37 28 -61t65 -24q26 0 47 11t33.5 30.5t12.5 43.5q0 25 -12.5 45.5t-33.5 32t-46 11.5zM104 638q-18 0 -30.5 12t-12.5 29q0 18 12.5 30.5t30.5 12.5q17 0 29.5 -12t12.5 -31q0 -17 -12.5 -29t-29.5 -12z" />
    <glyph glyph-name="ogonek" unicode="&#x2db;" horiz-adv-x="213" 
d="M67 4q-16 -13 -29 -32.5t-20.5 -39.5t-7.5 -39q0 -29 14 -51.5t38 -35.5t55 -13q26 0 48 8t38 23l-26 48q-12 -10 -25 -15t-27 -5q-18 0 -32 10.5t-14 36.5q0 17 8.5 36.5t22 37.5t28.5 29z" />
    <glyph glyph-name="tilde" unicode="&#x2dc;" horiz-adv-x="314" 
d="M247 703q-2 -20 -12 -30t-23 -10t-25.5 6t-23.5 16q-11 12 -27 17t-37 5q-24 0 -44 -8.5t-32.5 -30t-12.5 -59.5h55q2 19 13 29.5t24 10.5t25.5 -5.5t25.5 -16.5q12 -11 27 -17t32 -6q25 0 45.5 9.5t32 31t11.5 58.5h-54z" />
    <glyph glyph-name="hungarumlaut" unicode="&#x2dd;" horiz-adv-x="314" 
d="M63 589l87 156h-86l-54 -141zM216 589l88 156h-87l-54 -141z" />
    <glyph glyph-name="pi" unicode="&#x3c0;" horiz-adv-x="594" 
d="M188 0v422h218v-422h79v422h99v63h-574v-63h98v-422h80z" />
    <glyph glyph-name="tm_Anusvara" unicode="&#xb82;" horiz-adv-x="0" 
d="M-1 629q33 0 59 14t42.5 39t16.5 56q0 34 -16.5 59t-42.5 39t-59 14q-30 0 -56.5 -14t-42.5 -39t-16 -59q0 -31 16 -56t42.5 -39t56.5 -14zM0 683q-24 0 -40.5 16t-16.5 40t16.5 40t40.5 16q25 0 41 -16t16 -40t-16 -40t-41 -16z" />
    <glyph glyph-name="tm_Visarga" unicode="&#xb83;" horiz-adv-x="680" 
d="M339 306q32 0 58.5 14t42.5 39t16 56q0 34 -16 59t-42.5 39t-57.5 14t-57.5 -14t-42.5 -39t-16 -58q0 -32 16 -57t42.5 -39t56.5 -14zM340 361q-24 0 -40.5 15.5t-16.5 39.5t16.5 40t41.5 16q24 0 40 -16t16 -40t-16 -39.5t-41 -15.5zM168 -14q32 0 58 14.5t42.5 39.5
t16.5 56q0 33 -16 57.5t-43 39t-58 14.5t-57 -14.5t-42 -39t-16 -57.5q0 -32 16 -56.5t42 -39t57 -14.5zM511 -14q31 0 58 14.5t43 39.5t16 56q0 33 -16.5 57.5t-43 39t-57.5 14.5q-30 0 -57 -14.5t-43 -39t-16 -57.5q0 -32 16 -56.5t42.5 -39t57.5 -14.5zM168 41
q-23 0 -39.5 16t-16.5 40q0 23 16 39.5t41 16.5q24 0 40.5 -16.5t16.5 -40.5t-16.5 -39.5t-41.5 -15.5zM512 41q-25 0 -41 16t-16 40q0 23 16.5 39.5t40.5 16.5t40 -16.5t16 -40.5t-16 -39.5t-40 -15.5z" />
    <glyph glyph-name="tm_A" unicode="&#xb85;" horiz-adv-x="1068" 
d="M975 -126v639h-71v-639h71zM464 531q-70 0 -125.5 -26t-88 -72t-32.5 -104q0 -52 37.5 -85.5t92.5 -34.5q56 -1 92.5 33t37.5 87q1 51 -34 84.5t-90 33.5q-35 0 -61.5 -15.5t-41.5 -42t-15 -60.5h50q0 26 17.5 43.5t45.5 17.5q27 0 44.5 -17.5t17.5 -43.5
q0 -27 -17.5 -44.5t-45.5 -16.5q-27 -1 -44.5 16.5t-17.5 44.5q0 43 23 74t63.5 48.5t91.5 17.5q66 0 113.5 -31.5t73 -85t25.5 -122.5q0 -90 -43 -160.5t-121 -111t-184 -40.5q-65 0 -115 15.5t-77.5 40t-27.5 52.5q0 19 10.5 31t35.5 12h750v56h-752q-59 0 -89 -27.5
t-30 -71.5q0 -48 37.5 -86.5t104 -61t153.5 -22.5q96 0 173.5 27.5t133.5 78t86.5 119t30.5 149.5q0 87 -35.5 155t-100 107t-152.5 39z" />
    <glyph glyph-name="tm_Aa" unicode="&#xb86;" horiz-adv-x="1273" 
d="M938 69h-784q-25 0 -35.5 -12t-10.5 -31q0 -28 27.5 -52.5t77.5 -40t115 -15.5q106 0 184 40.5t121 111t43 160.5q0 69 -25.5 122.5t-73 85t-113.5 31.5q-51 0 -91.5 -17.5t-63.5 -48.5t-23 -74q0 -27 17.5 -44.5t44.5 -16.5q28 -1 45.5 16.5t17.5 44.5q0 26 -17.5 43.5
t-44.5 17.5q-28 0 -45.5 -17.5t-17.5 -43.5h-50q0 34 15 60.5t41.5 42t61.5 15.5q55 0 90 -33.5t34 -84.5q-1 -53 -37.5 -87t-92.5 -33q-55 1 -92.5 34.5t-37.5 85.5q0 58 32.5 104t88 72t125.5 26q88 0 152.5 -39t100 -107t35.5 -155q0 -81 -30.5 -149.5t-86.5 -119
t-133.5 -78t-173.5 -27.5q-87 0 -153.5 22.5t-104 61t-37.5 86.5q0 44 30 71.5t89 27.5h786v-56zM1091 98q52 0 91 -22.5t60 -62.5t21 -92q0 -65 -27 -119t-77.5 -94t-120 -62.5t-152.5 -22.5q-67 0 -118.5 19t-81 52t-29.5 75q0 50 37 82.5t96 32.5h21v-57h-21
q-27 0 -42.5 -16t-15.5 -42q0 -37 43 -60.5t111 -23.5q89 0 157.5 30.5t106.5 84t38 122.5q0 47 -26.5 80.5t-75.5 33.5q-50 0 -80.5 -34.5t-30.5 -87.5v-40h-71v639h71v-463q21 22 51 35t65 13z" />
    <glyph glyph-name="tm_I" unicode="&#xb87;" horiz-adv-x="1042" 
d="M489 531q-70 0 -121.5 -26t-80 -72t-28.5 -104q0 -52 37.5 -85.5t92.5 -34.5q56 -1 92.5 33t37.5 87q1 51 -34 84.5t-90 33.5q-35 0 -61.5 -15.5t-41.5 -42t-15 -60.5h45q0 29 19 47.5t49 18.5t48.5 -18.5t18.5 -47.5t-19 -48t-49 -18q-29 -1 -48 18t-19 48q0 64 45 102
t122 38q69 0 108 -44.5t39 -113.5q0 -66 -26 -130.5t-72 -121.5t-104.5 -101t-124 -69t-129.5 -25q-34 0 -53 13.5t-19 36.5q0 38 25.5 70.5t70.5 56t102 36.5t120 13q55 0 107 -13t93 -36.5t65 -56t24 -70.5q0 -23 -19.5 -36.5t-53.5 -13.5q-70 0 -136 24.5t-124.5 68
t-103 103t-69 130.5t-24.5 150q0 96 45 165t125 106.5t184 37.5q97 0 174 -38t121 -107t44 -162v-490h71v492q0 82 -31 149t-86.5 116t-130.5 75.5t-162 26.5q-93 0 -171.5 -26.5t-136.5 -75t-90 -117t-32 -152.5q0 -88 29.5 -168t80 -147t118 -117.5t145.5 -78t160 -27.5
q66 0 107 31t41 81q0 52 -30 95.5t-81 75.5t-116.5 49.5t-136.5 17.5q-78 0 -149 -17.5t-126 -49.5t-86.5 -75.5t-31.5 -95.5q0 -50 40.5 -81t106.5 -31q63 0 126 20t123 56t110.5 84t89.5 105.5t60.5 119t21.5 124.5q0 64 -27 113.5t-77 78t-118 28.5z" />
    <glyph glyph-name="tm_Ii" unicode="&#xb88;" horiz-adv-x="753" 
d="M93 0v513h641l9 -56h-243v-457h-71v457h-266v-457h-70zM296 176q19 0 33.5 14t14.5 34t-14 34t-34 14q-21 0 -34.5 -14t-13.5 -34t13.5 -34t34.5 -14zM632 176q20 0 34.5 14t14.5 34t-14.5 34t-34.5 14t-33.5 -14t-13.5 -34t13.5 -34t33.5 -14z" />
    <glyph glyph-name="tm_U" unicode="&#xb89;" horiz-adv-x="986" 
d="M976 0h-898v57h898v-57zM53 272q0 40 18 71t50 48.5t72 17.5q45 0 79.5 -17.5t54.5 -49.5t20 -73q0 -42 -20 -74t-55 -50.5t-79 -18.5q-47 0 -83 19t-56.5 52.5t-20.5 76.5q0 74 36.5 132t101.5 91.5t149 33.5t148.5 -33.5t100.5 -91.5t36 -133q0 -77 -36 -137.5
t-102.5 -94.5t-160.5 -34v50q65 0 115.5 28t79 76.5t28.5 111.5q0 57 -26.5 101t-73.5 69.5t-109 25.5q-65 0 -114 -25t-76.5 -69t-27.5 -103q0 -38 25 -63.5t65 -25.5q37 0 61.5 24.5t24.5 61.5t-24.5 61.5t-61.5 24.5q-40 0 -65 -24t-25 -59h-49z" />
    <glyph glyph-name="tm_Uu" unicode="&#xb8a;" horiz-adv-x="1639" 
d="M78 57h228q65 0 115.5 28t79 76.5t28.5 111.5q0 57 -26.5 101t-73.5 69.5t-109 25.5q-65 0 -114 -25t-76.5 -69t-27.5 -103q0 -38 25 -63.5t65 -25.5q37 0 61.5 24.5t24.5 61.5t-24.5 61.5t-61.5 24.5q-40 0 -65 -24t-25 -59h-49q0 40 18 71t50 48.5t72 17.5
q45 0 79.5 -17.5t54.5 -49.5t20 -73q0 -42 -20 -74t-55 -50.5t-79 -18.5q-47 0 -83 19t-56.5 52.5t-20.5 76.5q0 74 36.5 132t101.5 91.5t149 33.5t148.5 -33.5t100.5 -91.5t36 -133q0 -69 -29 -125t-85 -91h1138v-57h-1551v57zM757 301q0 -43 18.5 -77t53.5 -53t86 -19
q33 0 53.5 21t20.5 53t-20.5 52t-53.5 20q-32 0 -53 -19.5t-21 -53.5q0 -31 21 -52t53 -21v-37q-56 0 -93 31.5t-37 79.5q0 57 36.5 92t93.5 35q59 0 98.5 -35.5t39.5 -91.5q0 -37 -18.5 -66t-50.5 -45.5t-73 -16.5q-66 0 -117 26t-80.5 72t-29.5 105q0 65 32.5 116.5
t90.5 81.5t131 30q61 0 109.5 -23t81.5 -63v70h446l8 -56h-129v-342h-71v342h-184v-342h-70v178q0 49 -24.5 88.5t-67.5 62.5t-99 23q-53 0 -93.5 -22t-64 -59.5t-23.5 -84.5z" />
    <glyph glyph-name="tm_E" unicode="&#xb8e;" horiz-adv-x="866" 
d="M668 457v-457h-72v457h-158l12 56h398l8 -56h-188zM128 237q0 -58 22.5 -102.5t68.5 -70t113 -25.5q46 0 75.5 29t29.5 73q0 45 -29.5 74.5t-75.5 29.5q-44 0 -73 -29t-29 -75q0 -44 29 -73t73 -29v-39q-46 0 -83.5 18.5t-58 50.5t-20.5 73q0 47 21 82.5t58 56t83 20.5
q51 0 89.5 -20.5t61 -56t22.5 -83.5q0 -46 -23 -82t-62 -56.5t-91 -20.5q-86 0 -148.5 34t-95 91.5t-32.5 129.5q0 80 36 142.5t108.5 98t182.5 35.5h180v-56h-171q-91 0 -149 -28t-85 -77.5t-27 -114.5z" />
    <glyph glyph-name="tm_Ee" unicode="&#xb8f;" horiz-adv-x="866" 
d="M128 237q0 -44 12.5 -79.5t39.5 -62.5q-5 10 -7.5 22t-2.5 25q0 47 21 82.5t58 56t83 20.5q51 0 89.5 -20.5t61 -56t22.5 -83.5q0 -46 -23 -82t-62 -56.5t-91 -20.5q-86 0 -148.5 34t-95 91.5t-32.5 129.5q0 80 36 142.5t108.5 98t182.5 35.5h468l8 -56h-188v-440
q0 -37 -4.5 -64.5t-19 -46.5t-45.5 -30l-344 -126l-29 52l319 120q23 8 33.5 22t14 35.5t3.5 53.5v424h-207q-91 0 -149 -28t-85 -77.5t-27 -114.5zM230 141q0 -44 29 -73t73 -29q46 0 75.5 29t29.5 73q0 45 -29.5 74.5t-75.5 29.5q-44 0 -73 -29t-29 -75z" />
    <glyph glyph-name="tm_Ai" unicode="&#xb90;" horiz-adv-x="826" 
d="M684 -38q0 25 -9 62t-26 71l72 6q19 -38 28.5 -70.5t9.5 -71.5q0 -47 -23.5 -84t-64 -58.5t-92.5 -21.5q-45 0 -81 15t-60.5 42t-38.5 62v54l39 2v-56q-13 -35 -39 -62t-63.5 -42t-84.5 -15q-58 0 -102.5 23t-70 63t-25.5 92q0 54 26 96t85.5 71t158.5 42l180 24
q67 10 110 31.5t64 52t21 66.5q0 50 -29 81.5t-76 31.5q-36 0 -64 -16.5t-44 -45t-16 -64.5v-69h-71v69q0 54 -38.5 90t-96.5 36q-45 0 -77 -18.5t-49 -49t-17 -67.5q0 -22 15 -35.5t37 -13.5t36 13.5t15 34.5q0 22 -14 36.5t-36 14.5q-23 0 -38 -14t-15 -36l-51 -1
q-1 45 28 73.5t75 28.5q47 0 77.5 -28.5t29.5 -73.5q-1 -44 -31.5 -72.5t-78.5 -28.5q-47 1 -78 31t-31 76q0 54 26 97t72 69t105 26q46 0 81.5 -15t62 -42t44.5 -62v-44h-37v44q26 53 70 86t109 33q54 0 94.5 -22t63 -61.5t22.5 -91.5q0 -51 -28.5 -94.5t-87.5 -74
t-154 -43.5l-180 -24q-73 -9 -115 -29t-60.5 -49.5t-19.5 -68.5q-1 -50 34 -83.5t89 -33.5q38 0 67.5 17t47 45.5t17.5 64.5v69h71v-69q0 -36 16 -64.5t44 -45.5t65 -17q51 0 78 30.5t27 75.5z" />
    <glyph glyph-name="tm_O" unicode="&#xb92;" horiz-adv-x="819" 
d="M406 534q78 0 143 -19t113 -53t74.5 -81t26.5 -102q0 -48 -18 -84.5t-50.5 -56.5t-77.5 -20q-41 0 -72 19.5t-48.5 53.5t-17.5 78h58q1 -39 22.5 -64t57.5 -25q35 0 53 27.5t18 71.5q0 56 -36.5 99.5t-100 68.5t-145.5 25q-84 0 -150 -26t-103 -72t-37 -105
q0 -31 12.5 -56t33.5 -38.5t45 -13.5q27 0 44 17t18 44q0 26 -17 43t-43 17q-28 0 -46 -16.5t-18 -43.5t17.5 -44t44.5 -17v-55q-49 0 -80.5 33t-31.5 83q0 52 32.5 85t84.5 33q54 0 89.5 -33t35.5 -85t-36.5 -86t-93.5 -34q-45 0 -80.5 21.5t-56 59.5t-20.5 86
q0 58 26 106.5t74 84t113 55t143 19.5zM727 -35h-68q-89 0 -138 46t-49 122v136h65v-136q0 -55 31.5 -83.5t90.5 -28.5h68v-56zM412 -157q56 0 90.5 30.5t34.5 76.5v69l67 -19v-50q0 -49 -24 -87t-67.5 -60t-99.5 -22q-59 0 -103 22t-68.5 60t-24.5 87v50h71v-50
q0 -47 34 -77t90 -30z" />
    <glyph glyph-name="tm_Oo" unicode="&#xb93;" horiz-adv-x="819" 
d="M727 21v-56h-68q-14 0 -31 1.5t-27 4.5v-21q0 -49 -26 -87t-71.5 -60t-104.5 -22q-56 0 -100.5 18t-70 49t-25.5 70q0 52 37.5 86t95.5 34h20v-57h-20q-27 0 -43.5 -17.5t-16.5 -45.5q0 -33 35 -54t88 -21q40 0 70 14t47.5 38t17.5 55v50q-30 22 -46 56t-16 77v136h65
q1 -39 22.5 -64t57.5 -25q35 0 53 27.5t18 71.5q0 56 -36.5 100t-100 68.5t-145.5 24.5q-80 0 -143 -23.5t-100.5 -64t-43.5 -91.5q13 17 35 32t57 15q55 0 90.5 -33t35.5 -85t-36.5 -86t-93.5 -34q-45 0 -80.5 21.5t-56 59.5t-20.5 86q0 58 26 106.5t74 84t113 55t143 19.5
t143 -19t113 -53t74.5 -81t26.5 -102q0 -48 -18 -84.5t-50.5 -56.5t-77.5 -20q-24 0 -43.5 7t-36.5 19l1 -20q1 -51 32.5 -77t88.5 -26h68zM145 222q0 -26 17 -43.5t45 -17.5q27 0 44 17t18 44q0 27 -17 43.5t-44 16.5t-45 -16.5t-18 -43.5z" />
    <glyph glyph-name="tm_Au" unicode="&#xb94;" horiz-adv-x="2035" 
d="M406 534q78 0 143 -19t113 -53t74.5 -81t26.5 -102q0 -48 -18 -84.5t-50.5 -56.5t-77.5 -20q-41 0 -72 19.5t-48.5 53.5t-17.5 78h58q1 -39 22.5 -64t57.5 -25q35 0 53 27.5t18 71.5q0 56 -36.5 99.5t-100 68.5t-145.5 25q-84 0 -150 -26t-103 -72t-37 -105
q0 -31 12.5 -56t33.5 -38.5t45 -13.5q27 0 44 17t18 44q0 26 -17 43t-43 17q-28 0 -46 -16.5t-18 -43.5t17.5 -44t44.5 -17v-55q-49 0 -80.5 33t-31.5 83q0 52 32.5 85t84.5 33q54 0 89.5 -33t35.5 -85t-36.5 -86t-93.5 -34q-45 0 -80.5 21.5t-56 59.5t-20.5 86
q0 58 26 106.5t74 84t113 55t143 19.5zM727 -35h-68q-89 0 -138 46t-49 122v136h65v-136q0 -55 31.5 -83.5t90.5 -28.5h68v-56zM412 -157q56 0 90.5 30.5t34.5 76.5v69l67 -19v-50q0 -49 -24 -87t-67.5 -60t-99.5 -22q-59 0 -103 22t-68.5 60t-24.5 87v50h71v-50
q0 -47 34 -77t90 -30zM947 237q0 -58 22.5 -102.5t68.5 -70t113 -25.5q46 0 75.5 29t29.5 73q0 45 -29.5 74.5t-75.5 29.5q-44 0 -73 -29t-29 -75q0 -44 29 -73t73 -29v-39q-46 0 -83.5 18.5t-58 50.5t-20.5 73q0 47 21 82.5t58 56t83 20.5q51 0 89.5 -20.5t61 -56
t22.5 -83.5q0 -46 -23 -82t-62 -56.5t-91 -20.5q-86 0 -148.5 34t-95 91.5t-32.5 129.5q0 86 40 152t113 104t172 38q78 0 143 -33t106 -90v105h572l8 -56h-189v-457h-70v457h-250v-457h-71v228q0 71 -32.5 125t-89 85t-127.5 31q-77 0 -133.5 -30t-86.5 -82.5t-30 -119.5z
" />
    <glyph glyph-name="tm_Ka" unicode="&#xb95;" horiz-adv-x="751" 
d="M477 205q0 -67 -28.5 -117t-81 -78t-126.5 -28q-58 0 -103 20.5t-70 56.5t-25 81q0 71 54.5 114.5t150.5 43.5h266q65 0 110.5 -20.5t69.5 -55.5t24 -82q0 -45 -25.5 -81t-73.5 -56.5t-117 -20.5v57q71 0 106 28t35 73q0 44 -31.5 73t-96.5 29h-265q-65 0 -98.5 -28
t-33.5 -74q0 -41 34 -68.5t89 -27.5q52 0 89 20t56 56.5t19 84.5v252h-170v-194h-72v250h479l9 -56h-174v-252z" />
    <glyph glyph-name="tm_Nga" unicode="&#xb99;" horiz-adv-x="980" 
d="M415 457v-305h-71v305h-181v-457h-70v513h502l9 -56h-189zM887 513v-513h-543v57h473v456h70zM629 195q0 47 -25.5 80t-75.5 33t-81.5 -35t-31.5 -87h-55q0 53 22.5 94t62 65t89.5 24q52 0 90.5 -22.5t58.5 -61t20 -89.5q0 -56 -26.5 -99t-76.5 -66t-120 -23v49
q50 0 83 18t49.5 49.5t16.5 70.5z" />
    <glyph glyph-name="tm_Ca" unicode="&#xb9a;" horiz-adv-x="683" 
d="M477 205q0 -67 -28.5 -117t-81 -78t-126.5 -28q-58 0 -103 20.5t-70 56.5t-25 81q0 71 54.5 114.5t150.5 43.5h394l9 -56h-401q-65 0 -98.5 -28t-33.5 -74q0 -41 34 -68.5t89 -27.5q52 0 89 20t56 56.5t19 84.5v252h-170v-194h-72v250h479l9 -56h-174v-252z" />
    <glyph glyph-name="tm_Ja" unicode="&#xb9c;" horiz-adv-x="826" 
d="M469 274h-71v69q0 54 -38.5 90t-96.5 36q-45 0 -77 -18.5t-49 -49t-17 -67.5q0 -22 15 -35.5t37 -13.5t36 13.5t15 34.5q0 22 -14 36.5t-36 14.5q-23 0 -38 -14t-15 -36l-51 -1q-1 45 28 73.5t75 28.5q47 0 77.5 -28.5t29.5 -73.5q-1 -44 -31.5 -72.5t-78.5 -28.5
q-47 1 -78 31t-31 76q0 54 26 97t72 69t105 26q46 0 81.5 -15t62 -42t44.5 -62v-44h-37v44q26 53 70 86t109 33q54 0 94.5 -22t63 -61.5t22.5 -91.5q0 -51 -28.5 -94.5t-87.5 -74t-154 -43.5l-180 -24q-73 -9 -115 -29t-60.5 -49.5t-19.5 -68.5q-1 -50 29 -83.5t84 -33.5
q41 0 76.5 22.5t69.5 55.5t70 66.5t76.5 56t89.5 22.5q46 0 79.5 -17.5t52 -49.5t18.5 -73q0 -40 -23 -72t-62.5 -50.5t-90.5 -18.5h-112v57h112q46 0 73.5 24t27.5 60q0 34 -18.5 56.5t-56.5 22.5q-33 0 -62.5 -16t-57 -41.5t-55.5 -54t-59.5 -53.5t-67.5 -41.5t-80 -16.5
q-57 0 -99.5 23t-65.5 63t-23 92q0 54 26 96t85.5 71t158.5 42l180 24q67 10 110 31.5t64 52t21 66.5q0 50 -29 81.5t-76 31.5q-36 0 -64 -16.5t-44 -45t-16 -64.5v-69z" />
    <glyph glyph-name="tm_Nya" unicode="&#xb9e;" horiz-adv-x="1233" 
d="M370 237q0 -57 23 -102t68.5 -70.5t114.5 -25.5q45 0 74 29t29 73q0 45 -29 74.5t-74 29.5t-74.5 -29.5t-29.5 -73.5q0 -45 29.5 -74t74.5 -29v-39q-48 0 -85 18.5t-58 50.5t-21 73q0 47 21 82.5t58 56t85 20.5q50 0 88.5 -20.5t60.5 -56.5t22 -83q0 -45 -22.5 -81.5
t-61.5 -57t-90 -20.5q-88 0 -150 34t-95 91.5t-33 129.5q0 80 36 142.5t109 98t182 35.5h117v-56h-108q-90 0 -148 -28t-85.5 -77.5t-27.5 -114.5zM999 354q60 0 100.5 -29.5t61 -79.5t20.5 -113q0 -91 -37.5 -163t-108 -122t-168.5 -76.5t-218 -26.5q-130 0 -236.5 29.5
t-183 86.5t-116.5 138t-40 182q0 64 18.5 128t51.5 120t75 95l72 -10q-40 -34 -72.5 -87.5t-51 -117t-18.5 -130.5q0 -88 35 -156.5t101 -116.5t158 -73.5t207 -25.5q138 0 240.5 38t159.5 111t57 177q0 45 -10.5 81t-34.5 58t-64 22q-49 0 -81.5 -37.5t-32.5 -93.5v-162
h-70v457h-105l-1 56h357l8 -56h-189v-153q22 23 51.5 36.5t64.5 13.5z" />
    <glyph glyph-name="tm_Tta" unicode="&#xb9f;" horiz-adv-x="720" 
d="M702 57h-539v461l-70 -5v-513h617z" />
    <glyph glyph-name="tm_Nna" unicode="&#xba3;" horiz-adv-x="1697" 
d="M1428 0v457h-98q-66 0 -121.5 -21t-95 -59.5t-60.5 -90t-21 -112.5q0 -57 22.5 -93.5t65.5 -36.5q44 0 66.5 36.5t22.5 93.5q0 64 -21.5 118t-60 93.5t-90.5 61.5t-113 22q-87 0 -151.5 -39t-99 -106t-34.5 -150q0 -57 23 -93.5t65 -36.5q45 0 67.5 36.5t22.5 93.5
q0 64 -26.5 118t-74.5 93.5t-114 61.5t-147 22q-99 0 -172.5 -31.5t-114 -85.5t-40.5 -124q0 -55 22.5 -98t68 -67t113.5 -24q46 0 75.5 29t29.5 73q0 45 -29.5 74.5t-75.5 29.5q-44 0 -73 -29.5t-29 -73.5q0 -45 29 -74t73 -29v-39q-46 0 -83 18.5t-58 50.5t-21 73
q0 47 21 82.5t58 56t83 20.5q50 0 89 -20.5t61.5 -56.5t22.5 -83q0 -45 -23 -81.5t-62.5 -57t-90.5 -20.5q-86 0 -148.5 32t-95 88.5t-32.5 125.5q0 88 49.5 156t140.5 107.5t212 39.5q95 0 175 -27.5t138.5 -76t91 -113.5t32.5 -140q0 -56 -19.5 -99.5t-56.5 -68t-89 -24.5
q-50 0 -87 24.5t-56.5 68t-19.5 99.5q0 75 25.5 140t74 113.5t114.5 76t146 27.5q77 0 143 -26.5t114.5 -74.5t75.5 -113.5t27 -142.5q0 -56 -20 -99.5t-56 -68t-88 -24.5q-50 0 -87 24.5t-56.5 68t-19.5 99.5q0 71 27.5 132.5t77.5 108t118.5 72.5t149.5 26h349l8 -56h-189
v-457h-70z" />
    <glyph glyph-name="tm_Ta" unicode="&#xba4;" horiz-adv-x="766" 
d="M503 242h-253q-65 0 -98.5 -28t-33.5 -74q0 -41 34 -68.5t89 -27.5q52 0 89 20t56 56.5t19 84.5v252h-170v-194h-72v250h479l9 -56h-174v-252q0 -67 -28.5 -117t-81 -78t-126.5 -28q-58 0 -103 20.5t-70 56.5t-25 81q0 71 54.5 114.5t150.5 43.5h254q67 0 116.5 -28.5
t77 -79t27.5 -115.5q0 -71 -35.5 -126.5t-99.5 -87.5t-150 -32h-177q-63 0 -101 -19.5t-60 -53.5l-57 32q23 43 77 70.5t135 27.5h183q64 0 111.5 24.5t73 67t25.5 97.5q0 49 -18 86.5t-50.5 59t-76.5 21.5z" />
    <glyph glyph-name="tm_Na" unicode="&#xba8;" horiz-adv-x="765" 
d="M531 354q58 0 98.5 -30t62 -82t21.5 -120q0 -85 -31.5 -151t-90.5 -103.5t-143 -37.5h-136q-64 0 -102 -20t-60 -53l-57 32q23 42 77 69.5t135 27.5h143q61 0 103.5 30.5t64.5 84t22 121.5q0 74 -26.5 122.5t-82.5 48.5q-49 0 -81.5 -37.5t-32.5 -93.5v-162h-71v457h-181
v-457h-70v513h502l9 -56h-189v-153q21 23 50.5 36.5t65.5 13.5z" />
    <glyph glyph-name="tm_Nnna" unicode="&#xba9;" horiz-adv-x="1304" 
d="M1035 0v457h-98q-66 0 -121 -21t-94.5 -59.5t-61 -90t-21.5 -112.5q0 -57 22.5 -93.5t65.5 -36.5q45 0 67.5 36.5t22.5 93.5q0 64 -26.5 118t-74.5 93.5t-114 61.5t-147 22q-100 0 -173 -31.5t-113.5 -86t-40.5 -123.5q0 -55 22.5 -98t68 -67t113.5 -24q46 0 75.5 29
t29.5 73q0 45 -29.5 74.5t-75.5 29.5q-44 0 -73 -29t-29 -75q0 -44 29 -73t73 -29v-39q-46 0 -83 18.5t-58 50.5t-21 73q0 47 21 82.5t58 56t83 20.5q51 0 89.5 -20.5t61 -56.5t22.5 -83q0 -45 -23 -81.5t-62.5 -57t-90.5 -20.5q-86 0 -148.5 32t-95 88t-32.5 126
q0 88 50 156t140.5 107.5t211.5 39.5q95 0 175 -27.5t138.5 -76t91 -113.5t32.5 -140q0 -56 -19.5 -99.5t-56.5 -68t-88 -24.5t-88 24.5t-56.5 68t-19.5 99.5q0 71 27.5 132.5t77.5 108t118.5 72.5t149.5 26h350l7 -56h-187v-457h-72z" />
    <glyph glyph-name="tm_Pa" unicode="&#xbaa;" horiz-adv-x="717" 
d="M625 513v-513h-532v513l70 5v-461h391v456h71z" />
    <glyph glyph-name="tm_Ma" unicode="&#xbae;" horiz-adv-x="829" 
d="M163 57v461l-70 -5v-513h472q73 0 119 30t69.5 82t23.5 119q0 87 -26 155t-75.5 106.5t-122.5 38.5q-52 0 -92 -22t-62.5 -65.5t-22.5 -109.5v-324l71 9v317q0 70 30 101.5t79 31.5q48 0 80.5 -31t49 -84.5t16.5 -122.5q0 -50 -13.5 -89.5t-44 -62t-79.5 -22.5h-402z" />
    <glyph glyph-name="tm_Ya" unicode="&#xbaf;" horiz-adv-x="925" 
d="M832 513v-513h-438v513h71v-456h296v456h71zM83 513l70 5v-329q0 -79 30.5 -112t82.5 -33q65 0 96.5 45t31.5 114h51q0 -63 -22 -113t-62 -79t-95 -29t-96.5 22.5t-64 68.5t-22.5 116v324z" />
    <glyph glyph-name="tm_Ra" unicode="&#xbb0;" horiz-adv-x="683" 
d="M673 457h-189v-440q0 -37 -4 -62.5t-18.5 -44t-45.5 -34.5l-254 -126l-28 58l228 114q23 11 33.5 24.5t14 34t3.5 52.5v424h-250v-457h-70v513h571z" />
    <glyph glyph-name="tm_Rra" unicode="&#xbb1;" horiz-adv-x="824" 
d="M555 531q74 0 121.5 -38.5t71 -106.5t23.5 -155q0 -117 -38 -207.5t-112.5 -142t-182.5 -51.5h-136q-64 0 -102 -20t-60 -53l-57 32q22 42 76.5 69.5t135.5 27.5h143q86 0 143.5 44.5t86.5 123t29 177.5q0 69 -14 122.5t-44.5 84.5t-81.5 31q-30 0 -56 -14t-42.5 -43
t-16.5 -76v-336h-71v312q0 47 -12.5 82t-37.5 55t-65 20q-52 0 -77.5 -36t-25.5 -109v-324h-70v324q0 67 19.5 113t59 70t94.5 24q49 0 86 -24t60 -65q23 41 63 65t90 24z" />
    <glyph glyph-name="tm_La" unicode="&#xbb2;" horiz-adv-x="1021" 
d="M812 513l72 14q30 -49 48.5 -102t27.5 -102.5t9 -88.5q0 -77 -21.5 -133.5t-64.5 -87.5t-108 -31q-62 0 -104 27t-63 77.5t-21 122.5v48q0 66 -27 113.5t-76.5 72.5t-118.5 25q-74 0 -127 -29.5t-81.5 -81t-28.5 -118.5q0 -57 22.5 -102.5t68.5 -71.5t113 -26
q46 0 75.5 29t29.5 73q0 45 -29.5 74.5t-75.5 29.5q-44 0 -73 -29t-29 -75q0 -44 29 -73t73 -29v-39q-46 0 -83 18.5t-57.5 50.5t-20.5 73q0 47 21 82.5t57.5 56t82.5 20.5q51 0 89.5 -20.5t61 -56.5t22.5 -83q0 -45 -23 -81.5t-62.5 -57t-90.5 -20.5q-86 0 -148.5 34.5
t-95 92.5t-32.5 130q0 83 37.5 149t108 104.5t166.5 38.5q89 0 154.5 -33.5t102 -94.5t36.5 -146v-48q0 -80 28 -122t90 -42q65 0 91.5 51.5t26.5 136.5q0 38 -8.5 88t-26.5 101t-47 91z" />
    <glyph glyph-name="tm_Lla" unicode="&#xbb3;" horiz-adv-x="1217" 
d="M128 237q0 -58 22.5 -102.5t68.5 -70t113 -25.5q46 0 75.5 29t29.5 73q0 45 -29.5 74.5t-75.5 29.5q-44 0 -73 -29t-29 -75q0 -44 29 -73t73 -29v-39q-46 0 -83.5 18.5t-58 50.5t-20.5 73q0 47 21 82.5t58 56t83 20.5q51 0 89.5 -20.5t61 -56t22.5 -83.5q0 -46 -23 -82
t-62 -56.5t-91 -20.5q-86 0 -148.5 34t-95 91.5t-32.5 129.5q0 86 40 152t113 104t172 38q78 0 143 -33t106 -90v105h572l8 -56h-189v-457h-70v457h-250v-457h-71v228q0 71 -32.5 125t-89 85t-127.5 31q-77 0 -133.5 -30t-86.5 -82.5t-30 -119.5z" />
    <glyph glyph-name="tm_Llla" unicode="&#xbb4;" horiz-adv-x="829" 
d="M447 31l-71 -21v-51q0 -40 13.5 -70.5t48.5 -45.5q-18 -41 -53 -62t-81 -21q-52 0 -83.5 29.5t-31.5 74.5h-72q0 -48 23.5 -86t66 -59t98.5 -21q45 0 86 16.5t71.5 46t44.5 68.5h174l-7 56h-163q-31 0 -47.5 18t-16.5 59v69zM163 57v461l-70 -5v-513h472q73 0 119 30
t69.5 82t23.5 119q0 87 -26 155t-75.5 106.5t-122.5 38.5q-52 0 -92 -22t-62.5 -65.5t-22.5 -109.5v-324l71 9v317q0 70 30 101.5t79 31.5q48 0 80.5 -31t49 -84.5t16.5 -122.5q0 -50 -13.5 -89.5t-44 -62t-79.5 -22.5h-402z" />
    <glyph glyph-name="tm_Va" unicode="&#xbb5;" horiz-adv-x="1032" 
d="M622 255q0 62 -29.5 110t-83 76t-126.5 28q-79 0 -137 -30t-88 -82.5t-30 -119.5q0 -58 22.5 -102.5t68.5 -70t113 -25.5q46 0 75.5 29t29.5 73q0 45 -29.5 74.5t-75.5 29.5q-44 0 -73 -29t-29 -75q0 -44 29 -73t73 -29v-39q-46 0 -83 18.5t-58 50.5t-21 73q0 47 21 82.5
t58 56t83 20.5q51 0 89.5 -20.5t61 -56.5t22.5 -83q0 -45 -23 -81.5t-62.5 -57t-90.5 -20.5q-86 0 -148.5 34t-95 91.5t-32.5 129.5q0 86 40 152t114.5 104t175.5 38q93 0 163.5 -35.5t110.5 -98t40 -142.5q0 -56 -16.5 -107.5t-45.5 -90.5h234v456h71v-513h-388v57
q30 37 50 87t20 111z" />
    <glyph glyph-name="tm_Sha" unicode="&#xbb6;" horiz-adv-x="1049" 
d="M785 513q72 0 119 -30t69.5 -82t22.5 -119q0 -87 -25.5 -154.5t-75.5 -106.5t-122 -39q-52 0 -92 22t-63 66t-23 109v278h-145v-268q0 -70 -24 -116t-65.5 -68.5t-95.5 -22.5q-53 0 -94.5 22.5t-64.5 68.5t-23 116v324l70 5v-329q0 -79 31.5 -112t80.5 -33q51 0 82.5 33
t31.5 112v324h406zM775 44q49 0 81 31t48.5 84.5t16.5 122.5q0 51 -13.5 90.5t-43.5 62t-79 22.5h-118v-280q0 -70 30 -101.5t78 -31.5z" />
    <glyph glyph-name="tm_Ssa" unicode="&#xbb7;" horiz-adv-x="1370" 
d="M1286 457v-457h-734v57h662v400h72zM913 531q51 0 88.5 -20.5t58 -56.5t20.5 -85v-612h-72v607q0 48 -24.5 76.5t-70.5 28.5q-45 0 -70 -28.5t-25 -71.5q0 -46 34.5 -77t92.5 -31q62 0 113 27.5t90.5 72.5t65.5 96l62 -13q-28 -69 -74.5 -124.5t-110 -88t-146.5 -32.5
q-59 0 -104.5 22.5t-71 60.5t-26.5 87q0 47 21 83.5t59 57.5t90 21zM383 531q93 0 163.5 -35.5t110.5 -98t40 -142.5q0 -67 -23.5 -127.5t-61.5 -101.5l-60 31q30 37 50 87t20 111q0 62 -30 110t-83.5 76t-125.5 28q-79 0 -137 -30t-88 -82.5t-30 -119.5q0 -57 22.5 -102
t68.5 -70.5t113 -25.5q46 0 75.5 29t29.5 73q0 45 -29.5 74.5t-75.5 29.5q-44 0 -73 -29.5t-29 -73.5q0 -45 29 -74t73 -29v-39q-46 0 -83 18.5t-58 50.5t-21 73q0 47 21 82.5t58 56t83 20.5q50 0 89 -20.5t61.5 -56.5t22.5 -83q0 -45 -23 -81.5t-62.5 -57t-90.5 -20.5
q-86 0 -148.5 34t-95 91.5t-32.5 129.5q0 86 40 152t114.5 104t175.5 38z" />
    <glyph glyph-name="tm_Sa" unicode="&#xbb8;" horiz-adv-x="1311" 
d="M587 0v257q0 66 -27 113.5t-76.5 72.5t-118.5 25q-74 0 -127 -29.5t-81.5 -81.5t-28.5 -118q0 -57 22.5 -102.5t68.5 -71.5t113 -26q46 0 75.5 29t29.5 73q0 45 -29.5 74.5t-75.5 29.5q-44 0 -73 -29.5t-29 -73.5q0 -45 29 -74t73 -29v-39q-46 0 -82.5 18.5t-57.5 50.5
t-21 73q0 47 21 82.5t57.5 56t82.5 20.5q50 0 89 -20.5t61.5 -56.5t22.5 -83q0 -45 -23 -81.5t-62.5 -57t-90.5 -20.5q-86 0 -148.5 34.5t-95 92.5t-32.5 130q0 83 37.5 149t108 104.5t166.5 38.5q88 0 154.5 -33t100.5 -94q21 58 61 92.5t99 34.5q57 0 94 -25.5t55.5 -70.5
t18.5 -102v-124q0 -80 28.5 -122t88.5 -42q65 0 92 51.5t27 136.5q0 38 -8.5 88t-26.5 101t-47 91l72 14q30 -49 48.5 -102t27.5 -102.5t9 -88.5q0 -77 -21.5 -133.5t-64 -87.5t-109.5 -31q-62 0 -103.5 27t-63 77.5t-21.5 122.5v122q0 60 -21 98t-75 38q-39 0 -66.5 -27
t-41.5 -74.5t-14 -108.5v-257h-71z" />
    <glyph glyph-name="tm_Ha" unicode="&#xbb9;" horiz-adv-x="1579" 
d="M552 0v57q30 37 50 87t20 111q0 62 -30 110t-83.5 76t-125.5 28q-79 0 -137 -30t-88 -82.5t-30 -119.5q0 -57 22.5 -102t68.5 -70.5t113 -25.5q46 0 75.5 29t29.5 73q0 45 -29.5 74.5t-75.5 29.5q-44 0 -73 -29.5t-29 -73.5q0 -45 29 -74t73 -29v-39q-46 0 -83 18.5
t-58 50.5t-21 73q0 47 21 82.5t58 56t83 20.5q50 0 89 -20.5t61.5 -56.5t22.5 -83q0 -45 -23 -81.5t-62.5 -57t-90.5 -20.5q-86 0 -148.5 34t-95 91.5t-32.5 129.5q0 86 40 152t114.5 104t175.5 38q93 0 163.5 -35.5t110.5 -98t40 -142.5q0 -56 -16.5 -107t-44.5 -91h201
v267q0 67 20.5 113t59.5 70t95 24q48 0 84 -22.5t58 -61.5q23 41 63 62.5t89 21.5q73 0 122 -38.5t73.5 -106.5t24.5 -155q0 -117 -38 -207.5t-112.5 -142t-182.5 -51.5h-921q-64 0 -102 -20t-60 -53l-57 32q23 42 76.5 69.5t134.5 27.5h929q86 0 143.5 44.5t86.5 123
t29 177.5q0 69 -15 122.5t-46.5 84t-82.5 30.5q-48 0 -79.5 -31t-31.5 -101v-336h-71v312q0 46 -12.5 81t-38 55.5t-63.5 20.5q-53 0 -78 -36t-25 -109v-324h-357z" />
    <glyph glyph-name="tm_VowelAa" unicode="&#xbbe;" horiz-adv-x="663" 
d="M464 457v-457h-71v457h-230v-457h-70v513h551l9 -56h-189z" />
    <glyph glyph-name="tm_VowelI" unicode="&#xbbf;" horiz-adv-x="255" 
d="M-140 797q92 0 160.5 -38t105.5 -104t37 -152v-503h-70v503q0 68 -28.5 120.5t-80.5 82.5t-124 30q-76 0 -117.5 -31.5t-41.5 -82.5q0 -47 28 -78t91 -31h39v-54h-39q-62 0 -105 22t-65 59t-23 82q0 51 28.5 90.5t81 62t123.5 22.5z" />
    <glyph glyph-name="tm_VowelIi" unicode="&#xbc0;" horiz-adv-x="0" 
d="M-155 878q60 0 109 -26t78.5 -69t29.5 -92t-31 -80.5t-78 -31.5t-77.5 28t-32.5 70q-1 46 29 75t78 29q46 0 75.5 -28.5t29.5 -73.5l-53 1q0 20 -14 34t-35 14t-35 -13.5t-14 -34.5t14 -35t36 -14q20 0 34 14t14 35q0 41 -19.5 71t-55 47.5t-82.5 17.5q-46 0 -81.5 -19.5
t-55.5 -53t-20 -77.5q0 -45 16.5 -79.5t45.5 -54t67 -19.5v-54q-59 0 -105.5 26.5t-72.5 73.5t-26 107q0 61 30 109t82 75.5t120 27.5z" />
    <glyph glyph-name="tm_VowelU" unicode="&#xbc1;" horiz-adv-x="471" 
d="M265 457h-428v56h426q51 0 90.5 -20.5t62.5 -56.5t23 -82q0 -47 -23 -83t-61.5 -56.5t-89.5 -20.5q-49 0 -88 20.5t-61 56.5t-22 82q0 45 21.5 80t60.5 55.5t89 20.5v-52q-45 0 -74 -29t-29 -74t29 -74.5t74 -29.5t73.5 29.5t28.5 74.5t-28.5 74t-73.5 29z" />
    <glyph glyph-name="tm_VowelUu" unicode="&#xbc2;" horiz-adv-x="666" 
d="M368 612q77 0 136.5 -33.5t94 -92.5t34.5 -134q0 -78 -39.5 -139.5t-108 -97t-156.5 -35.5h-58v57h58q67 0 118.5 27.5t81 76.5t29.5 111q0 58 -25 103t-67.5 71t-97.5 26q-40 0 -72.5 -10t-57.5 -29h30q51 0 89.5 -20.5t59.5 -56.5t21 -82t-21.5 -82t-59.5 -55.5
t-87 -19.5q-50 0 -88.5 21.5t-60.5 59.5t-22 86q0 26 4.5 49t13.5 44h-281v56h312q35 46 92 72.5t128 26.5zM367 354q0 45 -28 74t-79 29h-73q-10 -20 -16 -43.5t-6 -49.5q0 -47 29.5 -79.5t75.5 -32.5q42 0 69.5 28t27.5 74z" />
    <glyph glyph-name="tm_VowelE" unicode="&#xbc6;" horiz-adv-x="786" 
d="M694 345v-345h-71v345q0 84 -28.5 144t-81.5 92t-129 32q-80 0 -137.5 -38.5t-88 -105t-30.5 -151.5q0 -83 24.5 -146t70.5 -98t109 -35q46 0 75.5 29t29.5 73q0 45 -29.5 74.5t-75.5 29.5q-44 0 -73 -29t-29 -75q0 -44 29 -73t73 -29v-39q-46 0 -83.5 18.5t-58 50.5
t-20.5 73q0 47 21 82.5t58 56t83 20.5q51 0 89.5 -20.5t61 -56t22.5 -83.5q0 -46 -23 -82t-62 -56.5t-91 -20.5q-79 0 -142 43t-98.5 118.5t-35.5 174.5q0 104 40 184.5t114.5 126.5t175.5 46q97 0 167 -40t107 -114t37 -176z" />
    <glyph glyph-name="tm_VowelEe" unicode="&#xbc7;" horiz-adv-x="672" 
d="M128 329q0 -81 30.5 -145.5t87.5 -102.5t135 -41q59 -2 93.5 5t51 21.5t21.5 33.5t5 39q0 35 -22.5 58t-56.5 23q-35 0 -58 -23t-23 -58q0 -34 23 -56.5t58 -22.5q34 0 56.5 22.5t22.5 56.5l48 -12l-42 -70l-72 -45h-14q-63 0 -104.5 36t-41.5 91q0 41 18.5 72.5
t51.5 49.5t74 18q44 0 77 -18t52.5 -49.5t19.5 -72.5q0 -44 -26 -80t-75.5 -56.5t-121.5 -20.5q-80 0 -143.5 25.5t-108 73t-68 110.5t-23.5 138t23.5 137.5t68 110t108 73t143.5 25.5q72 0 121.5 -20.5t75.5 -56t26 -80.5q0 -40 -19.5 -72t-52.5 -50t-77 -18q-41 0 -74 18
t-52 50t-19 72q0 37 19.5 65.5t52.5 45t75 16.5h14l72 -45l42 -70l-48 -12q0 34 -22.5 56.5t-56.5 22.5q-35 0 -58 -22.5t-23 -56.5q0 -35 23 -58t57 -23q35 0 57.5 23t22.5 58q0 21 -5 39.5t-21.5 32.5t-51 21t-93.5 6q-78 -2 -135 -40.5t-87.5 -102.5t-30.5 -145z" />
    <glyph glyph-name="tm_VowelAi" unicode="&#xbc8;" horiz-adv-x="1221" 
d="M904 469q-58 0 -106.5 -22t-84 -61.5t-55 -93.5t-19.5 -118q0 -57 23 -93.5t65 -36.5q45 0 67.5 36.5t22.5 93.5q0 64 -26.5 118t-74.5 93.5t-114 61.5t-147 22q-100 0 -173 -31.5t-113.5 -86t-40.5 -123.5q0 -55 22.5 -98t68 -67t113.5 -24q46 0 75.5 29t29.5 73
q0 45 -29.5 74.5t-75.5 29.5q-44 0 -73 -29t-29 -75q0 -44 29 -73t73 -29v-39q-46 0 -83 18.5t-58 50.5t-21 73q0 47 21 82.5t58 56t83 20.5q51 0 89.5 -20.5t61 -56.5t22.5 -83q0 -45 -23 -81.5t-62.5 -57t-90.5 -20.5q-86 0 -148.5 32t-95 88t-32.5 126q0 88 50 156
t140.5 107.5t211.5 39.5q95 0 175 -27.5t138.5 -76t91 -113.5t32.5 -140q0 -56 -19.5 -99.5t-56.5 -68t-89 -24.5q-50 0 -87 24.5t-56.5 68t-19.5 99.5q0 76 27.5 141t74.5 113.5t108.5 75.5t129.5 27q86 0 144.5 -33.5t89 -92.5t30.5 -135q0 -58 -20 -134t-65 -150l-72 14
q29 41 47 89.5t26.5 96t8.5 85.5q0 57 -20.5 101.5t-63 70.5t-105.5 26z" />
    <glyph glyph-name="tm_VowelO" unicode="&#xbca;" horiz-adv-x="1937" 
d="M694 345v-345h-71v345q0 84 -28.5 144t-81.5 92t-129 32q-80 0 -137.5 -38.5t-88 -105t-30.5 -151.5q0 -83 24.5 -146t70.5 -98t109 -35q46 0 75.5 29t29.5 73q0 45 -29.5 74.5t-75.5 29.5q-44 0 -73 -29t-29 -75q0 -44 29 -73t73 -29v-39q-46 0 -83.5 18.5t-58 50.5
t-20.5 73q0 47 21 82.5t58 56t83 20.5q51 0 89.5 -20.5t61 -56t22.5 -83.5q0 -46 -23 -82t-62 -56.5t-91 -20.5q-79 0 -142 43t-98.5 118.5t-35.5 174.5q0 104 40 184.5t114.5 126.5t175.5 46q97 0 167 -40t107 -114t37 -176zM1723 457v-457h-71v457h-230v-457h-70v513h551
l9 -56h-189zM1022 459q13 0 21 8t8 21t-8 21.5t-21 8.5t-21 -8.5t-8 -21.5t8 -21t21 -8zM1112 444q13 0 21 8t8 21t-8 21t-21 8t-21 -8t-8 -21q0 -29 29 -29zM933 502q-13 0 -21 -8t-8 -21t8 -21t21 -8t21 8t8 21t-8 21t-21 8zM1188 393q13 0 21.5 8t8.5 21t-8.5 21.5
t-21.5 8.5t-21 -8.5t-8 -21.5t8 -21t21 -8zM857 452q-13 0 -21.5 -8.5t-8.5 -21.5t8.5 -21t21.5 -8t21 8t8 21t-8 21.5t-21 8.5zM1236 314q13 0 21 8t8 21t-8 21.5t-21 8.5t-21 -8.5t-8 -21.5t8 -21t21 -8zM809 373q-13 0 -21.5 -8.5t-8.5 -21.5t8.5 -21t21.5 -8t21 8t8 21
t-8 21.5t-21 8.5zM1250 229q13 0 21.5 7.5t8.5 20.5q0 14 -8.5 22t-21.5 8t-21 -8t-8 -22q0 -13 8 -20.5t21 -7.5zM795 287q-13 0 -21.5 -8t-8.5 -22q0 -13 8.5 -20.5t21.5 -7.5t21 7.5t8 20.5q0 14 -8 22t-21 8zM1236 145q13 0 21 8t8 21t-8 21t-21 8t-21 -8t-8 -21t8 -21
t21 -8zM809 203q-13 0 -21.5 -8t-8.5 -21t8.5 -21t21.5 -8t21 8t8 21t-8 21t-21 8zM1189 65q13 0 21.5 8t8.5 21t-8.5 21t-21.5 8t-21 -8t-8 -21t8 -21t21 -8zM856 123q-13 0 -21.5 -8t-8.5 -21t8.5 -21t21.5 -8t21 8t8 21t-8 21t-21 8zM933 74q-13 0 -21 -8.5t-8 -21.5
t8 -21t21 -8t21 8t8 21t-8 21.5t-21 8.5zM1112 15q13 0 21 8t8 21t-8 21.5t-21 8.5t-21 -8.5t-8 -21.5t8 -21t21 -8zM1022 0q13 0 21 8t8 21t-8 21.5t-21 8.5t-21 -8.5t-8 -21.5t8 -21t21 -8z" />
    <glyph glyph-name="tm_VowelOo" unicode="&#xbcb;" horiz-adv-x="1842" 
d="M128 329q0 -81 30.5 -145.5t87.5 -102.5t135 -41q59 -2 93.5 5t51 21.5t21.5 33.5t5 39q0 35 -22.5 58t-56.5 23q-35 0 -58 -23t-23 -58q0 -34 23 -56.5t58 -22.5q34 0 56.5 22.5t22.5 56.5l48 -12l-42 -70l-72 -45h-14q-63 0 -104.5 36t-41.5 91q0 41 18.5 72.5
t51.5 49.5t74 18q44 0 77 -18t52.5 -49.5t19.5 -72.5q0 -44 -26 -80t-75.5 -56.5t-121.5 -20.5q-80 0 -143.5 25.5t-108 73t-68 110.5t-23.5 138t23.5 137.5t68 110t108 73t143.5 25.5q72 0 121.5 -20.5t75.5 -56t26 -80.5q0 -40 -19.5 -72t-52.5 -50t-77 -18q-41 0 -74 18
t-52 50t-19 72q0 37 19.5 65.5t52.5 45t75 16.5h14l72 -45l42 -70l-48 -12q0 34 -22.5 56.5t-56.5 22.5q-35 0 -58 -22.5t-23 -56.5q0 -35 23 -58t57 -23q35 0 57.5 23t22.5 58q0 21 -5 39.5t-21.5 32.5t-51 21t-93.5 6q-78 -2 -135 -40.5t-87.5 -102.5t-30.5 -145z
M1628 457v-457h-71v457h-230v-457h-70v513h551l9 -56h-189zM926 459q13 0 21 8t8 21t-8 21.5t-21 8.5t-21 -8.5t-8 -21.5t8 -21t21 -8zM1016 444q13 0 21 8t8 21t-8 21t-21 8t-21 -8t-8 -21q0 -29 29 -29zM837 502q-13 0 -21 -8t-8 -21t8 -21t21 -8t21 8t8 21t-8 21t-21 8z
M1092 393q13 0 21.5 8t8.5 21t-8.5 21.5t-21.5 8.5t-21 -8.5t-8 -21.5t8 -21t21 -8zM761 452q-13 0 -21.5 -8.5t-8.5 -21.5t8.5 -21t21.5 -8t21 8t8 21t-8 21.5t-21 8.5zM1140 314q13 0 21 8t8 21t-8 21.5t-21 8.5t-21 -8.5t-8 -21.5t8 -21t21 -8zM713 373q-13 0 -21.5 -8.5
t-8.5 -21.5t8.5 -21t21.5 -8t21 8t8 21t-8 21.5t-21 8.5zM1154 229q13 0 21.5 7.5t8.5 20.5q0 14 -8.5 22t-21.5 8t-21 -8t-8 -22q0 -13 8 -20.5t21 -7.5zM699 287q-13 0 -21.5 -8t-8.5 -22q0 -13 8.5 -20.5t21.5 -7.5t21 7.5t8 20.5q0 14 -8 22t-21 8zM1140 145q13 0 21 8
t8 21t-8 21t-21 8t-21 -8t-8 -21t8 -21t21 -8zM713 203q-13 0 -21.5 -8t-8.5 -21t8.5 -21t21.5 -8t21 8t8 21t-8 21t-21 8zM1093 65q13 0 21.5 8t8.5 21t-8.5 21t-21.5 8t-21 -8t-8 -21t8 -21t21 -8zM760 123q-13 0 -21.5 -8t-8.5 -21t8.5 -21t21.5 -8t21 8t8 21t-8 21
t-21 8zM837 74q-13 0 -21 -8.5t-8 -21.5t8 -21t21 -8t21 8t8 21t-8 21.5t-21 8.5zM1016 15q13 0 21 8t8 21t-8 21.5t-21 8.5t-21 -8.5t-8 -21.5t8 -21t21 -8zM926 0q13 0 21 8t8 21t-8 21.5t-21 8.5t-21 -8.5t-8 -21.5t8 -21t21 -8z" />
    <glyph glyph-name="tm_VowelAu" unicode="&#xbcc;" horiz-adv-x="2527" 
d="M699 345v-345h-71v345q0 84 -28.5 144t-81.5 92t-129 32q-80 0 -137.5 -38.5t-88 -105t-30.5 -151.5q0 -83 24.5 -146t70.5 -98t109 -35q46 0 75.5 29t29.5 73q0 45 -29.5 74.5t-75.5 29.5q-44 0 -73 -29t-29 -75q0 -44 29 -73t73 -29v-39q-46 0 -83.5 18.5t-58 50.5
t-20.5 73q0 47 21 82.5t58 56t83 20.5q51 0 89.5 -20.5t61 -56t22.5 -83.5q0 -46 -23 -82t-62 -56.5t-91 -20.5q-79 0 -142 43t-98.5 118.5t-35.5 174.5q0 104 40 184.5t114.5 126.5t175.5 46q97 0 167 -40t107 -114t37 -176zM1438 237q0 -58 22.5 -102.5t68.5 -70
t113 -25.5q46 0 75.5 29t29.5 73q0 45 -29.5 74.5t-75.5 29.5q-44 0 -73 -29t-29 -75q0 -44 29 -73t73 -29v-39q-46 0 -83.5 18.5t-58 50.5t-20.5 73q0 47 21 82.5t58 56t83 20.5q51 0 89.5 -20.5t61 -56t22.5 -83.5q0 -46 -23 -82t-62 -56.5t-91 -20.5q-86 0 -148.5 34
t-95 91.5t-32.5 129.5q0 86 40 152t113 104t172 38q78 0 143 -33t106 -90v105h572l8 -56h-189v-457h-70v457h-250v-457h-71v228q0 71 -32.5 125t-89 85t-127.5 31q-77 0 -133.5 -30t-86.5 -82.5t-30 -119.5zM1040 459q13 0 21 8t8 21t-8 21.5t-21 8.5t-21 -8.5t-8 -21.5
t8 -21t21 -8zM1130 444q13 0 21 8t8 21t-8 21t-21 8t-21 -8t-8 -21q0 -29 29 -29zM951 502q-13 0 -21 -8t-8 -21t8 -21t21 -8t21 8t8 21t-8 21t-21 8zM1206 393q13 0 21.5 8t8.5 21t-8.5 21.5t-21.5 8.5t-21 -8.5t-8 -21.5t8 -21t21 -8zM875 452q-13 0 -21.5 -8.5
t-8.5 -21.5t8.5 -21t21.5 -8t21 8t8 21t-8 21.5t-21 8.5zM1254 314q13 0 21 8t8 21t-8 21.5t-21 8.5t-21 -8.5t-8 -21.5t8 -21t21 -8zM827 373q-13 0 -21.5 -8.5t-8.5 -21.5t8.5 -21t21.5 -8t21 8t8 21t-8 21.5t-21 8.5zM1268 229q13 0 21.5 7.5t8.5 20.5q0 14 -8.5 22
t-21.5 8t-21 -8t-8 -22q0 -13 8 -20.5t21 -7.5zM813 287q-13 0 -21.5 -8t-8.5 -22q0 -13 8.5 -20.5t21.5 -7.5t21 7.5t8 20.5q0 14 -8 22t-21 8zM1254 145q13 0 21 8t8 21t-8 21t-21 8t-21 -8t-8 -21t8 -21t21 -8zM827 203q-13 0 -21.5 -8t-8.5 -21t8.5 -21t21.5 -8t21 8
t8 21t-8 21t-21 8zM1207 65q13 0 21.5 8t8.5 21t-8.5 21t-21.5 8t-21 -8t-8 -21t8 -21t21 -8zM874 123q-13 0 -21.5 -8t-8.5 -21t8.5 -21t21.5 -8t21 8t8 21t-8 21t-21 8zM951 74q-13 0 -21 -8.5t-8 -21.5t8 -21t21 -8t21 8t8 21t-8 21.5t-21 8.5zM1130 15q13 0 21 8t8 21
t-8 21.5t-21 8.5t-21 -8.5t-8 -21.5t8 -21t21 -8zM1040 0q13 0 21 8t8 21t-8 21.5t-21 8.5t-21 -8.5t-8 -21.5t8 -21t21 -8z" />
    <glyph glyph-name="tm_Virama" unicode="&#xbcd;" horiz-adv-x="0" 
d="M0 629q20 0 34.5 14.5t14.5 34.5t-14.5 34t-34.5 14q-21 0 -34 -14t-13 -35q0 -20 13 -34t34 -14z" />
    <glyph glyph-name="tm_Om" unicode="&#xbd0;" horiz-adv-x="819" 
d="M413 30q7 0 11.5 4.5t4.5 10.5q0 8 -4.5 12.5t-11.5 4.5q-14 0 -14 -17q0 -15 14 -15zM372 -67v79l-24 -1v-100h91q24 0 36.5 14t12.5 37q0 24 -12 38t-35 14q-19 0 -29 -12t-10 -30v-60l24 3v55q0 10 3.5 17t14.5 7q10 0 15.5 -9t5.5 -23q0 -13 -6.5 -21t-17.5 -8h-69z
M406 534q78 0 143.5 -18.5t113 -53t74 -81t26.5 -102.5q0 -48 -18 -84.5t-50.5 -56.5t-77.5 -20q-41 0 -72 19.5t-48.5 54t-17.5 77.5h58q1 -39 22.5 -64t57.5 -25q35 0 53 27.5t18 71.5q0 56 -36.5 99.5t-100 68.5t-145.5 25q-84 0 -150 -26t-103 -72t-37 -105
q0 -31 12.5 -56t33.5 -38.5t45 -13.5q27 0 44.5 17t17.5 44q0 26 -17 43t-44 17t-45 -16.5t-18 -43.5t17.5 -44t44.5 -17v-55q-49 0 -80.5 33t-31.5 83q0 52 32.5 85t84.5 33q54 0 89.5 -33t35.5 -85t-36 -86t-94 -34q-45 0 -80.5 21.5t-56 59.5t-20.5 86q0 58 26 106.5
t74 84t113 55t143 19.5zM727 -35h-68q-89 0 -138 46t-49 122v136h65v-136q0 -55 31.5 -83.5t90.5 -28.5h68v-56zM412 -157q56 0 90.5 30.5t34.5 76.5v69l67 -19v-50q0 -49 -24 -87t-67.5 -60t-99.5 -22q-59 0 -103 22t-68.5 60t-24.5 87v50h71v-50q0 -47 34 -77t90 -30z" />
    <glyph glyph-name="tm_AuLengthMark" unicode="&#xbd7;" horiz-adv-x="1217" 
d="M128 237q0 -58 22.5 -102.5t68.5 -70t113 -25.5q46 0 75.5 29t29.5 73q0 45 -29.5 74.5t-75.5 29.5q-44 0 -73 -29t-29 -75q0 -44 29 -73t73 -29v-39q-46 0 -83.5 18.5t-58 50.5t-20.5 73q0 47 21 82.5t58 56t83 20.5q51 0 89.5 -20.5t61 -56t22.5 -83.5q0 -46 -23 -82
t-62 -56.5t-91 -20.5q-86 0 -148.5 34t-95 91.5t-32.5 129.5q0 86 40 152t113 104t172 38q78 0 143 -33t106 -90v105h572l8 -56h-189v-457h-70v457h-250v-457h-71v228q0 71 -32.5 125t-89 85t-127.5 31q-77 0 -133.5 -30t-86.5 -82.5t-30 -119.5z" />
    <glyph glyph-name="tm_Zero" unicode="&#xbe6;" horiz-adv-x="711" 
d="M355 531q88 0 156 -35.5t107.5 -97t39.5 -141.5t-39.5 -142t-107.5 -97.5t-156 -35.5q-87 0 -155 35.5t-107 97.5t-40 142q1 80 40 141.5t107 97t155 35.5zM355 44q66 0 117 27t81 75.5t30 110.5t-30 110t-81 75t-117 27q-65 0 -116.5 -27.5t-80.5 -75t-30 -109.5
q1 -62 30.5 -110.5t80.5 -75.5t116 -27z" />
    <glyph glyph-name="tm_One" unicode="&#xbe7;" horiz-adv-x="751" 
d="M477 205q0 -67 -28.5 -117t-81 -78t-126.5 -28q-58 0 -103 20.5t-70 56.5t-25 81q0 71 54.5 114.5t150.5 43.5h266q65 0 110.5 -20.5t69.5 -55.5t24 -82q0 -45 -25.5 -81t-73.5 -56.5t-117 -20.5v57q71 0 106 28t35 73q0 44 -31.5 73t-96.5 29h-265q-65 0 -98.5 -28
t-33.5 -74q0 -41 34 -68.5t89 -27.5q52 0 89 20t56 56.5t19 84.5v252h-170v-194h-72v250h479l9 -56h-174v-252z" />
    <glyph glyph-name="tm_Two" unicode="&#xbe8;" horiz-adv-x="778" 
d="M768 0h-690v57h690v-57zM53 272q0 40 18 71t50 48.5t72 17.5q45 0 79.5 -17.5t54.5 -49.5t20 -73q0 -42 -20 -74t-55 -50.5t-79 -18.5q-47 0 -83 19t-56.5 52.5t-20.5 76.5q0 74 36.5 132t101.5 91.5t149 33.5t148.5 -33.5t100.5 -91.5t36 -133q0 -77 -36 -137.5
t-102.5 -94.5t-160.5 -34v50q65 0 115.5 28t79 76.5t28.5 111.5q0 57 -26.5 101t-73.5 69.5t-109 25.5q-65 0 -114 -25t-76.5 -69t-27.5 -103q0 -38 25 -63.5t65 -25.5q37 0 61.5 24.5t24.5 61.5t-24.5 61.5t-61.5 24.5q-40 0 -65 -24t-25 -59h-49z" />
    <glyph glyph-name="tm_Three" unicode="&#xbe9;" horiz-adv-x="827" 
d="M415 457v-305h-71v305h-181v-457h-70v513h502l9 -56h-189zM817 57v-57h-473v57h136q50 0 83 18t49.5 49t16.5 71q0 47 -25.5 80t-75.5 33t-81.5 -34.5t-31.5 -87.5h-55q0 53 22.5 94t62 65t89.5 24q52 0 90.5 -22.5t58.5 -61t20 -89.5q0 -44 -16 -79.5t-47 -59.5h177z
" />
    <glyph glyph-name="tm_Four" unicode="&#xbea;" horiz-adv-x="827" 
d="M785 242l-65 27v244h65v-271zM477 205q0 -67 -28.5 -117t-81 -78t-126.5 -28q-58 0 -103 20.5t-70 56.5t-25 81q0 71 54.5 114.5t150.5 43.5h515l22 -56h-535q-65 0 -98.5 -28t-33.5 -74q0 -41 34 -68.5t89 -27.5q52 0 89 20t56 56.5t19 84.5v252h-170v-194h-72v250h479
l9 -56h-174v-252z" />
    <glyph glyph-name="tm_Five" unicode="&#xbeb;" horiz-adv-x="1271" 
d="M648 0v457h-194v-457h-72v513h517l8 -56h-189v-153q22 23 51.5 36.5t64.5 13.5q57 0 98 -30t63 -82t22 -120q0 -86 -32.5 -156t-92 -120t-141 -76t-180.5 -26q-116 0 -208 35.5t-157 101.5t-99 158.5t-34 206.5q0 117 39 216.5t113 172.5t179.5 113t239.5 40
q125 0 224 -33.5t168.5 -94t105.5 -142.5t36 -180v-338h-71v336q0 85 -31 156t-90.5 123.5t-145.5 81.5t-196 29q-118 0 -209.5 -35.5t-156 -100.5t-97.5 -153.5t-33 -192.5q0 -100 28.5 -180.5t83.5 -138t133.5 -88.5t177.5 -31q110 0 193.5 38t130 109.5t46.5 168.5
q0 50 -11.5 88.5t-36 60.5t-61.5 22q-49 0 -81.5 -37.5t-32.5 -93.5v-162h-70z" />
    <glyph glyph-name="tm_Six" unicode="&#xbec;" horiz-adv-x="1081" 
d="M1071 0h-310v57h310v-57zM883 159q0 41 -27 67t-70 26q-50 0 -82 -33t-32 -84h-64q0 52 24 93t65.5 64t94.5 23q49 0 86 -20t58.5 -55t21.5 -81q0 -44 -23 -78t-67 -53.5t-107 -19.5v49q59 0 90.5 28.5t31.5 73.5zM477 205q0 -67 -28.5 -117t-81 -78t-126.5 -28
q-58 0 -103 20.5t-70 56.5t-25 81q0 71 54.5 114.5t150.5 43.5h224q65 0 109.5 -20.5t67.5 -57t23 -85.5v-135h-71v135q0 48 -31 77.5t-98 29.5h-222q-65 0 -98.5 -28t-33.5 -74q0 -41 34 -68.5t89 -27.5q52 0 89 20t56 56.5t19 84.5v252h-170v-194h-72v250h479l9 -56h-174
v-252z" />
    <glyph glyph-name="tm_Seven" unicode="&#xbed;" horiz-adv-x="758" 
d="M668 513v-513h-72v457h-158l12 56h218zM128 237q0 -58 22.5 -102.5t68.5 -70t113 -25.5q46 0 75.5 29t29.5 73q0 45 -29.5 74.5t-75.5 29.5q-44 0 -73 -29t-29 -75q0 -44 29 -73t73 -29v-39q-46 0 -83.5 18.5t-58 50.5t-20.5 73q0 47 21 82.5t58 56t83 20.5
q51 0 89.5 -20.5t61 -56t22.5 -83.5q0 -46 -23 -82t-62 -56.5t-91 -20.5q-86 0 -148.5 34t-95 91.5t-32.5 129.5q0 80 36 142.5t108.5 98t182.5 35.5h180v-56h-171q-91 0 -149 -28t-85 -77.5t-27 -114.5z" />
    <glyph glyph-name="tm_Eight" unicode="&#xbee;" horiz-adv-x="1068" 
d="M975 -126v639h-71v-639h71zM904 69h-188q-31 -64 -86.5 -112.5t-131.5 -74.5t-170 -26q-87 0 -153.5 22.5t-104 61t-37.5 86.5q0 45 30 72t89 27h146q-38 29 -60.5 73t-22.5 100q0 68 32.5 120.5t90 82.5t130.5 30q65 0 117.5 -22.5t89.5 -63t57 -95.5t20 -120
q0 -28 -3.5 -54t-11.5 -51h167v-56zM291 298q0 -51 21.5 -90t60 -61t87.5 -22h199q8 24 12.5 50.5t4.5 54.5q0 69 -25 123t-71.5 85t-111.5 31q-53 0 -93 -22.5t-62 -60.5t-22 -88zM328 -82q105 0 183.5 41.5t120.5 109.5h-478q-25 0 -35.5 -12t-10.5 -31q0 -28 27.5 -52.5
t77.5 -40t115 -15.5z" />
    <glyph glyph-name="tm_Nine" unicode="&#xbef;" horiz-adv-x="968" 
d="M582 298q57 0 101.5 -25t70.5 -68t26 -98q0 -37 -16 -65t-43 -44t-63 -16q-34 0 -61.5 16t-44 44t-16.5 65q0 45 17 83t47 66t70 43.5t87 15.5q54 0 94 -22t62 -60t22 -88q0 -45 -10 -79t-27 -72l-74 6q18 33 27 73.5t9 71.5q0 49 -27 78.5t-76 29.5q-40 0 -75 -18.5
t-55 -51t-20 -76.5q0 -28 14.5 -46t36.5 -18t37 18t15 46q0 39 -18.5 69.5t-49 48t-68.5 17.5h-324q-65 0 -98.5 -28t-33.5 -74q0 -41 34 -68.5t89 -27.5q52 0 89 20t56 56.5t19 84.5v252h-170v-194h-72v250h479l9 -56h-174v-252q0 -67 -28.5 -117t-81 -78t-126.5 -28
q-58 0 -103 20.5t-70 56.5t-25 81q0 71 54.5 114.5t150.5 43.5h334z" />
    <glyph glyph-name="tm_Ten" unicode="&#xbf0;" horiz-adv-x="797" 
d="M660 527q30 -49 48.5 -102t27 -102.5t8.5 -88.5q0 -77 -21 -133.5t-64 -87.5t-109 -31q-52 0 -90 20t-61 58q-24 -38 -62 -58t-91 -20q-66 0 -108.5 31t-63.5 87.5t-21 133.5q0 39 8.5 88.5t27.5 102.5t48 102l71 -14q-28 -40 -46.5 -91t-27 -101t-8.5 -88
q0 -85 27 -136.5t92 -51.5q61 0 89 42t28 122v129h72v-129q0 -80 28.5 -122t89.5 -42q65 0 91.5 51.5t26.5 136.5q0 38 -8.5 88t-26.5 101t-47 91z" />
    <glyph glyph-name="tm_Hundred" unicode="&#xbf1;" horiz-adv-x="984" 
d="M83 0v324q0 70 22.5 116t64 68.5t96.5 22.5q41 0 73 -16t55 -45v43h572l8 -56h-188v-457h-72v457h-249v-457h-71v310q0 69 -31.5 114t-96.5 45q-52 0 -82.5 -33t-30.5 -112v-324h-70z" />
    <glyph glyph-name="tm_Thousand" unicode="&#xbf2;" horiz-adv-x="1089" 
d="M862 242v-100h13q55 0 95 -23.5t63.5 -64.5t23.5 -94q0 -58 -27.5 -102.5t-76.5 -69.5t-114 -25h-149q-61 0 -90 -12.5t-44 -35.5l-56 35q17 35 64 52t125 17h150q65 0 104.5 40.5t39.5 101.5q0 34 -13.5 62t-37.5 45t-56 17h-14v-19q0 -55 -25 -94.5t-68 -60t-97 -20.5
q-52 0 -90 17t-59 46t-21 67q0 53 44 87t117 34h127v100h-313v-37q0 -67 -28.5 -117t-81 -78t-126.5 -28q-58 0 -103 20.5t-70 56.5t-25 81q0 53 31.5 92t88.5 55v226h479l9 -56h-174v-159h539l4 -56h-158zM235 457v-159h170v159h-170zM241 44q52 0 89 20t56 56.5t19 84.5
v37h-155q-65 0 -98.5 -28t-33.5 -74q0 -41 34 -68.5t89 -27.5zM577 20q0 -28 24 -47.5t71 -19.5q33 0 59.5 14t42.5 39.5t16 59.5v19h-125q-44 0 -66 -18.5t-22 -46.5z" />
    <glyph glyph-name="tm_Naal" unicode="&#xbf3;" horiz-adv-x="879" 
d="M869 0h-317v57h317v-57zM383 531q93 0 163.5 -35.5t110.5 -98t40 -142.5q0 -67 -23.5 -127.5t-61.5 -101.5l-60 31q30 37 50 87t20 111q0 62 -30 110t-83.5 76t-125.5 28q-79 0 -137 -30t-88 -82.5t-30 -119.5q0 -58 22.5 -102.5t68.5 -70t113 -25.5q46 0 75.5 29
t29.5 73q0 45 -29.5 74.5t-75.5 29.5q-44 0 -73 -29t-29 -75q0 -44 29 -73t73 -29v-39q-46 0 -83 18.5t-58 50.5t-21 73q0 47 21 82.5t58 56t83 20.5q51 0 89.5 -20.5t61 -56.5t22.5 -83q0 -45 -23 -81.5t-62.5 -57t-90.5 -20.5q-86 0 -148.5 34t-95 91.5t-32.5 129.5
q0 86 40 152t114.5 104t175.5 38z" />
    <glyph glyph-name="tm_Maatham" unicode="&#xbf4;" horiz-adv-x="1207" 
d="M163 57v461l-70 -5v-513h472q73 0 119 30t69.5 82t23.5 119q0 87 -26 155t-75.5 106.5t-122.5 38.5q-52 0 -92 -22t-62.5 -65.5t-22.5 -109.5v-324l71 9v317q0 70 30 101.5t79 31.5q48 0 80.5 -31t49 -84.5t16.5 -122.5q0 -50 -13.5 -89.5t-44 -62t-79.5 -22.5h-402z
M1207 563v56h-146q18 19 28 43t10 54q0 47 -25 83.5t-68.5 57.5t-100.5 21q-54 0 -100 -16t-80.5 -45t-54 -66.5t-19.5 -81.5q0 -38 16.5 -66t44.5 -43t64 -15q35 0 62.5 15t43.5 43t16 66q0 59 -30 106t-80 75t-113 28q-67 0 -118 -27.5t-80 -75.5t-29 -110
q0 -57 23.5 -102t65.5 -71l62 33q-36 17 -56 54t-20 86q0 44 19.5 78t53.5 53.5t79 19.5q47 0 81 -18t53 -51.5t19 -77.5q0 -28 -14.5 -46t-37.5 -18q-24 0 -39 18t-15 46q0 43 23.5 76.5t65 52t94.5 18.5t86 -28t33 -72q0 -43 -24.5 -70t-65.5 -27v-56h273z" />
    <glyph glyph-name="tm_Varudam" unicode="&#xbf5;" horiz-adv-x="1757" 
d="M625 531q94 0 164 -35.5t110.5 -98t40.5 -142.5q0 -67 -23.5 -127.5t-61.5 -101.5l-60 31q30 37 49.5 87t19.5 111q0 62 -29.5 110t-83 76t-126.5 28q-79 0 -136.5 -30t-88 -82.5t-30.5 -119.5q0 -57 23 -102t68.5 -70.5t114.5 -25.5q45 0 74 29t29 73q0 45 -29 74.5
t-74 29.5t-74.5 -29.5t-29.5 -73.5q0 -45 29.5 -74t74.5 -29v-39q-48 0 -85 18.5t-58 50.5t-21 73q0 47 21 82.5t58 56t85 20.5q50 0 88.5 -20.5t60.5 -56.5t22 -83q0 -45 -22.5 -81.5t-61.5 -57t-90 -20.5q-88 0 -150 34t-95 91.5t-33 129.5q0 86 40.5 152t114.5 104
t175 38zM1522 354q58 0 98.5 -30t62 -82t21.5 -120q0 -93 -37 -163.5t-106.5 -118.5t-168 -72t-220.5 -24h-523q-134 0 -241 30t-181.5 86t-114 134.5t-39.5 175.5q0 64 18.5 130.5t51.5 125t75 97.5l72 -10q-40 -34 -72.5 -90t-51 -122t-18.5 -133q0 -112 60.5 -194.5
t173 -128t267.5 -45.5h523q104 -1 188 19t144.5 61t93 101.5t32.5 140.5q0 74 -26.5 122.5t-83.5 48.5q-49 0 -81 -37.5t-32 -93.5v-162h-72v457h-188v-457h-352v57h281v456h511l8 -56h-188v-153q21 23 50 36.5t65 13.5z" />
    <glyph glyph-name="tm_Patru" unicode="&#xbf6;" horiz-adv-x="980" 
d="M887 -146h-654q-34 0 -49.5 -16t-15.5 -40q0 -33 40 -54t108 -21q69 0 122.5 22t84.5 61t31 88v206h71v-207q0 -67 -39 -119.5t-109 -82.5t-161 -30q-70 0 -120 17.5t-76.5 49t-26.5 70.5q0 49 37 80t103 31h583v604h71v-659zM625 513v-513h-532v513l70 5v-461h391v456
h71z" />
    <glyph glyph-name="tm_Varavu" unicode="&#xbf7;" horiz-adv-x="1333" 
d="M668 298h135q21 0 40 -3.5t37 -10.5q29 15 63 23t71 8q60 0 105.5 -21t70.5 -57.5t25 -84.5q0 -28 -10 -52.5t-29 -42.5h147v-57h-274v57q42 0 66 27t24 68q0 44 -33.5 72.5t-91.5 28.5q-19 0 -36.5 -3t-33.5 -8q27 -25 41.5 -59.5t14.5 -75.5q0 -37 -15.5 -65t-43 -44
t-62.5 -16t-62.5 16t-43.5 44t-16 65q0 38 16 72t44 61q-6 1 -11.5 1.5t-10.5 0.5h-127v-242h-72v457h-207q-91 0 -149 -28t-85 -77.5t-27 -114.5q0 -44 12.5 -79.5t39.5 -62.5q-5 10 -7.5 22t-2.5 25q0 47 21 82.5t58 56t83 20.5q51 0 89.5 -20.5t61 -56.5t22.5 -83
q0 -45 -23 -81.5t-62.5 -57t-90.5 -20.5q-86 0 -148.5 34t-95 91.5t-32.5 129.5q0 80 36 142.5t108.5 98t182.5 35.5h468l8 -56h-188v-159zM230 141q0 -44 29 -73t73 -29q46 0 75.5 29t29.5 73q0 45 -29.5 74.5t-75.5 29.5q-44 0 -73 -29t-29 -75zM827 107q0 -28 14.5 -46
t37.5 -18t37 18t14 45q0 34 -13.5 61t-35.5 45q-25 -19 -39.5 -46t-14.5 -59z" />
    <glyph glyph-name="tm_Merpadi" unicode="&#xbf8;" horiz-adv-x="1863" 
d="M1398 531q52 0 89 -20.5t57 -56.5t20 -85v-612h-70v607q0 48 -25 76.5t-71 28.5q-45 0 -70 -28.5t-25 -71.5q0 -46 35 -77t92 -31q62 0 113 27.5t90 72.5t67 96l61 -13q-28 -69 -74.5 -124.5t-110 -88t-146.5 -32.5q-59 0 -104.5 22.5t-71 60.5t-26.5 87q0 47 21 83.5
t59 57.5t90 21zM1093 271q0 57 -20.5 101.5t-63 70.5t-105.5 26q-58 0 -106.5 -22t-84 -61.5t-55 -93.5t-19.5 -118q0 -57 23 -93.5t65 -36.5q45 0 67.5 36.5t22.5 93.5q0 64 -26.5 118t-74.5 93.5t-114 61.5t-147 22q-99 0 -172.5 -31.5t-114 -85.5t-40.5 -124
q0 -55 22.5 -98t68 -67t113.5 -24q46 0 75.5 29t29.5 73q0 45 -29.5 74.5t-75.5 29.5q-44 0 -73 -29.5t-29 -73.5q0 -45 29 -74t73 -29v-39q-46 0 -83 18.5t-58 50.5t-21 73q0 47 21 82.5t58 56t83 20.5q50 0 89 -20.5t61.5 -56.5t22.5 -83q0 -45 -23 -81.5t-62.5 -57
t-90.5 -20.5q-86 0 -148.5 32t-95 88.5t-32.5 125.5q0 88 49.5 156t140.5 107.5t212 39.5q95 0 175 -27.5t138.5 -76t91 -113.5t32.5 -140q0 -56 -19.5 -99.5t-56.5 -68t-89 -24.5q-50 0 -87 24.5t-56.5 68t-19.5 99.5q0 76 27.5 141t74.5 113.5t108.5 75.5t129.5 27
q86 0 144.5 -33.5t89 -92.5t30.5 -135q0 -46 -11 -100.5t-37 -112.5h580v400h70v-457h-726v57q26 53 37.5 111.5t11.5 102.5z" />
    <glyph glyph-name="tm_Rupee" unicode="&#xbf9;" horiz-adv-x="1089" 
d="M454 0h-72v513h537l8 -56h-189v-153q22 24 51.5 37t64.5 13q57 0 98 -30t63 -82t22 -120q0 -88 -32.5 -157.5t-93 -118.5t-143.5 -75.5t-185 -26.5q-121 0 -216 37.5t-160.5 107.5t-99.5 168.5t-34 219.5q0 130 38.5 240.5t110.5 191t171 125t219 44.5q83 0 150.5 -16
t116.5 -44t75 -64t26 -74q0 -46 -30.5 -76t-75.5 -30q-47 0 -77.5 28t-32.5 70q-1 39 20.5 65.5t56.5 34.5q-41 20 -100 31t-129 11q-104 0 -189 -39t-147 -111.5t-95 -171t-33 -216.5q0 -108 28.5 -194.5t83.5 -148.5t136.5 -94.5t186.5 -32.5q86 0 155.5 21t119 62
t76.5 99.5t27 133.5q0 50 -11.5 88.5t-36 60.5t-61.5 22q-49 0 -81.5 -37.5t-32.5 -93.5v-162h-70v457h-214v-457zM823 675q0 -22 14.5 -36t36.5 -14t36.5 14t14.5 36t-14.5 36t-36.5 14t-36.5 -14t-14.5 -36z" />
    <glyph glyph-name="tm_Enn" unicode="&#xbfa;" horiz-adv-x="997" 
d="M814 716q0 43 -33.5 71.5t-86.5 28.5q-52 0 -94 -18.5t-65.5 -52t-23.5 -76.5q0 -28 15 -46t39 -18q23 0 38 18t15 46q0 44 -19 77.5t-53 51.5t-81 18q-46 0 -80 -19.5t-53.5 -53.5t-19.5 -78t16.5 -78.5t45.5 -54t67 -19.5v-53q-61 0 -107 26.5t-71 73t-25 105.5
q0 62 28.5 110t79.5 75.5t119 27.5q62 0 112.5 -28t80.5 -75t30 -106q0 -38 -16 -66t-43.5 -43t-63.5 -15t-64 15t-44 43t-16 66q0 44 19.5 81.5t54 66.5t80.5 45t99 16q57 0 101 -21t69 -57.5t25 -83.5q0 -30 -10 -53.5t-29 -43.5h147v-56h-274v56q41 0 66 27t25 70z
M531 354q58 0 98.5 -30t62 -82t21.5 -120q0 -85 -31.5 -151t-90.5 -103.5t-143 -37.5h-136q-64 0 -102 -20t-60 -53l-57 32q23 42 77 69.5t135 27.5h143q61 0 103.5 30.5t64.5 84t22 121.5q0 74 -26.5 122.5t-82.5 48.5q-49 0 -81.5 -37.5t-32.5 -93.5v-162h-71v457h-181
v-457h-70v513h502l9 -56h-189v-153q21 23 50.5 36.5t65.5 13.5z" />
    <glyph glyph-name="uni200C" unicode="&#x200c;" horiz-adv-x="0" 
d="M-30 -68h60v1168h-60v-1168z" />
    <glyph glyph-name="uni200D" unicode="&#x200d;" horiz-adv-x="0" 
d="M0 1026l-73 74l-40 -40l74 -74l-74 -74l39 -39l44 43v-984h60v985l45 -44l39 39l-74 74l74 74l-40 40z" />
    <glyph glyph-name="endash" unicode="&#x2013;" horiz-adv-x="440" 
d="M401 304h-371l9 -63h371z" />
    <glyph glyph-name="emdash" unicode="&#x2014;" horiz-adv-x="538" 
d="M499 304h-469l9 -63h469z" />
    <glyph glyph-name="quoteleft" unicode="&#x2018;" horiz-adv-x="172" 
d="M84 484q16 0 28 8t19 20t7 26q0 20 -13 36.5t-33 17.5q2 27 19 45.5t41 35.5l-21 39q-27 -14 -50.5 -40.5t-37 -59.5t-13.5 -65q0 -28 15 -45.5t39 -17.5z" />
    <glyph glyph-name="quoteright" unicode="&#x2019;" horiz-adv-x="172" 
d="M88 712q-15 0 -27.5 -8t-20 -20.5t-7.5 -26.5q0 -12 6.5 -24.5t17 -20t22.5 -8.5q-4 -28 -20 -47t-39 -36l21 -37q28 15 51 41t36.5 59t13.5 65q0 28 -16 45.5t-38 17.5z" />
    <glyph glyph-name="quotesinglbase" unicode="&#x201a;" horiz-adv-x="172" 
d="M88 107q-15 0 -27.5 -7.5t-20 -19t-7.5 -26.5q0 -13 6.5 -25t17 -19.5t22.5 -8.5q-4 -28 -20 -47t-39 -37l21 -37q28 16 51 42t36.5 58.5t13.5 63.5q0 29 -16 46t-38 17z" />
    <glyph glyph-name="quotedblleft" unicode="&#x201c;" horiz-adv-x="329" 
d="M84 484q16 0 28 8t19 20t7 26q0 20 -13 36.5t-33 17.5q2 27 19 45.5t41 35.5l-21 39q-27 -14 -50.5 -40.5t-37 -59.5t-13.5 -65q0 -28 15 -45.5t39 -17.5zM240 484q15 0 27.5 8t20 20t7.5 26q0 13 -6.5 25t-16.5 20t-23 9q3 27 19 45.5t41 35.5l-21 39
q-28 -14 -51.5 -40.5t-36.5 -59.5t-13 -65q0 -28 15.5 -45.5t37.5 -17.5z" />
    <glyph glyph-name="quotedblright" unicode="&#x201d;" horiz-adv-x="328" 
d="M244 712q-15 0 -27 -8t-19.5 -20.5t-7.5 -26.5q0 -20 13.5 -36t32.5 -17q-4 -28 -20 -47t-40 -36l21 -37q29 15 51.5 41t36 59t13.5 65q0 28 -16 45.5t-38 17.5zM88 712q-15 0 -27.5 -8t-20 -20.5t-7.5 -26.5q0 -12 6.5 -24.5t17 -20t22.5 -8.5q-4 -28 -20 -47t-39 -36
l21 -37q28 15 51 41t36.5 59t13.5 65q0 28 -16 45.5t-38 17.5z" />
    <glyph glyph-name="quotedblbase" unicode="&#x201e;" horiz-adv-x="328" 
d="M88 107q-15 0 -27.5 -7t-20 -19t-7.5 -27q0 -13 6.5 -25t17 -19.5t22.5 -8.5q-4 -28 -20 -46.5t-39 -36.5l21 -38q28 16 51 42t36.5 58.5t13.5 63.5q0 29 -16 46t-38 17zM244 107q-15 0 -27 -7.5t-19.5 -19t-7.5 -26.5q0 -20 13.5 -36t32.5 -17q-4 -28 -20 -47t-40 -37
l21 -37q29 16 51.5 42t36 58.5t13.5 63.5q0 29 -16 46t-38 17z" />
    <glyph glyph-name="dagger" unicode="&#x2020;" horiz-adv-x="392" 
d="M155 783v-158h-125l19 -66h106l10 -559l64 -4l10 563h123l-19 66h-104v155z" />
    <glyph glyph-name="daggerdbl" unicode="&#x2021;" horiz-adv-x="397" 
d="M242 1l-4 177h129l-19 67h-109l3 281h125l-19 68h-109l5 186l-89 3l5 -189h-130l19 -68h109l-3 -281h-125l19 -67h109l-5 -184z" />
    <glyph glyph-name="bullet" unicode="&#x2022;" horiz-adv-x="237" 
d="M119 239q25 0 44.5 12t31.5 32t12 44q0 25 -12 45t-31.5 32t-45.5 12q-24 0 -44.5 -12.5t-32 -32t-11.5 -44.5q0 -24 12 -44t32.5 -32t44.5 -12z" />
    <glyph glyph-name="ellipsis" unicode="&#x2026;" horiz-adv-x="464" 
d="M81 0q21 0 35.5 14.5t14.5 35.5t-14.5 36t-35.5 15q-22 0 -36.5 -15t-14.5 -36t14.5 -35.5t36.5 -14.5zM235 0q20 0 35 14.5t15 35.5t-15 36t-35 15q-22 0 -37 -15t-15 -36t15 -35.5t37 -14.5zM384 0q21 0 35.5 14.5t14.5 35.5t-14.5 36t-35.5 15q-22 0 -37 -15t-15 -36
t15 -35.5t37 -14.5z" />
    <glyph glyph-name="perthousand" unicode="&#x2030;" horiz-adv-x="1233" 
d="M545 710l-306 -710l77 -4l306 710zM191 702q-43 0 -79 -21t-57.5 -59t-21.5 -90q0 -53 20.5 -91t56.5 -58t82 -20q43 0 78.5 20.5t57.5 58.5t22 90q0 54 -20.5 92t-56.5 58t-82 20zM191 640q33 0 58.5 -26t25.5 -82q0 -38 -12.5 -62t-31.5 -34.5t-39 -10.5
q-35 0 -60 25.5t-25 82.5q0 38 12.5 61.5t32 34.5t39.5 11zM1042 338q-43 0 -79.5 -20.5t-57.5 -58.5t-21 -90q0 -54 20.5 -92t56.5 -57.5t82 -19.5q43 0 79 20.5t57 58.5t21 90q0 54 -20.5 92t-56 57.5t-81.5 19.5zM672 338q-43 0 -79 -20.5t-57.5 -58.5t-21.5 -90
q0 -54 20.5 -92t56.5 -57.5t82 -19.5q43 0 78.5 20.5t57 58.5t21.5 90q0 54 -20.5 92t-56.5 57.5t-81 19.5zM1042 277q34 0 59 -26t25 -82q0 -39 -12 -62t-31 -34.5t-40 -11.5q-34 0 -59.5 26t-25.5 82q0 39 12.5 63t32.5 34.5t39 10.5zM672 277q33 0 58 -26t25 -82
q0 -39 -12 -62t-31 -34.5t-39 -11.5q-35 0 -60 26t-25 82q0 39 13 63t32 34.5t39 10.5z" />
    <glyph glyph-name="guilsinglleft" unicode="&#x2039;" horiz-adv-x="217" 
d="M30 221l145 -138l22 56l-102 106l102 106l-22 57l-145 -139v-48z" />
    <glyph glyph-name="guilsinglright" unicode="&#x203a;" horiz-adv-x="218" 
d="M188 269l-145 139l-23 -57l103 -106l-103 -106l23 -56l145 138v48z" />
    <glyph glyph-name="fraction" unicode="&#x2044;" horiz-adv-x="402" 
d="M415 700l-506 -834h80l504 834h-78z" />
    <glyph glyph-name="foursuperior" unicode="&#x2074;" horiz-adv-x="410" 
d="M390 427h-80v340h-48l-252 -340l6 -58h225v-87h69v87h74zM241 642v-215h-158z" />
    <glyph glyph-name="Euro" unicode="&#x20ac;" horiz-adv-x="598" 
d="M0 459l10 -61h432l-8 61h-434zM0 279l10 -62h432l-8 62h-434zM574 655q-21 14 -53.5 22.5t-63.5 12.5t-52 4q-74 0 -133.5 -27t-101 -76t-64 -114t-22.5 -141q0 -71 20 -134t59.5 -111.5t98.5 -76.5t137 -28q29 0 62 5t63.5 14t50.5 20l-30 59q-28 -12 -63 -21t-87 -9
q-54 0 -96.5 22t-72 61.5t-44.5 90.5t-15 109q0 85 31.5 150t85 102t120.5 37q34 0 58 -3.5t44.5 -10t42.5 -15.5z" />
    <glyph glyph-name="Turkishlira" unicode="&#x20ba;" horiz-adv-x="497" 
d="M86 0h68q62 0 120 24t103.5 68t72.5 104t27 131h-81q0 -52 -19.5 -99t-53 -83t-74.5 -56t-84 -20v308l191 68l-12 58l-179 -63v51l191 67l-12 59l-179 -64v153l-79 -11v-170l-86 -30l11 -59l75 26v-50l-86 -30l11 -59l75 26v-349z" />
    <glyph glyph-name="Ruble" unicode="&#x20bd;" horiz-adv-x="562" 
d="M462 202h-429l6 -60h429zM171 0v257h96q54 0 101 12.5t83 38.5t57 66.5t21 96.5q0 75 -33 121t-90 67t-128 21h-185v-680h78zM278 613q52 0 90 -13.5t59 -44.5t21 -86q-1 -52 -24.5 -84t-63.5 -46.5t-90 -14.5h-99v289h107zM139 320h-106l6 -60h107z" />
    <glyph glyph-name="litre" unicode="&#x2113;" horiz-adv-x="366" 
d="M29 177q8 4 16.5 9.5t17 11.5t15.5 13v-57q0 -49 12.5 -86.5t42.5 -58t85 -20.5q18 0 36 3.5t34.5 12t30.5 21.5l-27 48q-21 -10 -37.5 -14t-28.5 -4q-31 0 -45 14.5t-18.5 39t-4.5 54.5v109q49 45 89 96t64.5 102.5t24.5 97.5q0 41 -16 70.5t-44.5 46t-64.5 16.5
q-38 0 -68 -16.5t-47.5 -48t-17.5 -76.5v-266q-9 -8 -21.5 -18t-24.5 -19.5t-22 -16.5zM158 371v189q0 43 16.5 58.5t36.5 16.5q18 0 32 -15t14 -54q0 -48 -29.5 -99t-69.5 -96z" />
    <glyph glyph-name="trademark" unicode="&#x2122;" horiz-adv-x="730" 
d="M300 680h-290v-51h115v-324h63v324h118zM534 408l93 132v-235h60v375h-27l-134 -188l-142 188h-26v-375h62v237l98 -137z" />
    <glyph glyph-name="Ohm" unicode="&#x2126;" horiz-adv-x="716" 
d="M588 340q0 -40 -9 -83t-25.5 -81t-39.5 -67t-51 -45l-3 -64h207l6 63h-111q35 28 59 72.5t37.5 98t13.5 106.5q0 101 -37.5 181t-108 126.5t-168.5 48.5q-98 -2 -169 -48.5t-108 -126.5t-37 -181q0 -53 13 -106.5t37.5 -98t58.5 -72.5h-111l7 -63h207l-4 64
q-28 16 -51 45t-39.5 67t-25.5 81t-9 83q0 84 30 148.5t82 101.5t119 37t119 -37t81.5 -101.5t29.5 -148.5z" />
    <glyph glyph-name="estimated" unicode="&#x212e;" horiz-adv-x="499" 
d="M466 230v7q0 72 -21 131.5t-67 94.5t-119 35q-72 0 -122.5 -32.5t-77 -89.5t-26.5 -132q0 -76 28 -134t84.5 -90t141.5 -32q36 0 66.5 6.5t57 18t49.5 24.5l-26 58q-38 -19 -72 -30.5t-76 -11.5q-60 0 -97 23t-54.5 63t-20.5 91h352zM116 284q5 44 21.5 77t46 51.5
t72.5 18.5q42 0 69.5 -18.5t42.5 -51.5t20 -77h-272z" />
    <glyph glyph-name="partialdiff" unicode="&#x2202;" horiz-adv-x="536" 
d="M504 246q0 84 -23 160t-70.5 140.5t-121 116t-174.5 87.5l-24 -56q102 -40 166.5 -90t100.5 -108t50.5 -122.5t14.5 -133.5q0 -52 -18.5 -94t-53.5 -67t-85 -25t-84.5 25t-51.5 68.5t-17 97.5q1 52 19.5 94t53.5 67t84 25q35 0 64 -9.5t51 -26.5t40 -40l39 31
q-21 33 -51 58t-66.5 39.5t-75.5 14.5q-73 0 -126.5 -33t-82 -90t-29.5 -131q0 -76 27.5 -133.5t79.5 -91t124 -32.5q77 0 130 34t81.5 92.5t28.5 132.5z" />
    <glyph glyph-name="Delta" unicode="&#x2206;" horiz-adv-x="609" 
d="M262 680l-252 -680h589v12l-262 668h-75zM496 63h-386l189 512z" />
    <glyph glyph-name="product" unicode="&#x220f;" horiz-adv-x="621" 
d="M93 0h75v622h285v-622h75v680h-435v-680z" />
    <glyph glyph-name="summation" unicode="&#x2211;" horiz-adv-x="452" 
d="M395 680h-364v-60l195 -276l-196 -281v-63h402l-9 63h-310l181 265v34l-180 258h290z" />
    <glyph glyph-name="minus" unicode="&#x2212;" horiz-adv-x="477" 
d="M437 304h-407l8 -63h409z" />
    <glyph glyph-name="divisionslash" unicode="&#x2215;" horiz-adv-x="402" 
d="M315 710l-305 -710l76 -4l306 710z" />
    <glyph glyph-name="bulletmath" unicode="&#x2219;" horiz-adv-x="237" 
d="M119 239q25 0 44.5 12t31.5 32t12 44q0 25 -12 45t-31.5 32t-45.5 12q-24 0 -44.5 -12.5t-32 -32t-11.5 -44.5q0 -24 12 -44t32.5 -32t44.5 -12z" />
    <glyph glyph-name="radical" unicode="&#x221a;" horiz-adv-x="558" 
d="M474 710l-257 -631l-129 242l-78 -4l166 -317l81 -4l291 710z" />
    <glyph glyph-name="infinity" unicode="&#x221e;" horiz-adv-x="817" 
d="M235 461q-60 0 -105.5 -29t-71 -77.5t-25.5 -108.5q0 -59 25 -104.5t71.5 -71t107.5 -25.5q38 0 68 14t53 38.5t41 52.5q24 -32 52.5 -56t61 -36.5t69.5 -12.5q62 0 107 28.5t70 77t25 107.5q0 61 -25.5 106.5t-71 71t-106.5 25.5q-39 0 -69 -14.5t-53.5 -37.5t-42.5 -53
q-21 31 -49.5 54.5t-61.5 37t-70 13.5zM432 211l10 34q8 25 20 51t29 48t39.5 36t50.5 14q41 0 70 -18t44.5 -48.5t15.5 -67.5q0 -40 -15.5 -74t-45 -54.5t-71.5 -20.5q-33 2 -60.5 15t-49 35t-37.5 50zM386 293l-11 -33q-8 -25 -19.5 -51.5t-28 -49t-39 -36t-51.5 -13.5
q-41 0 -70 19t-45 49.5t-16 65.5q0 42 16 75.5t45 53.5t70 20q33 0 61 -13t50.5 -35.5t37.5 -51.5z" />
    <glyph glyph-name="integral" unicode="&#x222b;" horiz-adv-x="335" 
d="M207 631q0 36 15 59.5t50 23.5q9 0 18.5 -2.5t25.5 -7.5l19 62q-7 5 -19.5 8.5t-26 6t-28.5 2.5q-41 0 -71 -18t-46 -51t-16 -80v-660q0 -36 -14.5 -59t-52.5 -23q-10 0 -22.5 2.5t-20.5 5.5l-18 -62q8 -4 19.5 -8t25.5 -6.5t28 -2.5q42 0 72 18.5t46 52t16 79.5v660z
" />
    <glyph glyph-name="approxequal" unicode="&#x2248;" horiz-adv-x="506" 
d="M415 398q0 -15 -10 -24.5t-22 -13t-20 -3.5q-21 0 -46 5t-57 16q-61 22 -103 22q-18 0 -40 -3t-42 -13t-32.5 -28t-12.5 -48l59 -13q1 16 11.5 24.5t24 12t22.5 3.5q46 0 107 -21q30 -11 54 -17t42 -6q20 0 41 3.5t40.5 12.5t31.5 27.5t13 49.5zM415 218q0 -16 -10 -25
t-22 -12.5t-20 -4.5q-21 0 -46 6t-57 17q-61 22 -103 22q-18 0 -40 -3.5t-42 -13t-32.5 -27.5t-12.5 -49l59 -12q1 15 11.5 23.5t24 12.5t22.5 4q46 0 107 -22q30 -11 54 -16.5t42 -5.5q20 0 41 3t40.5 12.5t31.5 28t13 48.5z" />
    <glyph glyph-name="notequal" unicode="&#x2260;" horiz-adv-x="502" 
d="M329 520l-62 -140h-237l9 -61h201l-57 -127h-153l9 -62h118l-63 -140l68 -5l67 145h243l-8 62h-209l57 127h160l-8 61h-125l60 137z" />
    <glyph glyph-name="lessequal" unicode="&#x2264;" horiz-adv-x="334" 
d="M314 166l-205 128l205 127l-23 60l-261 -161v-55l261 -160zM305 60h-274l7 -60h273z" />
    <glyph glyph-name="greaterequal" unicode="&#x2265;" horiz-adv-x="334" 
d="M304 320l-261 161l-23 -61l205 -126l-205 -127l23 -62l261 159v56zM294 60h-273l7 -60h273z" />
    <glyph glyph-name="lozenge" unicode="&#x25ca;" horiz-adv-x="535" 
d="M283 0l222 288v23l-222 288h-31l-222 -288v-23l222 -288h31zM267 512l162 -213l-162 -211l-161 211z" />
    <glyph glyph-name="uni25CC" unicode="&#x25cc;" horiz-adv-x="610" 
d="M304 459q13 0 21 8t8 21t-8 21.5t-21 8.5t-21 -8.5t-8 -21.5t8 -21t21 -8zM394 444q13 0 21 8t8 21t-8 21t-21 8t-21 -8t-8 -21q0 -29 29 -29zM215 502q-13 0 -21 -8t-8 -21t8 -21t21 -8t21 8t8 21t-8 21t-21 8zM470 393q13 0 21.5 8t8.5 21t-8.5 21.5t-21.5 8.5
t-21 -8.5t-8 -21.5t8 -21t21 -8zM139 452q-13 0 -21.5 -8.5t-8.5 -21.5t8.5 -21t21.5 -8t21 8t8 21t-8 21.5t-21 8.5zM518 314q13 0 21 8t8 21t-8 21.5t-21 8.5t-21 -8.5t-8 -21.5t8 -21t21 -8zM91 373q-13 0 -21.5 -8.5t-8.5 -21.5t8.5 -21t21.5 -8t21 8t8 21t-8 21.5
t-21 8.5zM532 229q13 0 21.5 7.5t8.5 20.5q0 14 -8.5 22t-21.5 8t-21 -8t-8 -22q0 -13 8 -20.5t21 -7.5zM77 287q-13 0 -21.5 -8t-8.5 -22q0 -13 8.5 -20.5t21.5 -7.5t21 7.5t8 20.5q0 14 -8 22t-21 8zM518 145q13 0 21 8t8 21t-8 21t-21 8t-21 -8t-8 -21t8 -21t21 -8z
M91 203q-13 0 -21.5 -8t-8.5 -21t8.5 -21t21.5 -8t21 8t8 21t-8 21t-21 8zM471 65q13 0 21.5 8t8.5 21t-8.5 21t-21.5 8t-21 -8t-8 -21t8 -21t21 -8zM138 123q-13 0 -21.5 -8t-8.5 -21t8.5 -21t21.5 -8t21 8t8 21t-8 21t-21 8zM215 74q-13 0 -21 -8.5t-8 -21.5t8 -21t21 -8
t21 8t8 21t-8 21.5t-21 8.5zM394 15q13 0 21 8t8 21t-8 21.5t-21 8.5t-21 -8.5t-8 -21.5t8 -21t21 -8zM304 0q13 0 21 8t8 21t-8 21.5t-21 8.5t-21 -8.5t-8 -21.5t8 -21t21 -8z" />
    <glyph glyph-name="commaaccent" unicode="&#xf6c3;" horiz-adv-x="0" 
d="M74 -21q-14 0 -26.5 -8t-20 -19.5t-7.5 -27.5q0 -19 13.5 -35.5t32.5 -17.5q-3 -25 -19 -42.5t-37 -30.5l21 -38q27 13 49 37.5t35 55.5t13 63q0 29 -16 46t-38 17z" />
    <glyph glyph-name="fi" unicode="&#xfb01;" horiz-adv-x="504" 
d="M17 417h72v-417h80v417h115l-26 60h-89v71q0 36 15.5 59.5t52.5 23.5q10 0 23 -3.5t21 -6.5l18 63q-7 5 -19 9t-26 6.5t-28 2.5q-42 0 -73 -18.5t-47.5 -52t-16.5 -79.5v-75h-73zM442 0v485h-80v-485h80zM401 581q22 0 38 15.5t16 38.5t-16.5 38.5t-38.5 15.5
q-23 0 -38 -15.5t-15 -38.5t15 -38.5t39 -15.5z" />
    <glyph glyph-name="fl" unicode="&#xfb02;" horiz-adv-x="523" 
d="M17 417h72v-417h80v417h115l-26 60h-89v71q0 36 15.5 59.5t52.5 23.5q10 0 23 -3.5t21 -6.5l18 63q-7 5 -19 9t-26 6.5t-28 2.5q-42 0 -73 -18.5t-47.5 -52t-16.5 -79.5v-75h-73zM450 0v706l-78 -11v-695h78z" />
    <glyph glyph-name="grave.case" horiz-adv-x="160" 
d="M98 739l52 15l-53 141h-87z" />
    <glyph glyph-name="dieresis.case" horiz-adv-x="283" 
d="M59 764q21 0 35 14t14 35q0 19 -14 33.5t-35 14.5q-20 0 -34.5 -14.5t-14.5 -33.5q0 -21 14.5 -35t34.5 -14zM224 764q21 0 35 14t14 35q0 19 -14 33.5t-35 14.5q-20 0 -34.5 -14.5t-14.5 -33.5q0 -21 14.5 -35t34.5 -14z" />
    <glyph glyph-name="macron.case" horiz-adv-x="266" 
d="M10 783h246l-8 62h-238v-62z" />
    <glyph glyph-name="acute.case" horiz-adv-x="160" 
d="M63 739l87 156h-86l-54 -141z" />
    <glyph glyph-name="circumflex.case" horiz-adv-x="312" 
d="M156 837l74 -98l72 10l-115 146h-63l-114 -146l71 -10z" />
    <glyph glyph-name="caron.case" horiz-adv-x="312" 
d="M156 797l-74 98l-72 -10l116 -146h63l113 145l-71 11z" />
    <glyph glyph-name="breve.case" horiz-adv-x="289" 
d="M221 887q0 -28 -19.5 -54t-57.5 -26q-39 0 -58.5 26t-19.5 54h-56q0 -36 14 -67.5t43.5 -51t76.5 -20.5q47 1 77 20.5t44 51t14 67.5h-58z" />
    <glyph glyph-name="dotaccent.case" horiz-adv-x="127" 
d="M65 762q22 0 37 15.5t15 38.5q0 22 -15 38.5t-37 16.5q-23 0 -39 -16.5t-16 -38.5t16 -38t39 -16z" />
    <glyph glyph-name="ring.case" horiz-adv-x="206" 
d="M104 918q-25 0 -46.5 -11.5t-34.5 -32t-13 -45.5q0 -37 28 -61t65 -24q26 0 47 11t33.5 30.5t12.5 43.5q0 25 -12.5 45.5t-33.5 32t-46 11.5zM104 788q-18 0 -30.5 12t-12.5 29q0 18 12.5 30.5t30.5 12.5q17 0 29.5 -12t12.5 -31q0 -17 -12.5 -29t-29.5 -12z" />
    <glyph glyph-name="tilde.case" horiz-adv-x="311" 
d="M247 853q-2 -20 -12 -30t-23 -10t-25.5 6t-23.5 16q-11 12 -27 17t-37 5q-24 0 -44 -8.5t-32.5 -30t-12.5 -59.5h55q2 19 13 29.5t24 10.5t25.5 -5.5t25.5 -16.5q12 -11 27 -17t32 -6q25 0 45.5 9.5t32 31t11.5 58.5h-54z" />
    <glyph glyph-name="hungarumlaut.case" horiz-adv-x="314" 
d="M63 739l87 156h-86l-54 -141zM216 739l88 156h-87l-54 -141z" />
    <glyph glyph-name="tm_LllUu" horiz-adv-x="1265" 
d="M599 518l-71 -5v-513h472q72 0 119 30t70.5 82t23.5 119q0 87 -26.5 155t-76 106.5t-122.5 38.5q-52 0 -91.5 -22t-62 -65.5t-22.5 -109.5v-345q0 -40 13.5 -70.5t47.5 -45.5q-28 -22 -70 -37t-94.5 -22.5t-113.5 -7.5q-101 0 -183.5 28t-141.5 78.5t-90.5 119.5
t-31.5 152q0 58 14 110.5t40.5 93t63 63.5t80.5 23q24 0 40.5 -17t16.5 -43q0 -24 -16.5 -41t-40.5 -17q-27 0 -44 17t-17 41q0 26 17 43t44 17v47q-51 0 -83.5 -30.5t-32.5 -77.5q0 -48 32.5 -79.5t83.5 -31.5q34 0 60.5 14.5t41.5 40t15 57.5q0 51 -34 84t-88 33
q-57 0 -105.5 -27.5t-85 -76t-57 -111t-20.5 -132.5q0 -96 37 -176.5t106.5 -139.5t165.5 -91.5t213 -32.5q82 0 152 14.5t122.5 41t82.5 59.5h165l-8 56h-164q-31 0 -46.5 18t-15.5 59v344q0 70 29.5 101.5t77.5 31.5q49 0 81.5 -31t49 -84.5t16.5 -122.5
q0 -50 -13.5 -89.5t-43.5 -62t-80 -22.5h-401v461z" />
    <glyph glyph-name="tm_VowelU.alt2" horiz-adv-x="471" 
d="M265 457h-535v56h532q52 0 91.5 -20.5t62.5 -56.5t23 -82q0 -47 -23 -83t-61.5 -56.5t-89.5 -20.5q-49 0 -88 20.5t-61 56.5t-22 82q0 45 21.5 80t60.5 55.5t89 20.5v-52q-45 0 -74 -29t-29 -74t29 -74.5t74 -29.5t73.5 29.5t28.5 74.5t-28.5 74t-73.5 29z" />
    <glyph glyph-name="tm_VowelUu.alt1" horiz-adv-x="427" 
d="M228 457v-603h-72v603h-320v56h572l9 -56h-189z" />
    <glyph glyph-name="tm_CU" horiz-adv-x="809" 
d="M667 0h-72v262l72 2v-264zM477 205q0 -67 -28.5 -117t-81.5 -78t-125 -28q-59 0 -104 20.5t-70 56.5t-25 81q0 71 54.5 114.5t150.5 43.5h524l5 -56h-527q-64 0 -98 -28t-34 -74q0 -41 34 -68.5t89 -27.5q52 0 89 20t56 56.5t19 84.5v252h-170v-194h-72v250h479l9 -56
h-174v-252z" />
    <glyph glyph-name="tm_MUu" horiz-adv-x="1265" 
d="M599 518v-461h401q50 0 80 22.5t43.5 62t13.5 89.5q0 69 -16.5 122.5t-49 84.5t-81.5 31q-47 0 -77 -31.5t-30 -102.5v-289q0 -65 -26 -120.5t-74.5 -96t-118.5 -63t-158 -22.5q-101 0 -181.5 31t-137 88.5t-85.5 136.5t-29 174q0 73 19.5 138t55 114t83.5 77t105 28
q54 0 88 -33t34 -84q0 -32 -15 -57.5t-42 -40t-61 -14.5q-50 0 -82.5 31.5t-32.5 79.5q0 47 32.5 77.5t83.5 30.5v-47q-27 0 -44 -16.5t-17 -43.5q0 -24 17 -41t43 -17t42 17t16 41q0 26 -16 43t-41 17q-44 0 -79.5 -23.5t-61 -64t-39 -95.5t-13.5 -117q0 -82 23.5 -149
t69.5 -116t113 -76t152 -27q97 0 165.5 30.5t104.5 83t36 119.5v295q0 66 22.5 109.5t62 65.5t91.5 22q73 0 122 -38.5t76 -106.5t27 -155q0 -67 -23.5 -119t-70.5 -82t-119 -30h-472v513z" />
    <glyph glyph-name="tm_TtU" horiz-adv-x="819" 
d="M582 354q44 0 78.5 -20.5t58 -56.5t35.5 -83t12 -99q0 -102 -40 -181t-117 -124.5t-187 -45.5q-111 0 -189 50.5t-119 138.5t-41 201q0 47 10 101.5t28.5 109t45 101t56.5 77.5l72 -10q-31 -27 -56 -71t-43 -97t-28 -108t-10 -105q0 -94 31 -168t92.5 -116t150.5 -42
t148.5 37.5t90 102.5t30.5 149q0 52 -12 96.5t-36.5 72t-62.5 27.5q-50 0 -81 -36.5t-31 -92.5v-162h-71v513h71v-207q22 23 51 35.5t63 12.5z" />
    <glyph glyph-name="tm_LlU" horiz-adv-x="1611" 
d="M1028 -200q102 0 186.5 20.5t144.5 61t92.5 100.5t32.5 140q0 74 -26.5 122.5t-82.5 48.5q-49 0 -81 -37.5t-32 -93.5h-51q0 54 20.5 97.5t58 69t87.5 25.5q57 0 98 -30t62.5 -82t21.5 -120q0 -93 -37 -163.5t-107 -118.5t-168 -72t-219 -24h-379q-134 0 -240.5 30
t-181.5 86t-114.5 134.5t-39.5 175.5q0 64 18.5 130.5t51.5 125t75 97.5l72 -10q-40 -34 -72.5 -90t-51 -122t-18.5 -133q0 -82 34.5 -149t100 -115.5t158 -75.5t208.5 -28h379zM375 237q0 -57 22.5 -102t68.5 -70.5t114 -25.5q45 0 74.5 29t29.5 73q0 45 -29.5 74.5
t-74.5 29.5t-74 -29.5t-29 -73.5q0 -45 29 -74t74 -29v-39q-46 0 -83.5 18.5t-58.5 50.5t-21 73q0 47 21 82.5t58.5 56t83.5 20.5q50 0 89 -20.5t61 -56.5t22 -83q0 -45 -22.5 -81.5t-62 -57t-90.5 -20.5q-86 0 -148.5 34t-95.5 91.5t-33 129.5q0 86 40 152t113.5 104
t172.5 38q78 0 142.5 -33t105.5 -90v105h572l8 -56h-188v-457h-71v457h-250v-457h-71v228q0 70 -32.5 124.5t-89 85.5t-126.5 31q-77 0 -134 -30t-87 -82.5t-30 -119.5z" />
    <glyph glyph-name="tm_LllU" horiz-adv-x="1119" 
d="M737 336q0 70 30.5 101.5t78.5 31.5t80 -31t48.5 -84.5t16.5 -122.5q0 -50 -13.5 -89.5t-43.5 -62t-79 -22.5h-401v461l-72 -5v-513h473q72 0 119 30t70 82t23 119q0 87 -26.5 155t-76 106.5t-120.5 38.5q-53 0 -92.5 -22t-62 -65.5t-22.5 -109.5v-346q0 -40 13.5 -70
t47.5 -46q-32 -36 -87.5 -51t-126.5 -15q-87 0 -155 26t-115.5 73t-71.5 111.5t-24 140.5q0 52 9.5 103.5t26 99t39.5 87t49 66.5l-72 10q-27 -31 -51 -73t-41 -90.5t-26 -99.5t-9 -101q0 -91 29.5 -166.5t87 -131t139.5 -86.5t185 -31q66 0 123.5 14t101.5 40t67 61h166
l-8 56h-163q-21 0 -35 11t-21.5 28.5t-7.5 37.5v344z" />
    <glyph glyph-name="tm_Shree" horiz-adv-x="1811" 
d="M1226 -200q104 0 188 20.5t144 61t92.5 100.5t32.5 140q0 74 -26.5 122.5t-82.5 48.5q-49 0 -81.5 -37.5t-32.5 -93.5v-162h-71v457h-232v-457h-70v310q0 69 -32 114t-96 45q-52 0 -82.5 -33t-30.5 -112v-324h-479v513l71 5v-461h336v267q0 70 23.5 116t65 68.5
t96.5 22.5q41 0 73 -16t55 -45v43h252q-30 27 -46.5 66.5t-16.5 85.5q0 62 30 110t82 75.5t119 27.5q60 0 109.5 -26t78.5 -69t29 -92q0 -48 -30.5 -80t-78.5 -32q-46 0 -77 28t-32 70q-1 40 23.5 68t64.5 33q6 1 11 1h10q-19 18 -46.5 27.5t-61.5 9.5q-45 0 -80 -19.5
t-55.5 -53.5t-20.5 -78t16.5 -78.5t45.5 -54t67 -19.5h160l8 -56h-188v-154q21 24 50.5 37.5t64.5 13.5q58 0 99 -30t62.5 -82t21.5 -120q0 -93 -37.5 -163.5t-107 -118.5t-167.5 -72t-220 -24h-577q-134 0 -241 30t-181.5 86t-114 134.5t-39.5 175.5q0 64 18.5 130.5
t51.5 125t75 97.5l72 -10q-40 -34 -72.5 -90t-51 -122t-18.5 -133q0 -83 34.5 -150t99.5 -115.5t157.5 -75t209.5 -27.5h577zM1568 680q0 -21 13.5 -35t33.5 -14q23 0 37 14t14 35q0 20 -14 34t-37 14q-20 0 -33.5 -14t-13.5 -34z" />
    <glyph glyph-name="tm_VowelI.alt4" horiz-adv-x="253" 
d="M-198 797q113 0 194 -38t124 -104t43 -152v-503h-70v503q0 68 -34 120.5t-99 82.5t-158 30q-106 0 -160 -33.5t-54 -84.5q0 -48 33 -76.5t96 -28.5v-50q-93 0 -147 43t-55 112q0 53 33.5 93t97.5 63t156 23z" />
    <glyph glyph-name="tm_VUu" horiz-adv-x="1239" 
d="M1056 80q53 0 91.5 -23t60 -62.5t21.5 -90.5q0 -86 -48.5 -146.5t-133 -91.5t-195.5 -31h-563q-67 0 -118.5 14.5t-81 43.5t-29.5 70q0 52 38 86.5t99 34.5h579v-57h-579q-29 0 -45.5 -18.5t-16.5 -45.5q0 -35 43 -53.5t111 -18.5h563q89 0 157 24.5t106.5 72t38.5 115.5
q0 47 -27 81t-76 34t-80 -34.5t-31 -87.5v-87h-71v310h71v-87q22 22 51.5 35t64.5 13zM622 255q0 62 -29.5 110t-83 76t-126.5 28q-79 0 -137 -30t-88 -82.5t-30 -119.5q0 -57 22.5 -102t68.5 -70.5t113 -25.5q46 0 75.5 29t29.5 73q0 45 -29.5 74.5t-75.5 29.5
q-44 0 -73 -29.5t-29 -73.5q0 -45 29 -74t73 -29v-39q-46 0 -83 18.5t-58 50.5t-21 73q0 47 21 82.5t58 56t83 20.5q50 0 89 -20.5t61.5 -56.5t22.5 -83q0 -45 -23 -81.5t-62.5 -57t-90.5 -20.5q-86 0 -148.5 34t-95 91.5t-32.5 129.5q0 86 40 152t114.5 104t175.5 38
q93 0 163.5 -35.5t110.5 -98t40 -142.5q0 -56 -16.5 -107.5t-45.5 -90.5h234v456h71v-513h-388v57q30 37 50 87t20 111z" />
    <glyph glyph-name="tm_KU" horiz-adv-x="1062" 
d="M444 263v250h478l9 -56h-174v-252q0 -67 -28 -117t-80.5 -78t-126.5 -28q-58 0 -103 20.5t-70.5 56.5t-25.5 81q0 71 54.5 114.5t151.5 43.5h241q80 0 133 -32t79.5 -84t26.5 -113q0 -75 -30 -135t-88 -102.5t-141 -65t-189 -22.5q-155 0 -264.5 53.5t-166.5 148
t-57 215.5q0 47 10.5 98.5t30 101t46.5 91.5t58 71l72 -10q-30 -25 -56.5 -65t-45.5 -87.5t-29.5 -99.5t-10.5 -102q0 -102 47.5 -181.5t140 -125.5t225.5 -46q119 0 202.5 32t127 91t43.5 140q0 44 -16.5 83.5t-52.5 64.5t-94 25h-241q-64 0 -98 -28t-34 -74
q0 -41 34 -68.5t90 -27.5q52 0 88.5 20t56 56.5t19.5 84.5v252h-171v-194h-71z" />
    <glyph glyph-name="tm_LlUu" horiz-adv-x="1793" 
d="M640 -200h568q104 0 188 20.5t144.5 61t93 100.5t32.5 140q0 74 -27 122.5t-83 48.5q-50 0 -82 -37.5t-32 -93.5h-50q0 54 20.5 97.5t58 69t87.5 25.5q58 0 98.5 -30t62 -82.5t21.5 -119.5q0 -93 -37 -163.5t-106.5 -118.5t-168 -72t-220.5 -24h-568q-131 0 -235.5 28.5
t-179 82t-113.5 129t-39 169.5q0 84 19.5 153t56 119.5t85 78t106.5 27.5q34 0 60.5 -15t42 -41t15.5 -60q0 -33 -15 -58.5t-41.5 -40t-61.5 -14.5q-50 0 -82.5 32t-32.5 79t32.5 77.5t83.5 30.5v-47q-27 0 -44 -16.5t-17 -43.5q0 -24 17 -41t43 -17t42 16.5t16 41.5
q0 26 -16 43t-41 17q-59 0 -102.5 -40t-67 -112.5t-23.5 -168.5q0 -80 34 -145.5t98 -111.5t154.5 -71t205.5 -25zM556 237q0 -58 23 -102.5t68.5 -70t114.5 -25.5q45 0 74 29t29 73q0 45 -29 74.5t-75 29.5q-44 0 -73.5 -29t-29.5 -75q0 -44 29.5 -73t74.5 -29v-39
q-47 0 -84.5 18.5t-58.5 50.5t-21 73q0 47 21.5 82.5t58.5 56t84 20.5q50 0 88.5 -20.5t60.5 -56t22 -83.5q0 -46 -22.5 -82t-61.5 -56.5t-90 -20.5q-87 0 -149 34t-95.5 91.5t-33.5 129.5q0 86 40 152t113.5 104t173.5 38q77 0 142 -33t105 -90v105h573l8 -56h-188v-457
h-72v457h-250v-457h-71v228q0 71 -32.5 125t-88.5 85t-126 31q-78 0 -134.5 -30t-87 -82.5t-30.5 -119.5z" />
    <glyph glyph-name="tm_VowelAi.alt" horiz-adv-x="361" 
d="M235 580q-44 0 -74.5 -17.5t-47 -46.5t-16.5 -66q0 -19 12.5 -31.5t30.5 -12.5q20 0 33 12.5t13 30.5q0 21 -13 33t-31 12q-20 0 -32.5 -12t-12.5 -32l-51 -1q-1 44 26.5 72t69.5 28q47 0 76.5 -28t27.5 -72q0 -42 -30 -70t-74 -28q-47 1 -78 30t-31 75q0 51 26 93.5
t71 67.5t105 25q53 0 93 -21t62.5 -57t22.5 -82q0 -35 -15 -65.5t-39.5 -58.5t-51.5 -56l-62 -60q-38 -38 -55 -63t-17 -53q0 -35 25.5 -58.5t68.5 -23.5t77 22t52.5 61.5t17.5 89.5h62q0 -67 -27 -120.5t-74.5 -84t-107.5 -30.5q-50 0 -88.5 18.5t-60 51t-21.5 74.5
q0 29 12.5 55t35.5 52.5t55 58.5l61 61q22 22 39.5 41.5t27.5 41t10 49.5q0 27 -13 48.5t-36 34t-54 12.5z" />
    <glyph glyph-name="tm_KUu" horiz-adv-x="1091" 
d="M1081 0h-257l52 57h205v-57zM582 298q57 0 101.5 -25t70.5 -68t26 -98q0 -37 -16 -65t-43 -44t-63 -16q-34 0 -61.5 16t-44 44t-16.5 65q0 45 17 83t47 66t70 43.5t87 15.5q54 0 94 -22t62 -60t22 -88q0 -28 -4.5 -52.5t-12.5 -47.5l-94 -45q18 33 27 73.5t9 71.5
q0 49 -27 78.5t-76 29.5q-40 0 -75 -18.5t-55 -51t-20 -76.5q0 -28 14.5 -46t36.5 -18t37 18t15 46q0 39 -18.5 69.5t-49 48t-68.5 17.5h-324q-65 0 -98.5 -28t-33.5 -74q0 -41 34 -68.5t89 -27.5q52 0 89 20t56 56.5t19 84.5v252h-170v-194h-72v250h479l9 -56h-174v-252
q0 -67 -28.5 -117t-81 -78t-126.5 -28q-58 0 -103 20.5t-70 56.5t-25 81q0 71 54.5 114.5t150.5 43.5h334z" />
    <glyph glyph-name="tm_NU" horiz-adv-x="1007" 
d="M415 457v-457h-71v457h-181v-457h-70v513h502l9 -56h-189zM713 122q0 -138 -45.5 -242t-135 -161.5t-223.5 -57.5q-69 0 -117.5 18t-73.5 48.5t-25 69.5q0 51 35 81.5t109 30.5h607v604h71v-659h-678q-37 0 -53 -16t-16 -41q0 -31 37 -52.5t104 -21.5q98 0 162 33.5
t100.5 91t51.5 128.5t15 146q0 74 -25 122.5t-84 48.5q-49 0 -81.5 -37.5t-32.5 -93.5h-50q0 54 20.5 97.5t58 69t87.5 25.5q60 0 100.5 -30t61 -82t20.5 -120z" />
    <glyph glyph-name="tm_VowelI.alt1" horiz-adv-x="253" 
d="M-140 797q92 0 160.5 -38t105.5 -104t37 -152v-503h-70v503q0 68 -28.5 120.5t-80.5 82.5t-124 30q-76 0 -117.5 -31.5t-41.5 -82.5q0 -35 19.5 -68t56.5 -44l-64 -32q-40 21 -62.5 61t-23.5 83q0 51 28.5 90.5t81 62t123.5 22.5z" />
    <glyph glyph-name="tm_VowelI.alt2" horiz-adv-x="253" 
d="M-248 797q94 0 170 -21.5t130 -61t82.5 -93.5t28.5 -118v-503h-70v503q0 68 -41.5 120.5t-117.5 82.5t-182 30q-112 0 -165 -34t-53 -84q0 -35 19 -63.5t56 -40.5l-45 -39q-48 19 -75 57t-28 86q0 51 33 91t98 64t160 24z" />
    <glyph glyph-name="tm_VowelUu.alt2" horiz-adv-x="666" 
d="M368 612q77 0 136.5 -33.5t94 -92.5t34.5 -134q0 -78 -39.5 -139.5t-108 -97t-156.5 -35.5h-58v57h58q67 0 118.5 27.5t81 76.5t29.5 111q0 58 -25 103t-67.5 71t-97.5 26q-40 0 -72.5 -10t-57.5 -29h29q51 0 89.5 -20.5t60 -56.5t21.5 -82t-21.5 -82t-59.5 -55.5
t-87 -19.5q-50 0 -88.5 21.5t-60.5 59.5t-22 86q0 26 4.5 49t13.5 44h-404v56h435q35 46 92 72.5t128 26.5zM367 354q0 45 -28 74t-79 29h-73q-10 -20 -16 -43.5t-6 -49.5q0 -47 29.5 -79.5t75.5 -32.5q42 0 69.5 28t27.5 74z" />
    <glyph glyph-name="tm_RU" horiz-adv-x="1089" 
d="M854 354q57 0 98 -30t63 -82t22 -120q0 -82 -33.5 -151t-96 -120t-151 -79t-200.5 -28q-113 0 -202 31.5t-152 88t-96 133t-33 168.5q0 64 19 131.5t51.5 127.5t74.5 99l72 -10q-40 -34 -72.5 -90.5t-51 -124.5t-18.5 -135q0 -103 48.5 -183.5t140 -127t219.5 -46.5
t218 41t138.5 112.5t48.5 162.5q0 49 -11.5 88t-36 61t-61.5 22q-49 0 -81.5 -37.5t-32.5 -93.5v-162h-70v457h-214v-457h-72v513h537l8 -56h-189v-153q22 23 51.5 36.5t64.5 13.5z" />
    <glyph glyph-name="tm_TtI" horiz-adv-x="823" 
d="M806 57h-643v461l-70 -5v-513h720zM488 531q-63 0 -108 -31.5t-68.5 -87t-23.5 -128.5q0 -86 32.5 -148.5t89 -96.5t129.5 -34v52q-51 0 -91 29.5t-63 80.5t-23 117q0 54 14.5 95.5t43 65.5t68.5 24q58 0 86 -43.5t28 -110.5v-558h71v558q0 63 -21 112t-62.5 76.5
t-101.5 27.5z" />
    <glyph glyph-name="tm_TtIi" horiz-adv-x="783" 
d="M765 57h-602v461l-70 -5v-513h680zM508 421q-67 0 -119.5 -27.5t-82.5 -75.5t-30 -109q0 -60 26.5 -106.5t72.5 -73t105 -26.5v54q-39 0 -67.5 19.5t-45 54t-16.5 78.5t20.5 77.5t56 53t80.5 19.5q48 0 83 -17.5t55 -47.5t20 -71q0 -21 -14 -35t-36 -14q-21 0 -35 14
t-14 35q0 20 14 34t35 14q22 0 36 -14t14 -34l53 -1q0 45 -30 74t-76 29q-31 0 -55.5 -13.5t-38 -37t-13.5 -54.5q2 -42 33 -70t77 -28q47 0 77.5 32t30.5 80q0 50 -29 92.5t-78 68.5t-109 26z" />
    <glyph glyph-name="tm_NyU" horiz-adv-x="1234" 
d="M128 237q0 -44 12.5 -79.5t39.5 -62.5q-5 10 -7.5 22t-2.5 25q0 47 21 82.5t58 56t83 20.5q50 0 89 -20.5t61.5 -56.5t22.5 -83q0 -45 -23 -81.5t-62.5 -57t-90.5 -20.5q-86 0 -148.5 34t-95 91.5t-32.5 129.5q0 80 36 142.5t108.5 98t182.5 35.5h441l8 -56h-189v-153
q22 23 51 36.5t65 13.5q58 0 98.5 -30t62 -82t21.5 -120q0 -59 -14 -112t-41 -101h187v604h71v-659h-298q-74 -90 -199 -141.5t-292 -51.5q-85 0 -145 16t-91.5 48t-31.5 78q0 48 39 77t109 29h564q33 46 50 100t17 113q0 50 -12 88.5t-35.5 60.5t-61.5 22q-48 0 -81 -37.5
t-33 -93.5v-162h-71v457h-180q-90 0 -148.5 -28t-85.5 -77.5t-27 -114.5zM230 142q0 -45 29 -74t73 -29q46 0 75.5 29t29.5 73q0 45 -29.5 74.5t-75.5 29.5q-44 0 -73 -29.5t-29 -73.5zM352 -277q125 0 224.5 35t166.5 96h-511q-37 0 -55 -14.5t-18 -36.5q0 -28 25 -45.5
t68.5 -26t99.5 -8.5z" />
    <glyph glyph-name="tm_CUu" horiz-adv-x="1234" 
d="M748 205q0 -67 -28.5 -117t-81 -78t-124.5 -28q-59 0 -104 20.5t-70.5 56.5t-25.5 81q0 71 54.5 114.5t150.5 43.5h524l4 -56h-526q-64 0 -98 -28t-34 -74q0 -41 34.5 -68.5t90.5 -27.5q52 0 88 20t55.5 56.5t19.5 84.5v252h-171v-194h-71v250h479l7 -56h-173v-252z
M1030 179q46 0 80 -21t52.5 -58t18.5 -84q0 -64 -36 -115t-104.5 -85.5t-164 -53t-215.5 -18.5q-137 0 -245.5 29.5t-185 85.5t-117 134.5t-40.5 176.5q0 64 18.5 130t51.5 125t75 98l72 -10q-40 -34 -72.5 -90t-51 -122t-18.5 -133q0 -112 62.5 -193.5t177.5 -125
t273 -43.5q135 0 234.5 24.5t155 71.5t55.5 115q0 44 -21.5 73t-54.5 29q-39 0 -65.5 -27.5t-26.5 -70.5v-21h-71v262l71 2v-119q17 16 40.5 25t51.5 9z" />
    <glyph glyph-name="tm_NnU" horiz-adv-x="1922" 
d="M1486 241q0 107 -46.5 167.5t-142.5 60.5q-58 0 -106.5 -22t-84 -61.5t-55 -93.5t-19.5 -118q0 -57 23 -93.5t65 -36.5q44 0 66.5 36.5t22.5 93.5q0 64 -21.5 118t-60 93.5t-90.5 61.5t-113 22q-87 0 -151.5 -39t-99 -106t-34.5 -150q0 -57 23 -93.5t65 -36.5
q45 0 67.5 36.5t22.5 93.5q0 64 -26.5 118t-74.5 93.5t-114 61.5t-147 22q-99 0 -172.5 -31.5t-114 -85.5t-40.5 -124q0 -55 22.5 -98t68 -67t113.5 -24q46 0 75.5 29t29.5 73q0 45 -29.5 74.5t-75.5 29.5q-44 0 -73 -29.5t-29 -73.5q0 -45 29 -74t73 -29v-39
q-46 0 -83 18.5t-58 50.5t-21 73q0 47 21 82.5t58 56t83 20.5q50 0 89 -20.5t61.5 -56.5t22.5 -83q0 -45 -23 -81.5t-62.5 -57t-90.5 -20.5q-86 0 -148.5 32t-95 88.5t-32.5 125.5q0 88 49.5 156t140.5 107.5t212 39.5q95 0 175 -27.5t138.5 -76t91 -113.5t32.5 -140
q0 -56 -19.5 -99.5t-56.5 -68t-89 -24.5q-50 0 -87 24.5t-56.5 68t-19.5 99.5q0 75 25.5 140t74 113.5t114.5 76t146 27.5q77 0 143 -26.5t114.5 -74.5t75.5 -113.5t27 -142.5q0 -56 -20 -99.5t-56 -68t-88 -24.5q-50 0 -87 24.5t-56.5 68t-19.5 99.5q0 76 27 141
t74.5 113.5t109 75.5t129.5 27q128 0 196 -77t68 -214q0 -129 -65.5 -236t-197 -183.5t-327 -118t-455.5 -41.5q-154 0 -249.5 19t-139 53.5t-43.5 77.5t36 70.5t104 27.5h1534v604h71v-659h-1605q-32 0 -48.5 -12.5t-16.5 -30.5q0 -26 41 -46t121 -31.5t195 -11.5
q195 0 350.5 23.5t271.5 68t193.5 108t116 144t38.5 175.5z" />
    <glyph glyph-name="tm_MU" horiz-adv-x="1119" 
d="M454 518l-72 -5v-513h473q72 0 119 30t70 82t23 119q0 87 -26.5 155t-76 106.5t-120.5 38.5q-53 0 -92.5 -22t-62 -65.5t-22.5 -109.5v-305q0 -65 -27 -115t-81 -79t-135 -29q-67 0 -119 24.5t-86.5 69t-52.5 106t-18 136.5q0 54 9.5 108t26 104t39.5 91t49 68l-72 10
q-27 -31 -51 -74.5t-41 -95t-26 -104.5t-9 -105q0 -88 23 -161.5t68 -127t110.5 -82.5t149.5 -29q102 0 171.5 37.5t105.5 104t36 152.5v298q0 70 30.5 101.5t78.5 31.5t80 -31t48.5 -84.5t16.5 -122.5q0 -50 -13.5 -89.5t-43.5 -62t-79 -22.5h-401v461z" />
    <glyph glyph-name="tm_RUu" horiz-adv-x="1234" 
d="M884 457v-457h-71v457h-214v-457h-71v513h536l8 -56h-188zM640 -194q146 0 250.5 41t160 112.5t55.5 162.5q0 49 -11.5 88t-35.5 61t-61 22q-49 0 -81.5 -37.5t-32.5 -93.5h-50q0 54 20.5 97.5t58 69t87.5 25.5q57 0 98 -30t62.5 -82t21.5 -120q0 -82 -38 -151
t-108.5 -120t-170.5 -79t-225 -28q-129 0 -233.5 32t-179.5 92t-114.5 142.5t-39.5 183.5q0 68 19.5 128.5t56 107.5t85 74t107.5 27q34 0 60 -15t41.5 -41t15.5 -60q0 -33 -15 -58.5t-41.5 -40t-60.5 -14.5q-51 0 -83.5 32t-32.5 79t32.5 77.5t83.5 30.5v-47
q-27 0 -44 -16.5t-17 -42.5q0 -25 17 -42t44 -17q25 0 41 16.5t16 41.5q0 26 -16 43t-41 17q-45 0 -80 -22.5t-60.5 -61t-39 -89t-13.5 -107.5q0 -88 34 -159.5t99 -122t155.5 -78.5t203.5 -28z" />
    <glyph glyph-name="tm_RrU" horiz-adv-x="1079" 
d="M987 513v-659h-301q-57 -90 -149 -141.5t-219 -51.5q-71 0 -122.5 17.5t-80 49t-28.5 73.5q0 51 38 79.5t116 28.5h396q35 65 52 147t17 175q0 69 -14 122.5t-44.5 84.5t-81.5 31q-30 0 -56 -14t-42.5 -43t-16.5 -76v-336h-71v312q0 47 -12 82t-36.5 55t-64.5 20
q-52 0 -78.5 -36t-26.5 -109v-324h-70v324q0 67 19.5 113t59 70t94.5 24q49 0 86 -24t60 -65q23 41 63 65t90 24q74 0 121.5 -38.5t71 -106.5t23.5 -155q0 -91 -15.5 -172.5t-47.5 -149.5h199v604h71zM318 -277q94 0 164 34.5t117 96.5h-358q-41 0 -60 -14t-19 -39
q0 -24 18.5 -42t53.5 -27t84 -9z" />
    <glyph glyph-name="tm_TtUu" horiz-adv-x="879" 
d="M411 513h70v-208q22 24 51 36.5t63 12.5q45 0 79 -20.5t58 -56.5t36 -82.5t12 -99.5q0 -76 -22.5 -140.5t-66 -111.5t-106.5 -73t-145 -26q-85 0 -153 35t-116 101t-73 158.5t-25 207.5q0 112 28 210.5t81.5 172.5t131 116.5t176.5 42.5q75 0 136.5 -21.5t106.5 -59
t69.5 -87.5t24.5 -108q0 -49 -30 -81t-76 -32q-47 0 -77.5 28t-32.5 70q-1 46 29 75t78 29q46 0 75.5 -28.5t29.5 -73.5l-51 1q0 21 -14.5 35.5t-36.5 14.5t-36.5 -14.5t-14.5 -35.5q0 -22 14.5 -36.5t36.5 -14.5t36.5 14.5t14.5 36.5q0 48 -19 89.5t-55 72t-88 47.5
t-120 17q-83 0 -147.5 -37.5t-108 -104.5t-65 -154t-21.5 -186q0 -101 19.5 -182t57 -138t92 -87.5t123.5 -30.5q87 0 146 37t88.5 102.5t29.5 149.5q0 52 -12 96.5t-36.5 72t-62.5 27.5q-50 0 -81 -36.5t-31 -92.5v-162h-70v513z" />
    <glyph glyph-name="tm_NgUu" horiz-adv-x="1187" 
d="M1005 80q52 0 90.5 -23t60 -62.5t21.5 -90.5q0 -86 -48 -146.5t-133 -91.5t-196 -31h-511q-67 0 -118.5 14.5t-81 43.5t-29.5 70q0 52 38 86.5t99 34.5h527v-57h-527q-29 0 -45.5 -18.5t-16.5 -45.5q0 -35 43 -53.5t111 -18.5h511q89 0 157 24.5t106.5 72t38.5 115.5
q0 47 -27 81t-76 34t-80 -34.5t-31 -87.5v-87h-71v310h71v-87q22 22 51.5 35t65.5 13zM415 457v-305h-71v305h-181v-457h-70v513h502l9 -56h-189zM887 513v-513h-543v57h473v456h70zM629 195q0 47 -25.5 80t-75.5 33t-81.5 -34.5t-31.5 -87.5h-55q0 53 22.5 94t62 65
t89.5 24q52 0 90.5 -22.5t58.5 -61t20 -89.5q0 -56 -26.5 -99t-76.5 -66t-120 -23v49q50 0 83 18t49.5 49t16.5 71z" />
    <glyph glyph-name="tm_VowelU.alt1" horiz-adv-x="0" 
d="M-93 -187l-70 -10v232l70 4v-226z" />
    <glyph glyph-name="tm_VowelI.alt3" horiz-adv-x="253" 
d="M-180 797q106 0 183 -38t118.5 -104t41.5 -152v-503h-70v503q0 68 -33 120.5t-93.5 82.5t-146.5 30q-76 0 -118 -31.5t-42 -82.5q0 -47 33 -78t96 -31v-50q-62 0 -107.5 21t-69.5 57t-25 81q0 51 28.5 90.5t80.5 62t124 22.5z" />
    <glyph glyph-name="tm_KSsa" horiz-adv-x="1560" 
d="M1103 531q51 0 88.5 -20.5t57.5 -56.5t20 -85v-612h-71v607q0 48 -24.5 76.5t-70.5 28.5t-70.5 -28.5t-24.5 -71.5q0 -46 34.5 -77t92.5 -31q61 0 112 27.5t90.5 72.5t66.5 96l63 -13q-30 -69 -76 -124.5t-110 -88t-146 -32.5q-60 0 -105.5 22.5t-70.5 60.5t-26 87
q0 47 21 83.5t59 57.5t90 21zM860 145q0 49 -27 78.5t-76 29.5q-40 0 -75 -18.5t-55 -51t-20 -76.5q0 -28 14.5 -46t36.5 -18t37 18t15 46q0 39 -18.5 69.5t-49 48t-68.5 17.5h-324q-65 0 -98.5 -28t-33.5 -74q0 -41 34 -68.5t89 -27.5q52 0 89 20t56 56.5t19 84.5v252h-170
v-194h-72v250h479l9 -56h-174v-252q0 -67 -28.5 -117t-81 -78t-126.5 -28q-58 0 -103 20.5t-70 56.5t-25 81q0 71 54.5 114.5t150.5 43.5h334q57 0 101.5 -25t70.5 -68t26 -98q0 -37 -16 -65t-43 -44t-63 -16q-34 0 -61.5 16t-44 44t-16.5 65q0 45 17 83t47 66t70 43.5
t87 15.5q54 0 94 -22t62 -60t22 -88q0 -25 -3.5 -47t-9.5 -41h482v400h71v-457h-651q18 33 27 73.5t9 71.5z" />
    <glyph glyph-name="tm_LU" horiz-adv-x="1265" 
d="M1172 513v-659h-933q-46 0 -65.5 -15.5t-19.5 -42.5q0 -34 53 -53.5t140 -19.5q93 0 166 20t124 59t78 95t27 128h73q0 -82 -34 -149.5t-97.5 -115t-148.5 -73.5t-188 -26q-85 0 -145 17t-91.5 47.5t-31.5 70.5q0 54 41 83.5t119 29.5h862v604h71zM812 513l72 14
q30 -49 48.5 -102t27.5 -102.5t9 -88.5q0 -77 -21.5 -133.5t-64.5 -87.5t-109 -31q-61 0 -103 27t-63 77.5t-21 122.5v48q0 66 -27 113.5t-76.5 72.5t-118.5 25q-74 0 -127 -29.5t-81.5 -81.5t-28.5 -118q0 -57 22.5 -102.5t68.5 -71.5t113 -26q46 0 75.5 29t29.5 73
q0 45 -29.5 74.5t-75.5 29.5q-44 0 -73 -29.5t-29 -73.5q0 -45 29 -74t73 -29v-39q-46 0 -82.5 18.5t-57.5 50.5t-21 73q0 47 21 82.5t57.5 56t82.5 20.5q50 0 89 -20.5t61.5 -56.5t22.5 -83q0 -45 -23 -81.5t-62.5 -57t-90.5 -20.5q-86 0 -148.5 34.5t-95 92.5t-32.5 130
q0 83 37.5 149t108 104.5t166.5 38.5q89 0 154.5 -33.5t102 -94.5t36.5 -146v-48q0 -80 28 -122t90 -42q65 0 91.5 51.5t26.5 136.5q0 38 -8.5 88t-26.5 101t-47 91z" />
    <glyph glyph-name="tm_TU" horiz-adv-x="1018" 
d="M926 513v-659h-744q-32 0 -48 -14t-16 -34q0 -35 42.5 -58t133.5 -23q99 0 166.5 26.5t108.5 71t60 100.5t19 116q0 59 -18.5 104.5t-52.5 72t-84 26.5h-243q-64 0 -98 -28t-34 -74q0 -41 34 -68.5t89 -27.5q52 0 89 20t56 56.5t19 84.5v252h-170v-194h-72v250h479l9 -56
h-174v-252q0 -67 -28.5 -117t-81.5 -78t-125 -28q-59 0 -104 20.5t-70 56.5t-25 81q0 71 54.5 114.5t150.5 43.5h244q72 0 123.5 -33.5t79.5 -92t28 -133.5q0 -117 -52.5 -201.5t-149 -130.5t-227.5 -46q-84 0 -140 19t-83.5 51.5t-27.5 74.5q0 45 35.5 74t103.5 29h672v604
h72z" />
    <glyph glyph-name="tm_VowelUu.alt3" horiz-adv-x="666" 
d="M368 612q77 0 136.5 -33.5t94 -92.5t34.5 -134q0 -78 -39.5 -139.5t-108 -97t-156.5 -35.5h-58v57h58q67 0 118.5 27.5t81 76.5t29.5 111q0 58 -25 103t-67.5 71t-97.5 26q-40 0 -72.5 -10t-57.5 -29h30q51 0 89.5 -20.5t59.5 -56.5t21 -82t-21.5 -82t-59.5 -55.5
t-87 -19.5q-50 0 -88.5 21.5t-60.5 59.5t-22 86q0 26 4.5 49t13.5 44h-314v56h345q35 46 92 72.5t128 26.5zM367 354q0 45 -28 74t-79 29h-73q-10 -20 -16 -43.5t-6 -49.5q0 -47 29.5 -79.5t75.5 -32.5q42 0 69.5 28t27.5 74z" />
    <glyph glyph-name="tm_VowelU.alt3" horiz-adv-x="471" 
d="M265 457h-464v56h461q52 0 91.5 -20.5t62.5 -56.5t23 -82q0 -47 -23 -83t-61.5 -56.5t-89.5 -20.5q-49 0 -88 20.5t-61 56.5t-22 82q0 45 21.5 80t60.5 55.5t89 20.5v-52q-45 0 -74 -29t-29 -74t29 -74.5t74 -29.5t73.5 29.5t28.5 74.5t-28.5 74t-73.5 29z" />
    <glyph glyph-name="tm_NnnU" horiz-adv-x="1529" 
d="M1093 241q0 107 -46.5 167.5t-142.5 60.5q-58 0 -106.5 -22t-84 -61.5t-55 -93.5t-19.5 -118q0 -57 23 -93.5t65 -36.5q45 0 67.5 36.5t22.5 93.5q0 64 -26.5 118t-74.5 93.5t-114 61.5t-147 22q-99 0 -172.5 -31.5t-114 -85.5t-40.5 -124q0 -55 22.5 -98t68 -67
t113.5 -24q46 0 75.5 29t29.5 73q0 45 -29.5 74.5t-75.5 29.5q-44 0 -73 -29.5t-29 -73.5q0 -45 29 -74t73 -29v-39q-46 0 -83 18.5t-58 50.5t-21 73q0 47 21 82.5t58 56t83 20.5q50 0 89 -20.5t61.5 -56.5t22.5 -83q0 -45 -23 -81.5t-62.5 -57t-90.5 -20.5q-86 0 -148.5 32
t-95 88.5t-32.5 125.5q0 88 49.5 156t140.5 107.5t212 39.5q95 0 175 -27.5t138.5 -76t91 -113.5t32.5 -140q0 -56 -19.5 -99.5t-56.5 -68t-89 -24.5q-50 0 -87 24.5t-56.5 68t-19.5 99.5q0 76 27.5 141t74.5 113.5t108.5 75.5t129.5 27q128 0 196 -77t68 -214
q0 -123 -51 -229t-148 -184.5t-236.5 -122t-316.5 -43.5q-118 0 -191.5 18.5t-107 51.5t-33.5 75q0 43 34 73t111 30h1136v604h71v-659h-1207q-41 0 -55.5 -14.5t-14.5 -33.5q0 -36 61.5 -59.5t195.5 -23.5q161 0 287 38.5t213 108t132 164.5t45 207z" />
    <glyph glyph-name="tm_YUu" horiz-adv-x="1131" 
d="M949 80q51 0 90 -23t60.5 -62.5t21.5 -90.5q0 -86 -48 -146.5t-133.5 -91.5t-195.5 -31h-455q-67 0 -118.5 14.5t-81 43.5t-29.5 70q0 52 38 86.5t99 34.5h471v-57h-471q-29 0 -45.5 -18.5t-16.5 -45.5q0 -35 43 -53.5t111 -18.5h455q89 0 157 24.5t106.5 72t38.5 115.5
q0 47 -27 81t-76 34t-80 -34.5t-31 -87.5v-87h-71v310h71v-87q22 22 51.5 35t65.5 13zM832 513v-513h-438v513h71v-456h296v456h71zM83 513l70 5v-329q0 -79 30.5 -112t82.5 -33q65 0 96.5 45t31.5 114h51q0 -63 -22 -113t-62 -79t-95 -29t-96.5 22.5t-64 68.5t-22.5 116
v324z" />
    <glyph glyph-name="tm_PUu" horiz-adv-x="924" 
d="M741 80q53 0 91.5 -23t60 -62.5t21.5 -90.5q0 -86 -48 -146.5t-133 -91.5t-196 -31h-248q-67 0 -118.5 14.5t-81 43.5t-29.5 70q0 52 38 86.5t99 34.5h264v-57h-264q-29 0 -45.5 -18.5t-16.5 -45.5q0 -35 43 -53.5t111 -18.5h248q89 0 157 24.5t106.5 72t38.5 115.5
q0 47 -27 81t-75 34q-50 0 -81 -34.5t-31 -87.5v-87h-71v310h71v-87q22 22 51.5 35t64.5 13zM625 513v-513h-532v513l70 5v-461h391v456h71z" />
    </font>
</defs>
</svg>
