<svg width="89" height="90" viewBox="0 0 89 90" fill="none" xmlns="http://www.w3.org/2000/svg">
<path d="M65.6014 31.927H57.0333V29.7308C57.0333 26.4887 54.4186 23.8442 51.2129 23.8442H36.8245C33.6188 23.8442 31.0041 26.4887 31.0041 29.7308V31.927H22.436C20.9883 31.927 19.8213 33.1222 19.8213 34.5715V50.7519C19.8213 51.8127 20.4565 52.7689 21.4167 53.1872V63.6903C21.4167 65.1545 22.5985 66.3348 24.0315 66.3348H64.006C65.4537 66.3348 66.6207 65.1395 66.6207 63.6903V53.1872C67.5809 52.7838 68.2161 51.8127 68.2161 50.7519V34.5864C68.2309 33.1222 67.0491 31.927 65.6014 31.927ZM33.0427 29.8204C33.0427 27.6391 34.7859 25.8761 36.9427 25.8761H51.08C53.2368 25.8761 54.9799 27.6391 54.9799 29.8204V31.927H33.0427V29.8204ZM64.5821 63.6903C64.5821 64.019 64.3162 64.273 64.006 64.273H24.0315C23.7065 64.273 23.4553 64.0041 23.4553 63.6903V53.3964H28.6109V55.5926C28.6109 56.1604 29.0689 56.6235 29.6303 56.6235H32.8211C33.3825 56.6235 33.8404 56.1604 33.8404 55.5926V53.3964H54.1822V55.5926C54.1822 56.1604 54.6402 56.6235 55.2015 56.6235H58.3924C58.9538 56.6235 59.4117 56.1604 59.4117 55.5926V53.3964H64.5673V63.6903H64.5821ZM30.3393 54.8456V50.5577C30.3393 50.3784 30.4427 50.2141 30.62 50.0945C30.7825 49.975 31.0336 49.9153 31.2257 49.9153C31.7132 49.9153 32.112 50.2141 32.112 50.5726V54.8605H30.3393V54.8456ZM55.9254 54.8456V50.5577C55.9254 50.3784 56.0288 50.2141 56.2061 50.0945C56.3686 49.975 56.6197 49.9153 56.8117 49.9153C57.2992 49.9153 57.6981 50.2141 57.6981 50.5726V54.8605H55.9254V54.8456ZM66.1775 50.7519C66.1775 51.0806 65.9116 51.3346 65.6014 51.3346H59.4265V50.7519C59.4265 49.3027 58.2447 48.1075 56.8117 48.1075C55.364 48.1075 54.197 49.3027 54.197 50.7519V51.3346H33.8404V50.7519C33.8404 49.2878 32.6586 48.1075 31.2257 48.1075C29.7927 48.1224 28.6109 49.3027 28.6109 50.7519V51.3346H22.436C22.111 51.3346 21.8599 51.0657 21.8599 50.7519V34.5864C21.8599 34.2577 22.1258 34.0037 22.436 34.0037H65.6162C65.9412 34.0037 66.1923 34.2726 66.1923 34.5864V50.7519H66.1775Z" fill="#17A398"/>
</svg>
