<svg width="125" height="26" viewBox="0 0 125 26" fill="none" xmlns="http://www.w3.org/2000/svg">
<path d="M18.0144 25.5991C15.191 25.5991 12.3391 25.5991 9.51568 25.5991C6.69229 25.5991 3.81187 25.5991 0.959961 25.5991V0.164062H9.0879V6.93867C10.5709 6.93867 12.0824 6.93867 13.5654 6.93867C15.0484 6.93867 16.5599 6.93867 18.0429 6.93867C19.2692 6.93867 20.0107 7.33184 20.0107 7.33184C20.2959 7.45281 20.5811 7.60403 20.8092 7.7855C21.0374 7.96696 21.2941 8.17867 21.4937 8.42062C21.893 8.90452 22.2067 9.50939 22.4348 10.205C22.4919 10.5377 22.5774 10.8704 22.6345 11.2635C22.6915 11.6567 22.72 12.0499 22.72 12.4733V20.1854C22.72 20.6391 22.6915 21.0625 22.6345 21.4254C22.5774 21.7884 22.4919 22.1513 22.3778 22.4537C22.2352 22.8469 22.0926 23.2098 21.893 23.5425C21.6933 23.8752 21.4937 24.1171 21.237 24.3288C21.0374 24.5708 20.7807 24.7523 20.524 24.9337C20.2674 25.1152 20.0107 25.2059 19.754 25.2966C19.754 25.2966 18.8699 25.5991 18.0144 25.5991ZM13.5939 10.5982H10.0575C9.91495 10.5982 9.80087 10.6284 9.6868 10.7191C9.57272 10.8099 9.45864 10.9006 9.37309 11.0216C9.23049 11.1426 9.14493 11.2635 9.0879 11.4148C9.03086 11.566 9.00234 11.7172 9.00234 11.8684V20.7903C9.00234 20.9415 9.03086 21.0625 9.11642 21.1835C9.20197 21.3045 9.25901 21.4254 9.34457 21.5162C9.45864 21.6371 9.57272 21.7279 9.6868 21.7884C9.80087 21.8489 9.94347 21.9396 10.0861 21.9396H13.6224C13.7365 21.9396 13.8506 21.9093 13.9647 21.8186C14.0787 21.7279 14.1928 21.6674 14.2784 21.5464C14.3639 21.4254 14.4495 21.3045 14.5065 21.1835C14.5636 21.0625 14.5921 20.9113 14.5921 20.7903V11.8382C14.5921 11.7172 14.5636 11.5962 14.5065 11.445C14.4495 11.2938 14.3924 11.1426 14.2784 11.0518C14.1643 10.9611 14.0787 10.8401 13.9647 10.7494C13.8506 10.6587 13.7365 10.5982 13.5939 10.5982Z" fill="black"/>
<path d="M25.2578 6.93896H32.6442V8.29994C32.7298 8.11847 32.8439 7.93701 32.958 7.75555C33.072 7.57408 33.2146 7.45311 33.3287 7.33213C33.4713 7.21116 33.6424 7.12043 33.785 7.05994C33.9276 6.99945 34.0987 6.93896 34.2984 6.93896H42.1411C42.5118 6.93896 42.8541 6.99945 43.1393 7.15067C43.4245 7.30189 43.6526 7.48335 43.8237 7.69506C43.9663 7.84628 44.1089 8.02774 44.1945 8.2092C44.28 8.39067 44.3656 8.54189 44.4226 8.6931C44.4797 8.84432 44.5082 8.93506 44.5367 8.99554C44.5652 9.05603 44.5367 9.05603 44.5082 8.9653C44.5652 8.72335 44.6223 8.4814 44.6793 8.26969C44.7363 8.05799 44.8504 7.84628 44.9645 7.66482C45.0786 7.42287 45.2212 7.2414 45.3923 7.12043C45.5634 6.99945 45.7915 6.93896 46.0197 6.93896H52.465C52.9213 6.93896 53.3491 6.99945 53.7198 7.09018C54.0906 7.18092 54.4043 7.33213 54.718 7.54384C55.0317 7.75555 55.2599 7.96725 55.488 8.2092C55.7162 8.45115 55.8873 8.75359 56.0584 9.05603C56.201 9.32822 56.3151 9.60042 56.4006 9.90286C56.4862 10.2053 56.5717 10.5077 56.6288 10.8102C56.6858 11.2033 56.7429 11.5965 56.7714 11.9897C56.7999 12.3828 56.8284 12.7458 56.8284 13.1087V25.5691H49.442V11.6268C49.442 11.4755 49.4135 11.3243 49.3564 11.2033C49.2994 11.0824 49.2423 10.9916 49.1853 10.8707C49.0998 10.8102 49.0142 10.7497 48.9001 10.6892C48.786 10.6287 48.7005 10.6287 48.5864 10.6287H45.5063C45.3923 10.6287 45.3067 10.659 45.1926 10.7194C45.0786 10.7799 45.0215 10.8404 44.9645 10.9009C44.9074 10.9916 44.8504 11.1126 44.7934 11.2336C44.7363 11.3546 44.7363 11.4453 44.7363 11.5663V25.5691H37.3214V11.6872C37.3214 11.5663 37.2929 11.4453 37.2643 11.2941C37.2358 11.1429 37.1788 11.0219 37.1217 10.9311C37.0362 10.8102 36.9221 10.7194 36.808 10.659C36.694 10.5985 36.5228 10.538 36.3517 10.538H33.4143C33.3002 10.538 33.1861 10.5682 33.1006 10.659C33.015 10.7497 32.9294 10.8404 32.8439 10.9614C32.7583 11.0824 32.7298 11.2033 32.6728 11.3243C32.6157 11.4453 32.6157 11.5663 32.6157 11.6872V25.5691H25.2578V6.93896Z" fill="black"/>
<path d="M81.1268 13.3501V25.5383H73.9685L73.4552 23.5422C73.4267 23.6934 73.3982 23.8144 73.3411 23.9051C73.2841 23.9959 73.227 24.1169 73.1985 24.2076C73.1415 24.3588 73.0844 24.4798 72.9704 24.6008C72.8563 24.7217 72.7993 24.8125 72.7137 24.9032C72.457 25.1149 72.2004 25.2964 71.9437 25.3871C71.6585 25.4778 71.3448 25.5383 71.0311 25.5383H63.5876C63.1883 25.5383 62.8176 25.5081 62.5039 25.4173C62.1902 25.3266 61.8765 25.2359 61.6198 25.0847C61.3346 24.9334 61.0779 24.752 60.8783 24.5403C60.6787 24.3286 60.479 24.0564 60.3364 23.7842C60.1653 23.4817 60.0227 23.1188 59.9086 22.7256C59.7946 22.3325 59.7375 21.9393 59.6805 21.5764C59.6234 21.1832 59.5949 20.7598 59.5949 20.3666C59.5949 19.9735 59.5664 19.5803 59.5664 19.2174C59.5664 18.8847 59.5664 18.5218 59.5664 18.1588C59.5664 17.7959 59.5949 17.4027 59.6234 17.0096C59.652 16.6164 59.7375 16.2535 59.7946 15.8905C59.8516 15.5276 59.9657 15.1949 60.1083 14.8925C60.2509 14.5598 60.4505 14.2574 60.7072 13.9852C60.9638 13.713 61.2205 13.5013 61.5627 13.3198C61.8194 13.1686 62.1331 13.0779 62.4754 12.9871C62.8176 12.8964 63.1883 12.8662 63.5876 12.8662H71.8866C72.0292 12.8662 72.2004 12.8057 72.343 12.715C72.4855 12.6242 72.6567 12.5032 72.7707 12.3218C72.8563 12.231 72.9419 12.1101 72.9989 11.9589C73.0559 11.8076 73.0845 11.6867 73.0845 11.5657C73.0845 11.4145 73.0559 11.2935 72.9704 11.1423C72.8848 10.9911 72.8278 10.8701 72.7137 10.7793C72.5996 10.6584 72.4855 10.5676 72.343 10.5072C72.2004 10.4467 72.0863 10.3862 71.9437 10.3862H60.9068V6.84766H76.2786C76.7349 6.84766 77.1342 6.8779 77.5049 6.96863C77.8757 7.05936 78.2179 7.18034 78.5316 7.33156C78.9023 7.48278 79.1875 7.72473 79.4442 7.96668C79.7009 8.20863 79.929 8.51106 80.1001 8.8135C80.2713 9.0857 80.4424 9.38813 80.5564 9.72082C80.6705 10.0535 80.7846 10.3559 80.8416 10.6886C80.9557 11.1423 81.0127 11.5959 81.0698 12.0496C81.1268 12.5032 81.1268 12.9569 81.1268 13.3501ZM73.0559 16.5862H69.1203C68.9492 16.5862 68.7781 16.6466 68.607 16.7374C68.4358 16.8281 68.2932 16.9491 68.1506 17.1003C68.0366 17.2515 67.951 17.4027 67.8369 17.5842C67.7229 17.7657 67.6943 17.8866 67.6943 18.0681V20.7296C67.6943 20.8505 67.7229 20.9715 67.7799 21.0925C67.8369 21.2135 67.894 21.3344 67.9795 21.4554C68.0936 21.5764 68.2362 21.6671 68.3788 21.7881C68.5214 21.9091 68.6925 21.9393 68.8066 21.9393H72.0292C72.1433 21.9393 72.2574 21.9091 72.4 21.8183C72.5426 21.7276 72.6567 21.6369 72.7707 21.5159C72.8563 21.4252 72.9419 21.3042 72.9989 21.1832C73.0559 21.0622 73.0845 20.9413 73.0845 20.8203V16.5862H73.0559Z" fill="black"/>
<path d="M92.2209 25.5994H84.0645V6.93896H92.2209V8.60237C92.335 8.42091 92.4776 8.23945 92.6487 8.05798C92.7057 7.96725 92.7913 7.87652 92.9054 7.78579C93.0195 7.69506 93.105 7.63457 93.1906 7.60433C93.3332 7.5136 93.4472 7.42287 93.5898 7.33213C93.7324 7.2414 93.8465 7.18091 93.9891 7.15067C94.1317 7.09018 94.3028 7.05994 94.4454 7.0297C94.588 6.99945 94.7306 6.96921 94.8732 6.96921H99.7214V12.1409H95.4436C95.0158 12.1409 94.6165 12.2014 94.2743 12.2921C93.9035 12.3828 93.5613 12.5038 93.3046 12.6853C93.162 12.7458 93.0195 12.8365 92.9054 12.9575C92.7913 13.0785 92.7057 13.1994 92.5917 13.3204C92.4491 13.4716 92.3635 13.6228 92.3065 13.8043C92.2494 13.9858 92.2209 14.1672 92.2209 14.3789V25.5994Z" fill="black"/>
<path d="M110.159 13.4109L117.146 6.969H122.28L117.46 11.4451L124.961 25.6294H115.293L111.471 16.889L110.131 18.2802V25.6899L102.031 25.6597V0.254883H110.131V13.4109H110.159Z" fill="black"/>
</svg>
