<svg width="88" height="87" viewBox="0 0 88 87" fill="none" xmlns="http://www.w3.org/2000/svg">
<path d="M53.6471 33.2604C51.0555 30.6986 47.5003 29.3027 43.6295 29.3027C36.0707 29.4998 30.007 35.5102 29.8076 42.9658C29.8076 47.4325 31.7347 51.3738 35.2068 54.0506C36.8515 55.4793 37.7154 57.1872 37.7154 59.01V63.1155C37.7154 65.5131 39.3268 66.8104 40.8552 66.8104H46.786C48.4639 66.8104 49.9258 65.3653 49.9258 63.7067V59.2071C49.9258 57.1872 50.9558 55.1344 52.6337 53.8535C55.9397 51.3574 57.8502 47.449 57.8502 43.1628C57.8502 39.5008 56.3218 35.8879 53.6471 33.2604ZM47.6166 60.9314V63.7067C47.6166 64.1993 47.301 64.5278 46.786 64.5278H40.8552C40.1242 64.5278 40.0245 63.7231 40.0245 63.1319V60.9314H47.6166ZM55.541 43.1464C55.541 46.6607 53.9794 49.8958 51.2549 52.0143C49.2115 53.6565 47.8492 56.1854 47.6665 58.6323H40.0245C39.9249 56.1854 38.7121 53.9028 36.6023 52.2113C33.7449 50.1422 32.1168 46.7757 32.1168 42.9494C32.3162 36.7747 37.6821 31.569 43.8289 31.569C46.9687 31.569 49.8926 32.7349 52.0191 34.8533C54.3282 37.136 55.541 39.9934 55.541 43.1464Z" fill="#3D3D3D"/>
<path d="M43.8289 25.7065C44.51 25.7065 44.9918 25.2303 44.9918 24.557V20.6486C44.9918 19.9753 44.51 19.499 43.8289 19.499C43.1478 19.499 42.666 19.9753 42.666 20.6486V24.557C42.666 25.2303 43.1478 25.7065 43.8289 25.7065Z" fill="#3D3D3D"/>
<path d="M58.9465 26.5936L56.1721 29.3361C55.707 29.7959 55.707 30.4856 56.1721 30.9454C56.4213 31.1918 56.8699 31.1918 57.0858 31.1918C57.3184 31.1918 57.6839 31.0111 57.7503 30.9783L60.5579 28.203C61.0231 27.7431 61.0231 27.0534 60.5579 26.5936C60.0928 26.1338 59.4116 26.1502 58.9465 26.5936Z" fill="#3D3D3D"/>
<path d="M66.5885 42.0137H62.6346C61.9535 42.0137 61.4717 42.4899 61.4717 43.1632C61.4717 43.8365 61.9535 44.3127 62.6346 44.3127H66.5885C67.2696 44.3127 67.7514 43.8365 67.7514 43.1632C67.7514 42.4899 67.2696 42.0137 66.5885 42.0137Z" fill="#3D3D3D"/>
<path d="M57.8002 55.5617C57.335 55.1018 56.6373 55.1018 56.1721 55.5617C55.707 56.0215 55.707 56.7112 56.1721 57.171L58.9465 59.9135C59.1957 60.1598 59.6442 60.1598 59.8602 60.1598C60.2423 60.1598 60.5745 60.1598 60.6078 59.8642C61.0231 59.4044 61.0065 58.7475 60.5579 58.3041L57.8002 55.5617Z" fill="#3D3D3D"/>
<path d="M29.6584 55.5617L26.884 58.3041C26.4189 58.7639 26.4189 59.4537 26.884 59.9135C27.1332 60.1598 27.5818 60.1598 27.7977 60.1598C28.0137 60.1598 28.2629 60.1598 28.5121 59.9135L31.2864 57.171C31.7516 56.7112 31.7516 56.0215 31.2864 55.5617C30.8213 55.1018 30.1235 55.1018 29.6584 55.5617Z" fill="#3D3D3D"/>
<path d="M25.023 42.0137H21.0692C20.388 42.0137 19.9062 42.4899 19.9062 43.1632C19.9062 43.8365 20.388 44.3127 21.0692 44.3127H25.023C25.7041 44.3127 26.1859 43.8365 26.1859 43.1632C26.1859 42.4899 25.7041 42.0137 25.023 42.0137Z" fill="#3D3D3D"/>
<path d="M29.6584 30.9449C29.9076 31.1912 30.3561 31.1912 30.5721 31.1912C30.8379 31.1912 31.0705 30.9613 31.2864 30.7478C31.7516 30.288 31.7516 29.5983 31.2864 29.1385L28.5121 26.396C28.0469 25.9526 27.3492 25.9526 26.884 26.396C26.4189 26.8558 26.4189 27.5456 26.884 27.9889L29.6584 30.9449Z" fill="#3D3D3D"/>
<path d="M43.8289 34.1807C43.1478 34.1807 42.666 34.6569 42.666 35.3302C42.666 36.0035 43.1478 36.4797 43.8289 36.4797C47.5004 36.4797 50.5904 39.5342 50.5904 43.1635C50.5904 43.8368 51.0721 44.313 51.7533 44.313C52.4344 44.313 52.9162 43.8368 52.9162 43.1635C52.8996 38.204 48.8294 34.1807 43.8289 34.1807Z" fill="#3D3D3D"/>
</svg>
