<svg width="25" height="22" viewBox="0 0 25 22" fill="none" xmlns="http://www.w3.org/2000/svg">
<path d="M21.6636 0.783203H2.92289C1.55899 0.783203 0.453125 1.88907 0.453125 3.25297V10.9793C0.453125 12.2916 1.52213 13.3606 2.83442 13.3606C3.23253 13.3606 3.62327 13.2647 3.95503 13.0804V20.5634C3.95503 20.9616 4.27942 21.2859 4.67753 21.2859H19.9164C20.2555 21.2859 20.5283 21.0132 20.5283 20.674V13.0657C20.86 13.2426 21.2434 13.3753 21.7079 13.3679C22.9833 13.3311 24.0228 12.2178 24.0228 10.8908V3.14238C24.0228 1.83746 22.9612 0.783203 21.6636 0.783203ZM19.2602 6.65166V20.0253H5.21572V6.64429C5.21572 6.51896 5.31893 6.42312 5.43689 6.42312H19.0317C19.157 6.42312 19.2602 6.52633 19.2602 6.65166ZM3.07771 5.15506V6.42312H3.95503V10.8834C3.95503 11.4954 3.54955 12.0114 3.00399 12.0925C2.67223 12.1441 2.35521 12.0483 2.11192 11.8345C1.86863 11.6207 1.72118 11.311 1.72118 10.9867V3.14975C1.72118 2.54522 2.21514 2.05126 2.81968 2.05126H21.6636C22.2682 2.05126 22.7621 2.54522 22.7621 3.14975V10.9867C22.7621 11.311 22.622 11.6207 22.3714 11.8345C22.1207 12.0483 21.8037 12.1441 21.4793 12.0925C20.9338 12.0114 20.5283 11.4954 20.5283 10.8834V6.42312H21.4056V5.15506H3.07771Z" fill="#D22238"/>
</svg>
