<svg width="22" height="22" viewBox="0 0 22 22" fill="none" xmlns="http://www.w3.org/2000/svg">
<path d="M13.8374 19.8407V14.6407C13.8374 14.4109 13.7461 14.1905 13.5836 14.0279C13.4211 13.8654 13.2006 13.7741 12.9708 13.7741H9.50422C9.27438 13.7741 9.05394 13.8654 8.89142 14.0279C8.72889 14.1905 8.63758 14.4109 8.63758 14.6407V19.8407C8.63758 20.0705 8.54629 20.2909 8.38379 20.4535C8.22128 20.616 8.00088 20.7073 7.77105 20.7073L2.57183 20.708C2.45801 20.708 2.3453 20.6856 2.24015 20.6421C2.13499 20.5985 2.03944 20.5347 1.95895 20.4542C1.87846 20.3738 1.81462 20.2782 1.77106 20.1731C1.7275 20.0679 1.70508 19.9552 1.70508 19.8414V9.82512C1.70508 9.70438 1.73031 9.58498 1.77915 9.47456C1.82799 9.36413 1.89937 9.26514 1.9887 9.18391L10.6545 1.30453C10.8141 1.15948 11.0219 1.07911 11.2375 1.0791C11.4531 1.07909 11.661 1.15946 11.8205 1.30449L20.4875 9.18391C20.5769 9.26513 20.6483 9.36414 20.6971 9.47456C20.746 9.58499 20.7712 9.70441 20.7712 9.82516V19.8414C20.7712 19.9552 20.7488 20.0679 20.7052 20.1731C20.6617 20.2782 20.5978 20.3738 20.5173 20.4542C20.4369 20.5347 20.3413 20.5986 20.2361 20.6421C20.131 20.6856 20.0183 20.708 19.9045 20.708L14.704 20.7074C14.4741 20.7073 14.2537 20.616 14.0912 20.4535C13.9287 20.291 13.8374 20.0705 13.8374 19.8407V19.8407Z" stroke="#D22238" stroke-width="1.8" stroke-linecap="round" stroke-linejoin="round"/>
</svg>
