<svg width="14" height="14" viewBox="0 0 14 14" fill="none" xmlns="http://www.w3.org/2000/svg">
<path d="M13.281 13.4016L13.2874 8.51721C13.2874 6.12566 12.7984 4.28809 10.1347 4.28809C8.85435 4.28809 7.99862 5.02447 7.64474 5.72707H7.60614V4.50427H5.08398V13.3949H7.70909V8.99687C7.70909 7.83487 7.92141 6.71341 9.28544 6.71341C10.6302 6.71341 10.6559 8.03755 10.6559 9.07118V13.4016H13.281Z" fill="#E0E0E0"/>
<path d="M3.44306 4.50391H0.811523V13.3945H3.44306V4.50391Z" fill="#E0E0E0"/>
<path d="M2.12448 0.0791016C1.28162 0.0791016 0.599609 0.795215 0.599609 1.68022C0.599609 2.56523 1.28162 3.29486 2.12448 3.29486C2.96735 3.29486 3.64936 2.56523 3.64936 1.68022C3.64936 0.795215 2.96735 0.0791016 2.12448 0.0791016Z" fill="#E0E0E0"/>
</svg>
