<svg width="15" height="14" viewBox="0 0 15 14" fill="none" xmlns="http://www.w3.org/2000/svg">
<path d="M12.4949 0.0791016H2.50563C1.55395 0.0791016 0.780273 0.784308 0.780273 1.80446V11.7937C0.780273 12.8139 1.55395 13.5191 2.50563 13.5191H12.4949C13.4466 13.5191 14.2203 12.8139 14.2203 11.7937V1.80446C14.2203 0.784308 13.4466 0.0791016 12.4949 0.0791016ZM9.96849 2.18103C9.96849 1.84554 10.2424 1.57852 10.571 1.57852H12.091C12.4264 1.57852 12.6935 1.85239 12.6935 2.18103V3.63252C12.6935 3.96801 12.4196 4.23503 12.091 4.23503H10.571C10.2355 4.23503 9.96849 3.96116 9.96849 3.63252V2.18103ZM7.51739 4.15971C9.00996 4.15971 10.215 5.33049 10.215 6.77514C10.215 8.21978 9.00311 9.39056 7.51739 9.39056C6.02481 9.39056 4.8198 8.21978 4.8198 6.77514C4.8198 5.33049 6.02481 4.15971 7.51739 4.15971ZM12.7003 11.4446C12.7003 11.739 12.4607 11.9786 12.1663 11.9786H2.80688C2.51248 11.9786 2.27285 11.739 2.27285 11.4446V5.76183H3.50524C3.39569 6.1247 3.33407 6.51497 3.33407 6.91207C3.33407 9.15093 5.20322 10.9584 7.51054 10.9584C9.81787 10.9584 11.687 9.14408 11.687 6.91207C11.687 6.51497 11.6254 6.1247 11.5158 5.76183H12.7003V11.4446Z" fill="#E0E0E0"/>
</svg>
