<svg width="88" height="87" viewBox="0 0 88 87" fill="none" xmlns="http://www.w3.org/2000/svg">
<path d="M59.0241 27.9568H52.8276L52.2689 26.3C52.1504 25.9485 51.8118 25.6975 51.4224 25.6975H48.5104V23.5888C48.5104 21.4466 46.7496 19.7061 44.5825 19.7061H43.0588C40.9256 19.7061 39.1648 21.4466 39.1648 23.5888V25.7142H36.2528C35.8634 25.7142 35.5248 25.9485 35.4063 26.3167L34.8476 27.9735H28.651C27.7368 27.9735 27.0088 28.7099 27.0088 29.5969V66.3487C27.0088 67.2524 27.7537 67.972 28.651 67.972H59.0072C59.9214 67.972 60.6495 67.2357 60.6495 66.3487V29.5802C60.6664 28.6932 59.9214 27.9568 59.0241 27.9568ZM40.9425 26.5845V23.5888C40.9425 22.4173 41.9075 21.4633 43.0926 21.4633H44.6164C45.8015 21.4633 46.7665 22.4173 46.7665 23.5888V26.5845C46.7665 27.0698 47.1559 27.4547 47.6469 27.4547H50.796L51.7271 30.1994H35.965L36.8961 27.4547H40.0452C40.5362 27.4547 40.9425 27.0698 40.9425 26.5845ZM33.8995 30.8019C33.8148 31.0696 33.8487 31.3542 34.018 31.5885C34.1873 31.8228 34.4582 31.9566 34.729 31.9566H52.9461C53.2339 31.9566 53.5048 31.8228 53.6572 31.5885C53.8265 31.3542 53.8773 31.0696 53.7757 30.8019L53.4033 29.6973H58.8718V66.198H28.7865V29.714H34.255L33.8995 30.8019Z" fill="#3D3D3D"/>
<path d="M43.8374 25.9655C44.3284 25.9655 44.7178 25.5806 44.7178 25.0952V23.589C44.7178 23.1037 44.3284 22.7188 43.8374 22.7188C43.3464 22.7188 42.957 23.1037 42.957 23.589V25.0952C42.957 25.5638 43.3634 25.9655 43.8374 25.9655Z" fill="#3D3D3D"/>
<path d="M31.6987 41.7131H39.2835C39.7745 41.7131 40.1639 41.3282 40.1639 40.8429V36.341C40.1639 35.8556 39.7745 35.4707 39.2835 35.4707H31.6987C31.2078 35.4707 30.8184 35.8556 30.8184 36.341V40.8429C30.8184 41.3115 31.2078 41.7131 31.6987 41.7131ZM32.5961 39.9559V37.2112H38.4201V39.9559H32.5961Z" fill="#3D3D3D"/>
<path d="M43.0923 39.4544H55.9932C56.4842 39.4544 56.8736 39.0695 56.8736 38.5841C56.8736 38.0988 56.4842 37.7139 55.9932 37.7139H43.0923C42.6013 37.7139 42.2119 38.0988 42.2119 38.5841C42.2119 39.0695 42.6013 39.4544 43.0923 39.4544Z" fill="#3D3D3D"/>
<path d="M31.6987 52.2073H39.2835C39.7745 52.2073 40.1639 51.8224 40.1639 51.337V46.8351C40.1639 46.3498 39.7745 45.9648 39.2835 45.9648H31.6987C31.2078 45.9648 30.8184 46.3498 30.8184 46.8351V51.337C30.8184 51.8224 31.2078 52.2073 31.6987 52.2073ZM32.5961 50.4668V47.7221H38.4201V50.4668H32.5961Z" fill="#3D3D3D"/>
<path d="M43.0923 49.9642H55.9932C56.4842 49.9642 56.8736 49.5792 56.8736 49.0939C56.8736 48.6086 56.4842 48.2236 55.9932 48.2236H43.0923C42.6013 48.2236 42.2119 48.6086 42.2119 49.0939C42.2119 49.5792 42.6013 49.9642 43.0923 49.9642Z" fill="#3D3D3D"/>
<path d="M31.6987 62.7171H39.2835C39.7745 62.7171 40.1639 62.3321 40.1639 61.8468V57.3449C40.1639 56.8595 39.7745 56.4746 39.2835 56.4746H31.6987C31.2078 56.4746 30.8184 56.8595 30.8184 57.3449V61.8468C30.8184 62.3154 31.2078 62.7171 31.6987 62.7171ZM32.5961 60.9598V58.2151H38.4201V60.9598H32.5961Z" fill="#3D3D3D"/>
<path d="M43.0923 60.4573H55.9932C56.4842 60.4573 56.8736 60.0724 56.8736 59.5871C56.8736 59.1017 56.4842 58.7168 55.9932 58.7168H43.0923C42.6013 58.7168 42.2119 59.1017 42.2119 59.5871C42.2119 60.0724 42.6013 60.4573 43.0923 60.4573Z" fill="#3D3D3D"/>
</svg>
