<svg width="22" height="22" viewBox="0 0 22 22" fill="none" xmlns="http://www.w3.org/2000/svg">
<path d="M6.65732 11.0098C7.53866 12.8116 8.99922 14.2656 10.805 15.1387C10.9372 15.2013 11.0833 15.2284 11.2291 15.2174C11.3749 15.2064 11.5153 15.1575 11.6365 15.0758L14.2955 13.3027C14.4131 13.2243 14.5484 13.1765 14.6891 13.1635C14.8299 13.1506 14.9716 13.173 15.1015 13.2287L20.0759 15.3606C20.2449 15.4323 20.386 15.5571 20.4779 15.716C20.5698 15.875 20.6076 16.0595 20.5856 16.2417C20.4283 17.472 19.828 18.6028 18.8971 19.4224C17.9662 20.242 16.7684 20.6942 15.5281 20.6942C11.6973 20.6942 8.02336 19.1724 5.31457 16.4636C2.60577 13.7548 1.08398 10.0809 1.08398 6.25012C1.08405 5.00981 1.53621 3.81205 2.35579 2.88111C3.17537 1.95017 4.30618 1.34989 5.53649 1.19266C5.71875 1.1706 5.90325 1.20838 6.06218 1.30029C6.22111 1.3922 6.34587 1.53328 6.41765 1.70226L8.5514 6.68101C8.60659 6.80979 8.62908 6.95022 8.61686 7.08979C8.60464 7.22936 8.5581 7.36375 8.48138 7.48098L6.71448 10.1807C6.63406 10.3022 6.58652 10.4424 6.5765 10.5877C6.56648 10.733 6.59433 10.8785 6.65732 11.0098Z" stroke="#D22238" stroke-width="1.8" stroke-linecap="round" stroke-linejoin="round"/>
</svg>
