<svg width="88" height="87" viewBox="0 0 88 87" fill="none" xmlns="http://www.w3.org/2000/svg">
<path d="M47.9125 28.0605H46.7935V47.1955L35.3193 62.5827L36.2212 63.2431C39.6284 65.7361 43.6703 67.0404 47.9292 67.0404C58.8022 67.0404 67.6541 58.2901 67.6541 47.5422C67.6374 36.7943 58.7854 28.0605 47.9125 28.0605ZM47.9125 64.8115C44.6557 64.8115 41.4823 63.92 38.7432 62.236L38.476 62.0709L49.0483 47.9054V30.3224L49.3489 30.3389C58.3345 31.0653 65.3827 38.6269 65.3827 47.5422C65.3827 57.0684 57.5495 64.8115 47.9125 64.8115Z" fill="#3D3D3D"/>
<path d="M25.5155 31.1152L24.7806 31.9572C21.6908 35.4904 20.0039 40.0141 20.0039 44.6864C20.0039 47.7902 20.7555 50.8776 22.1919 53.6182C23.5781 56.2763 25.599 58.6042 28.0208 60.3873L28.9227 61.0476L41.2487 44.5378L25.5155 31.1152ZM28.4717 57.8943L28.2379 57.6961C24.4299 54.4107 22.2587 49.6723 22.2587 44.6864C22.2587 41.0047 23.4111 37.5046 25.599 34.5328L25.7827 34.2851L38.2089 44.868L28.4717 57.8943Z" fill="#3D3D3D"/>
<path d="M41.9665 19.9541H40.8475C36.0875 19.9541 31.5613 22.0013 28.438 25.584L27.7031 26.426L41.9665 38.5938V19.9541ZM39.7118 33.7068L30.9099 26.1948L31.1437 25.9802C33.3985 23.8835 36.3213 22.5462 39.4111 22.2325L39.7285 22.1994V33.7068H39.7118Z" fill="#3D3D3D"/>
</svg>
