<svg width="89" height="90" viewBox="0 0 89 90" fill="none" xmlns="http://www.w3.org/2000/svg">
<path d="M57.8463 53.5996C57.5383 53.5996 57.2626 53.7144 57.0519 53.9439L52.7717 58.4367L51.0531 56.4691C50.8424 56.2231 50.5343 56.092 50.2263 56.092C49.9507 56.092 49.6913 56.1903 49.4967 56.3707C49.2697 56.5675 49.14 56.8462 49.1238 57.1414C49.1076 57.4365 49.2049 57.7317 49.3994 57.9612L52.7068 61.7325L58.6569 55.5017C58.8677 55.2885 58.9812 55.0098 58.965 54.6982C58.965 54.4031 58.8353 54.1243 58.6245 53.9112C58.4137 53.7144 58.1381 53.5996 57.8463 53.5996Z" fill="#D22238"/>
<path d="M54.15 46.1718C53.9068 46.1718 53.6798 46.1882 53.4366 46.2045L53.2096 46.2209L52.4314 32.7426H46.076V29.8731C46.076 25.6263 42.6551 22.1665 38.456 22.1665C34.2569 22.1665 30.836 25.6263 30.836 29.8731V32.7262H24.4806L23.0863 56.9282C22.9728 58.7647 23.6051 60.5192 24.8534 61.8473C26.1018 63.1919 27.788 63.9133 29.6038 63.9133H45.7355L45.8004 63.9953C47.8594 66.5533 50.9074 68.0126 54.1662 68.0126C60.1163 68.0126 64.9639 63.1099 64.9639 57.0922C64.9639 51.0745 60.1001 46.1718 54.15 46.1718ZM33.0409 29.8731C33.0409 26.8561 35.4566 24.4129 38.4398 24.4129C41.4229 24.4129 43.8386 26.8561 43.8386 29.8731V32.7262H33.0409V29.8731ZM29.5876 61.6669C28.3878 61.6669 27.2692 61.175 26.4423 60.2896C25.6154 59.4042 25.2101 58.2564 25.275 57.043L26.5558 34.9562H30.8198V37.2354C30.8198 37.8585 31.3224 38.3504 31.9222 38.3504C32.5221 38.3504 33.0247 37.8421 33.0247 37.2354V34.9726H43.8224V37.2518C43.8224 37.8749 44.325 38.3668 44.9249 38.3668C45.5248 38.3668 46.0274 37.8585 46.0274 37.2518V34.9726H50.2913L50.9723 46.6473L50.7939 46.6965C46.3192 48.1558 43.3036 52.337 43.3036 57.0922C43.3036 58.5679 43.5954 59.9944 44.1467 61.339L44.2764 61.6669H29.5876ZM54.15 65.7662C49.4158 65.7662 45.5734 61.8801 45.5734 57.0922C45.5734 52.3042 49.4158 48.4181 54.15 48.4181C58.8841 48.4181 62.7265 52.3042 62.7265 57.0922C62.7265 61.8801 58.8679 65.7662 54.15 65.7662Z" fill="#D22238"/>
</svg>
