<svg width="17" height="14" viewBox="0 0 17 14" fill="none" xmlns="http://www.w3.org/2000/svg">
<path d="M14.8447 3.32801L14.8528 3.75037C14.8528 8.08766 11.5588 13.0991 5.53738 13.0991C3.69211 13.0991 1.96823 12.5549 0.519531 11.6127C0.770424 11.6452 1.02941 11.6615 1.29649 11.6615C2.83422 11.6615 4.24245 11.1335 5.35933 10.2482C3.92681 10.2238 2.72091 9.27351 2.30006 7.96583C2.50239 8.00644 2.70472 8.02268 2.91515 8.02268C3.2146 8.02268 3.50596 7.98207 3.77304 7.90897C2.27578 7.60845 1.15081 6.28452 1.15081 4.69255V4.66006C1.58785 4.90373 2.08963 5.04993 2.63188 5.06618C1.7578 4.48137 1.18318 3.46609 1.18318 2.33709C1.18318 1.73604 1.34505 1.16749 1.62831 0.680149C3.23079 2.67011 5.65069 3.96967 8.37004 4.10775C8.31339 3.8722 8.2891 3.62041 8.2891 3.3605C8.2891 1.54923 9.7459 0.0791016 11.5588 0.0791016C12.4976 0.0791016 13.3555 0.477093 13.9544 1.11063C14.6909 0.964429 15.395 0.696394 16.0344 0.32277C15.7916 1.08626 15.2736 1.73604 14.5938 2.14216C15.2574 2.06094 15.8887 1.88225 16.4795 1.62233C16.0344 2.28024 15.476 2.86504 14.8447 3.32801Z" fill="#E0E0E0"/>
</svg>
